<?xml version="1.0" encoding="UTF-8" standalone="no"?>
<!-- Created with Inkscape (http://www.inkscape.org/) -->

<svg
   width="48"
   height="48"
   viewBox="0 0 12.7 12.7"
   version="1.1"
   id="svg1"
   xml:space="preserve"
   inkscape:version="1.4 (86a8ad7, 2024-10-11)"
   sodipodi:docname="lizard icon.svg"
   inkscape:export-filename="lizard icon.png"
   inkscape:export-xdpi="96"
   inkscape:export-ydpi="96"
   xmlns:inkscape="http://www.inkscape.org/namespaces/inkscape"
   xmlns:sodipodi="http://sodipodi.sourceforge.net/DTD/sodipodi-0.dtd"
   xmlns="http://www.w3.org/2000/svg"
   xmlns:svg="http://www.w3.org/2000/svg"><sodipodi:namedview
     id="namedview1"
     pagecolor="#ffffff"
     bordercolor="#000000"
     borderopacity="0.25"
     inkscape:showpageshadow="2"
     inkscape:pageopacity="0.0"
     inkscape:pagecheckerboard="0"
     inkscape:deskcolor="#d1d1d1"
     inkscape:document-units="mm"
     inkscape:zoom="13.625"
     inkscape:cx="24.036697"
     inkscape:cy="20.587156"
     inkscape:window-width="1920"
     inkscape:window-height="1051"
     inkscape:window-x="-9"
     inkscape:window-y="-9"
     inkscape:window-maximized="1"
     inkscape:current-layer="layer1" /><defs
     id="defs1" /><g
     inkscape:label="Layer 1"
     inkscape:groupmode="layer"
     id="layer1"><path
       style="fill:#1b4400;stroke:#000000;stroke-width:0.14896042;stroke-dasharray:none;stroke-opacity:1;paint-order:normal;fill-opacity:1"
       d="M 5.9247133,12.582503 C 4.814074,12.494683 3.7953647,12.146717 2.9007217,11.549543 2.5185278,11.294433 2.3236298,11.136414 1.9966998,10.816575 1.5931768,10.421804 1.3275388,10.094896 1.0593368,9.6630161 0.56476682,8.8666067 0.25921882,7.993191 0.14870582,7.0599264 c -0.037,-0.3123973 -0.04285,-1.0388851 -0.01072,-1.341091 0.158531,-1.4942376 0.8081,-2.8272238 1.88881098,-3.8760127 0.303015,-0.29407 0.507408,-0.4584976 0.8739678,-0.7030704 C 3.7147839,0.59661077 4.6564098,0.25206872 5.6423962,0.13658048 5.9736279,0.09776678 6.7234681,0.09785718 7.0538385,0.13673414 8.0443782,0.25322692 8.9795124,0.59535313 9.79547,1.1397832 c 0.404324,0.2697747 0.583913,0.4181783 0.959836,0.7931683 0.354256,0.3533727 0.545944,0.5846385 0.789531,0.9525475 0.191249,0.2888548 0.229552,0.3550306 0.384863,0.6648817 0.437728,0.8732906 0.653427,1.7926073 0.653249,2.7841672 C 12.582876,6.9614268 12.518119,7.4535383 12.362591,8.01 12.145829,8.7855744 11.533163,9.9991964 10.978247,10.527881 10.004991,11.455136 9.7943194,11.295815 9.9570778,11.229833 10.858221,10.864498 12.487749,7.5902709 11.830966,5.2458633 11.509048,4.0967721 10.930616,2.9080461 10.030522,2.1334852 8.6649276,0.95834914 6.9255138,0.50338039 5.1897046,0.86729574 3.7430439,1.1705888 2.4893908,2.0311364 1.6598188,3.2903107 1.4818368,3.5604727 1.2324598,4.0575645 1.1098608,4.3865785 0.56023882,5.8615861 0.65228582,7.4739213 1.3665258,8.8824059 2.0795858,10.288568 3.3467962,11.321887 4.8764405,11.744493 5.3725033,11.88154 5.790615,11.930867 6.1688641,11.896966 6.6953196,11.849776 7.1602614,11.666644 7.4681749,11.385197 7.7835635,11.09691 7.9258105,10.722401 7.8784507,10.305029 7.8448344,10.008698 7.6973365,9.6541726 7.4320731,9.2320418 7.3005097,9.0226738 7.029536,8.6444513 6.8938359,8.5045584 6.7234798,8.3289387 6.8634001,8.460042 6.9595831,8.5732148 7.3402188,9.0210859 7.2589242,9.6350691 7.3529132,9.8895855 7.3663202,9.9259205 7.3160802,9.9671875 7.2939862,9.9790405 7.1421004,10.06044 6.6047676,10.086702 6.2558638,10.02981 6.038988,9.9944305 5.9647042,10.00426 5.9280318,10.07308 c -0.059532,0.111741 -0.066173,0.526225 -0.012581,0.784508 0.016931,0.08155 -0.022465,0.224681 -0.084459,0.306695 -0.1587659,0.210126 -0.5112444,0.19219 -0.6558822,-0.03335 -0.054317,-0.08471 -0.058952,-0.105543 -0.05215,-0.234282 0.00665,-0.125751 0.016808,-0.155524 0.092137,-0.270594 0.066482,-0.101514 0.084681,-0.148038 0.084681,-0.216535 0,-0.109263 -0.061687,-0.160574 -0.1688581,-0.140443 -0.1047312,0.01966 -0.2929751,0.153208 -0.4144155,0.293958 -0.1234871,0.143134 -0.2286268,0.20131 -0.3650134,0.201967 -0.289523,0.0013 -0.4883955,-0.313651 -0.3624452,-0.574176 C 4.0651634,10.033378 4.1707081,9.9767265 4.4631392,9.9363487 4.7269881,9.8999187 4.9772178,9.7972946 4.9772178,9.725515 4.9772178,9.634588 4.6693043,9.5082319 4.344468,9.4658518 4.0870054,9.4322567 3.9785521,9.3884727 3.9013429,9.2869896 3.6981379,9.0198787 3.8859269,8.6401242 4.2212157,8.6401242 c 0.1364037,0 0.2336458,0.054063 0.3931213,0.218564 0.128316,0.1323626 0.4123789,0.3380663 0.5398449,0.390936 C 5.3346516,9.3244752 5.3214553,9.1393158 5.1284029,8.8881287 4.975232,8.6888127 4.9438373,8.5630916 5.0085156,8.4080576 5.0762536,8.2456856 5.2099658,8.1549614 5.3817628,8.1547988 c 0.2093124,-2.299e-4 0.3779004,0.1477723 0.3971744,0.3485938 0.00703,0.073172 -0.00431,0.1389559 -0.043314,0.2521418 -0.065002,0.188488 -0.065162,0.2124683 -0.00259,0.4103253 0.074897,0.2373911 0.093285,0.1960081 0.3889514,0.2413849 C 6.5409465,9.4715439 6.3298743,9.3044602 6.2932711,9.2587155 6.0817814,8.9944074 6.0833696,8.6024102 6.122536,8.3250896 6.146442,8.1558433 6.211851,7.9978846 6.2857121,7.9310542 L 6.3283361,7.8924732 6.0002034,7.557605 C 5.5582409,7.1065662 4.9642649,6.4494369 4.8610948,6.1203745 4.8191328,5.9865361 4.8434717,5.8951417 4.8187579,6.034471 4.7643226,6.3413618 4.3732995,7.0314232 4.165132,7.108538 3.9678332,7.1816265 3.5545335,7.120675 3.346875,7.029374 3.1263172,6.932443 2.9796547,7.025754 2.8137098,7.3683498 2.6844977,7.6351533 2.6485313,7.6868507 2.5438267,7.7562944 2.2299447,7.9644734 1.8508207,7.6406799 2.0137827,7.3035983 c 0.04577,-0.094658 0.116634,-0.1539029 0.228074,-0.1906664 0.08079,-0.026638 0.235663,-0.1590818 0.235663,-0.2015071 0,-0.013661 -0.02769,-0.052591 -0.06153,-0.086472 l -0.06153,-0.061605 -0.20559,0.012137 c -0.113086,0.00671 -0.252629,0.018026 -0.310117,0.025243 -0.361913,0.04527 -0.552022,-0.4249482 -0.261511,-0.6468202 0.148108,-0.1131226 0.325193,-0.095123 0.482727,0.04904 0.08909,0.081527 0.125711,0.1012957 0.207423,0.1119477 0.125991,0.01645 0.20095,-0.011621 0.21856,-0.081914 0.02138,-0.085347 -0.08339,-0.2839674 -0.235031,-0.4455194 -0.16068,-0.1711884 -0.196769,-0.2393022 -0.196769,-0.3713799 0,-0.1164798 0.03104,-0.1883394 0.114121,-0.2642469 0.122993,-0.1123742 0.29604,-0.1278038 0.4392588,-0.039175 0.1020314,0.063141 0.1526733,0.1764049 0.1849662,0.4136695 0.060899,0.4474682 0.2351961,0.7261896 0.3274006,0.5235565 0.012581,-0.027684 0.02308,-0.1339021 0.02334,-0.2360754 4.349e-4,-0.2024955 0.03422,-0.3099562 0.1228941,-0.3913358 0.167043,-0.1533206 0.4631008,-0.1001338 0.5601643,0.1006238 0.090029,0.1862167 0.031657,0.3687109 -0.1596111,0.4987458 -0.1456519,0.099036 -0.1914615,0.1566843 -0.2353835,0.2962018 -0.043019,0.1366886 -0.024559,0.175833 0.086494,0.1832199 0.1569284,0.010462 0.3382114,0.048303 0.4122251,0.086123 l 0.075674,0.038672 0.014404,-0.1457477 C 4.0510162,6.1674334 4.1438559,5.9047087 4.2934079,5.7068298 L 4.3864319,5.583739 4.2512728,5.310256 C 4.0964405,4.9969468 3.9906476,4.6891332 3.9253545,4.3619591 3.8655278,4.0621961 3.8609806,3.5559664 3.9157428,3.2965421 4.0749657,2.5427117 4.5126262,1.9814183 5.2140826,1.6314404 5.596912,1.4404358 6.0647397,1.3178705 6.2916636,1.3491217 6.5258195,1.3813497 6.6137667,1.5883205 6.6131173,2.1055578 6.6122474,2.6701914 6.4367585,3.0811428 5.9895331,3.5645039 5.9011421,3.6600409 5.8095944,3.7779612 5.7861062,3.8265443 5.6995392,4.0056076 5.7402662,4.17406 5.9422066,4.4722193 l 0.1334141,0.1969855 0.1413279,3.781e-4 c 0.2913123,9.026e-4 0.6085727,0.1071316 0.9385427,0.3147927 L 7.3472016,5.1050262 7.3922656,4.9450971 C 7.4170346,4.8571401 7.4735096,4.7078634 7.5177242,4.6133844 7.6132252,4.4093219 7.6188198,4.3531389 7.5464112,4.3255703 7.4580572,4.2919473 7.2089182,4.3026253 7.0707202,4.3459843 6.8623164,4.4113713 6.7703039,4.4170783 6.6664137,4.3710463 6.4389587,4.2703064 6.3766822,3.984575 6.5421909,3.8011343 c 0.038928,-0.04314 0.1029808,-0.089054 0.1423741,-0.1020825 0.085692,-0.028303 0.2211026,-0.016178 0.3011299,0.026999 0.2563073,0.1382561 0.3031459,0.1574628 0.3701678,0.1518059 0.063979,-0.00542 0.071522,-0.012396 0.077276,-0.072437 C 7.4453387,3.6786098 7.3823937,3.5487983 7.2262122,3.378457 7.0198426,3.1533839 6.9938983,3.0367323 7.1062999,2.8392692 7.2145919,2.6490123 7.5068581,2.6146919 7.657455,2.7745412 c 0.081133,0.08611 0.1033256,0.1564803 0.1193331,0.3782891 0.024338,0.3371086 0.1375978,0.5212891 0.2319268,0.377136 0.06764,-0.1033742 0.1529187,-0.4054031 0.1661754,-0.5885686 0.015848,-0.2188701 0.061096,-0.3133852 0.1848233,-0.3859834 0.07332,-0.042998 0.1052107,-0.049505 0.2071274,-0.042144 0.1332306,0.00968 0.2025606,0.049028 0.275665,0.1565708 0.1022662,0.150441 0.077621,0.3104554 -0.072914,0.4732871 -0.28246,0.3055459 -0.4248982,0.6126028 -0.3380404,0.7287276 0.047602,0.063644 0.2268067,0.056736 0.3172566,-0.012267 0.103461,-0.07888 0.231774,-0.1392206 0.2949871,-0.1387248 0.074084,4.506e-4 0.2064212,0.062857 0.2615357,0.1230522 C 9.458454,4.0111738 9.4053416,4.3076198 9.2048388,4.4048077 9.100194,4.4555267 8.9874983,4.4583927 8.820708,4.4144977 8.6660914,4.3738847 8.3439376,4.3856487 8.2383581,4.4358107 8.1577801,4.4740817 8.1414531,4.5025927 8.0815997,4.7094436 8.0226237,4.9132525 7.91906,5.1296564 7.8119657,5.2827653 7.6013682,5.5838414 7.8247194,5.887346 6.8394062,5.4506288 6.6471612,5.3654207 6.84523,5.5651376 6.8745715,5.6136538 7.0482983,5.9009111 7.4187742,6.3529284 7.6962236,6.823367 l 0.205025,0.3476346 0.06515,-0.014564 c 0.035835,-0.00801 0.1293909,-0.014423 0.2078938,-0.014293 0.1238137,2.298e-4 0.1628754,0.010196 0.2946483,0.075458 0.1789096,0.088538 0.3832459,0.2700213 0.5511241,0.4894866 0.063967,0.083619 0.1189759,0.1493359 0.1222538,0.146051 0.025212,-0.025243 0.149234,-0.4606255 0.149234,-0.5238222 0,-0.070577 -0.01337,-0.093006 -0.1142932,-0.1916632 C 9.0410693,7.0045144 8.984496,6.9783532 8.7770987,6.9525691 8.657359,6.9376944 8.6005783,6.919398 8.5391681,6.8759488 8.3140817,6.7167016 8.316646,6.3741918 8.5440981,6.2132983 c 0.074947,-0.053004 0.1027958,-0.060558 0.2232664,-0.060558 0.1843404,0 0.278487,0.063592 0.3844007,0.2596361 0.09629,0.1782164 0.1481472,0.2319423 0.1954811,0.202504 0.1115082,-0.069351 0.1236091,-0.3613097 0.026642,-0.6425566 -0.034394,-0.099695 -0.062205,-0.2219626 -0.062205,-0.2732803 0,-0.2571532 0.2382004,-0.4426133 0.4913038,-0.382523 0.1744925,0.041422 0.3145389,0.2179327 0.3149849,0.3969831 6.1e-5,0.024881 -0.03617,0.1407805 -0.08053,0.2575625 -0.06436,0.169467 -0.080328,0.2377707 -0.079098,0.3383081 0.00305,0.2378017 0.082928,0.3481162 0.20623,0.2842711 0.0916,-0.047439 0.220943,-0.1914876 0.292327,-0.3255963 0.07217,-0.1355704 0.178139,-0.2400161 0.261315,-0.2575364 0.0303,-0.00645 0.07159,-0.014914 0.09178,-0.01898 0.06821,-0.013661 0.237389,0.044496 0.299636,0.1030256 0.138826,0.130554 0.172048,0.3137015 0.08766,0.4832668 -0.06367,0.1279073 -0.175984,0.2034456 -0.330482,0.222252 -0.141894,0.017264 -0.211063,0.051054 -0.32195,0.1572421 -0.142439,0.1363991 -0.177583,0.2393344 -0.11316,0.3314298 0.03848,0.055044 0.129399,0.059047 0.272993,0.012009 0.254352,-0.083309 0.507333,0.078957 0.537231,0.3445641 0.0263,0.2337442 -0.158034,0.4351611 -0.398285,0.4351611 -0.112505,0 -0.189494,-0.032462 -0.31228,-0.1316746 C 10.426302,7.8639105 10.348124,7.8251222 10.140296,7.7547863 9.9256532,7.6821433 9.8711781,7.6813553 9.817148,7.7501363 9.780143,7.7972653 9.775349,7.8311853 9.775226,8.0478799 9.7749993,8.3572081 9.746403,8.6165563 9.69259,8.7965841 9.602228,9.0989489 9.444985,9.3309725 9.3704266,9.1982377 9.3512276,9.1640207 9.2709086,9.0842627 9.2481361,9.0507714 9.1108641,8.8487932 8.9508314,8.6694728 8.8104957,8.4457297 8.7001334,8.2697664 8.431703,7.9753633 8.357911,7.9358226 8.320377,7.9157186 8.321215,7.9210896 8.368141,8.0022556 8.6109697,8.4217769 8.8257064,8.899702 8.9157385,9.2210023 9.1188733,9.9459707 9.143621,10.56868 8.9883315,11.047853 8.7313921,11.84069 8.0354551,12.366528 7.0134112,12.540084 c -0.2714802,0.0461 -0.7870485,0.06612 -1.0886356,0.04229 z M 5.9154733,2.3631459 C 5.9213833,2.2856739 5.5514878,2.3932049 5.4488519,2.5488229 5.3279785,2.7321009 5.3436284,2.8478332 5.3678049,3.0118915 5.3857839,3.1338074 5.6498778,2.9683005 5.7780277,2.79051 5.8766217,2.6537053 5.9071006,2.4734423 5.9154678,2.3631459 Z"
       id="path1"
       sodipodi:nodetypes="csssssssscsssscsssssssssssssssssssssssssssssssssssssssccccsssscssssssssssscsssssssssssscsssssscsscssssscsssccscsssssssssssssssssssssscssssssssscscsssssssssssssssssssssssssssssssscsssssssssccssssss" /></g></svg>
