<?xml version="1.0" encoding="UTF-8" standalone="no"?>
<!-- Created with Inkscape (http://www.inkscape.org/) -->

<svg
   width="48"
   height="48"
   viewBox="0 0 12.7 12.7"
   version="1.1"
   id="svg1"
   xml:space="preserve"
   inkscape:version="1.4 (86a8ad7, 2024-10-11)"
   sodipodi:docname="tire icon.svg"
   inkscape:export-filename="tire icon.png"
   inkscape:export-xdpi="96"
   inkscape:export-ydpi="96"
   xmlns:inkscape="http://www.inkscape.org/namespaces/inkscape"
   xmlns:sodipodi="http://sodipodi.sourceforge.net/DTD/sodipodi-0.dtd"
   xmlns="http://www.w3.org/2000/svg"
   xmlns:svg="http://www.w3.org/2000/svg"><sodipodi:namedview
     id="namedview1"
     pagecolor="#ffffff"
     bordercolor="#000000"
     borderopacity="0.25"
     inkscape:showpageshadow="2"
     inkscape:pageopacity="0.0"
     inkscape:pagecheckerboard="0"
     inkscape:deskcolor="#d1d1d1"
     inkscape:document-units="mm"
     inkscape:zoom="11.592063"
     inkscape:cx="24.542655"
     inkscape:cy="27.130632"
     inkscape:window-width="1920"
     inkscape:window-height="1051"
     inkscape:window-x="-9"
     inkscape:window-y="-9"
     inkscape:window-maximized="1"
     inkscape:current-layer="layer1" /><defs
     id="defs1" /><g
     inkscape:label="Layer 1"
     inkscape:groupmode="layer"
     id="layer1"
     transform="matrix(0.90335396,0,0,0.90335396,0.55506117,0.65415253)"><ellipse
       style="display:inline;fill:#000000;fill-opacity:1;fill-rule:evenodd;stroke:#000000;stroke-width:0.203685;stroke-linecap:round;stroke-linejoin:round;stroke-miterlimit:3.5;stroke-dasharray:none;stroke-opacity:1;paint-order:stroke fill markers"
       id="path2"
       cx="8.068469"
       cy="6.2767448"
       rx="2.9786005"
       ry="5.7974296" /><path
       style="fill:#ffffff;fill-opacity:1;stroke:#000000;stroke-width:1.01538;stroke-linecap:round;stroke-linejoin:round;stroke-dasharray:none;stroke-opacity:1;paint-order:stroke fill markers"
       d="M 6.8369149,12.759657 C 6.6046514,12.743368 6.6023765,12.742059 6.493792,12.559578 6.2769936,12.1953 6.3749264,11.869862 6.7636599,11.662831 l 0.1957861,-0.10427 0.067516,0.09032 c 0.4503243,0.602328 0.7352063,0.816838 1.2864404,0.968673 0.1193054,0.03288 0.1027753,0.0394 -0.2040188,0.08096 -0.4160313,0.0563 -0.9654677,0.08272 -1.2724674,0.06119 z M 5.7295984,12.631327 C 5.5401392,12.598319 5.2475673,12.365179 4.9144694,11.981804 3.9415178,10.861991 3.3771926,9.0363301 3.3182734,6.8179305 3.2461853,4.1035429 3.9716694,1.6326487 5.2342789,0.29232709 5.6061038,-0.10238026 5.6682787,-0.13732983 6.0009257,-0.13856235 6.1162241,-0.13899193 6.1125059,-0.13295717 5.7765304,0.2266343 5.3705983,0.66109541 5.0942276,1.0921811 4.7931429,1.7605326 3.6226931,4.3587183 3.5573727,8.2491416 4.6427163,10.719882 c 0.3327524,0.75749 0.7913833,1.397761 1.2728845,1.776992 l 0.2173759,0.171205 -0.1246436,-0.0049 c -0.068558,-0.003 -0.193985,-0.01704 -0.2787411,-0.0318 z M 4.6966673,12.444851 C 4.0072536,12.289076 3.4512629,12.013755 3.0759986,11.642302 l -0.1969681,-0.194968 0.2070321,0.05646 c 0.2976542,0.08119 0.6926079,0.261716 1.202565,0.549679 0.8655228,0.488739 0.8736988,0.496582 0.4080397,0.39137 z m 3.480555,-0.127605 C 7.2033813,11.931966 6.4449318,10.42613 6.140084,8.2727005 6.0605973,7.7112186 6.0297472,6.1391816 6.0851166,5.4716846 6.2855993,3.0546814 7.1559506,1.0088081 8.2206713,0.45179453 8.8252295,0.13551612 9.3941271,0.24483281 9.9315501,0.78054312 11.150031,1.9951334 11.737022,5.043293 11.317311,7.9765435 11.01803,10.068137 10.210107,11.730387 9.2462691,12.237566 8.9276277,12.405237 8.4833327,12.438352 8.1772274,12.317255 Z M 9.1109394,11.373505 C 9.4876093,11.167762 9.7954983,10.797797 10.072294,10.218341 10.567356,9.1819402 10.819358,7.9753625 10.860918,6.442416 10.910938,4.597273 10.593161,2.9926255 9.9819515,2.003994 9.7511425,1.6306599 9.5616746,1.43628 9.2778652,1.2816541 9.0426308,1.1534945 8.6949208,1.1543489 8.4429023,1.2835265 7.5830709,1.7248644 6.8980988,3.4168439 6.7164829,5.5480412 c -0.056914,0.6678152 -0.028036,1.9631018 0.057404,2.5741319 0.2318517,1.6582947 0.7831332,2.8686329 1.4770463,3.2428629 0.2037462,0.109876 0.2563521,0.121796 0.4705126,0.106523 0.1413614,-0.01008 0.3025003,-0.05071 0.3894948,-0.09823 z m -0.614091,-0.54228 C 8.3368539,10.738494 8.2619596,10.540433 8.2855054,10.272312 8.3128885,9.9605803 8.7127488,8.0428009 8.7641273,7.9768287 c 0.022346,-0.028663 0.061198,-0.05211 0.086396,-0.05211 0.045271,0 0.6457765,0.9398027 0.7952298,1.2445449 0.090039,0.1836042 0.095741,0.3183513 0.025374,0.5999741 C 9.482315,10.524892 8.8909987,11.059673 8.4968551,10.831226 Z M 7.690766,9.8508667 C 7.4674748,9.5975917 7.1846288,8.6639059 7.0731215,7.8119872 7.0141597,7.361466 7.0015483,6.7207197 7.04815,6.5412338 7.0952416,6.3597945 7.2163469,6.3975649 7.9125738,6.8107883 8.1577791,6.9563236 8.1651926,7.0430732 8.0536713,8.461949 7.9469648,9.8195499 7.92904,9.9406451 7.8347137,9.9406451 c -0.035624,0 -0.1003884,-0.040386 -0.1439238,-0.089781 z M 9.8665802,8.2903471 C 9.4837756,7.2515799 9.2407698,6.4610209 9.2407698,6.2544379 c 0,-0.1508212 0.057429,-0.3360138 0.2642466,-0.8522136 0.3362092,-0.8391026 0.4706446,-1.1231583 0.5227986,-1.104638 0.02287,0.00808 0.06469,0.08491 0.09296,0.1706534 0.258711,0.7846161 0.219428,3.075822 -0.06451,3.762816 C 9.9756726,8.4260513 9.9226888,8.4426161 9.8665784,8.290351 Z M 8.3835184,7.6579021 C 8.3381226,7.5324463 8.3619133,7.2639468 8.4242666,7.1985436 8.5323423,7.0851181 8.6176988,7.4387516 8.5369021,7.6652097 8.4899863,7.7967112 8.4327705,7.7939845 8.3835322,7.6578666 Z M 8.9476326,7.2994748 C 8.849882,7.104844 8.9454938,6.6872268 9.0599288,6.8077445 c 0.06856,0.07206 0.059766,0.4328356 -0.012435,0.5097661 -0.054138,0.057692 -0.062605,0.056163 -0.099873,-0.018028 z M 8.5494141,6.7954192 C 8.3594349,6.4864462 8.4672022,5.6663681 8.6817115,5.7887008 c 0.09662,0.055098 0.151017,0.2478643 0.151017,0.5351313 0,0.2872634 -0.054402,0.4800316 -0.151017,0.5351314 -0.055632,0.031746 -0.081283,0.019422 -0.1322974,-0.063542 z M 8.1465406,6.4227661 c -0.042369,-0.073063 -0.026152,-0.4368888 0.022208,-0.499033 0.043197,-0.055441 0.052832,-0.054559 0.096305,0.00882 0.049856,0.072648 0.065544,0.3567407 0.025801,0.4671176 -0.025198,0.06999 -0.1093444,0.083454 -0.1443446,0.023107 z M 8.9320178,5.8791426 c -0.079097,-0.1432114 -0.041313,-0.563275 0.050659,-0.563275 0.055784,0 0.1097087,0.1457143 0.1097087,0.2964606 0,0.2071436 -0.100753,0.3747632 -0.1603714,0.2668144 z M 7.1276769,5.4765774 C 7.0201287,5.2624446 7.1255414,4.1956271 7.3275329,3.4526239 7.5766873,2.5364452 8.0093281,1.9383803 8.0956643,2.3907923 8.1279586,2.5600274 8.2021201,4.227103 8.2021201,4.783916 c 0,0.5142341 -0.013402,0.5326198 -0.4872401,0.667432 C 7.2843946,5.5738262 7.1788023,5.5783643 7.1276811,5.4765598 Z M 8.4471993,5.2533405 c -0.04154,-0.1153102 -0.023702,-0.4406191 0.026592,-0.4850873 0.079612,-0.070396 0.1363721,0.027867 0.1363721,0.2360615 0,0.2200943 -0.027207,0.3115529 -0.092739,0.3115529 -0.026241,0 -0.057831,-0.028148 -0.070216,-0.062526 z M 8.8147134,4.6700706 C 8.7595322,4.5803141 8.3875932,2.3552643 8.3875932,2.1148703 c 0,-0.1597099 0.1966566,-0.3963511 0.3284188,-0.3951838 0.2817808,0.00233 0.6163433,0.3163024 0.8385919,0.7865812 0.2595112,0.5491186 0.3106751,0.9918379 0.1447692,1.2526112 -0.09853,0.1548684 -0.7863616,1.003594 -0.8133415,1.003594 -0.00791,0 -0.040046,-0.041598 -0.071323,-0.092401 z M 5.8643577,12.087721 C 5.5275129,11.704013 5.3087298,11.373276 5.3087298,11.24776 c 0,-0.180395 0.1085656,-0.459407 0.244689,-0.628871 0.1371913,-0.170793 0.520473,-0.398111 0.6958813,-0.412723 0.096106,-0.008 0.1114549,0.01303 0.2244521,0.307632 0.066712,0.173927 0.165721,0.409022 0.2200265,0.522432 0.054301,0.113414 0.098742,0.214862 0.098742,0.225437 0,0.01065 -0.078368,0.05618 -0.1741596,0.101326 -0.4115004,0.19397 -0.5509087,0.397415 -0.5201339,0.759059 0.010803,0.126395 0.014722,0.229808 0.0088,0.229808 -0.00591,0 -0.1151226,-0.11886 -0.2426479,-0.264131 z M 4.4740996,12.031897 C 3.9404612,11.669586 3.3271202,11.35037 2.9364474,11.231637 2.6378938,11.140901 2.6163866,11.126668 2.4862258,10.933887 2.3230283,10.692172 2.0294439,10.101521 2.0575845,10.071534 c 0.041401,-0.04412 0.5803054,0.114675 0.840947,0.247776 0.5488061,0.28026 1.1528593,0.789504 1.4262369,1.202385 0.1079877,0.163091 0.291494,0.407706 0.4077898,0.543584 0.1162907,0.135875 0.1975297,0.24629 0.180517,0.245361 -0.016995,-9.34e-4 -0.21455,-0.126363 -0.4389756,-0.278738 z M 4.963675,10.642269 C 4.8914613,10.462909 4.7987163,10.224942 4.7575711,10.113446 L 4.6827575,9.9107272 4.7887359,9.6719389 c 0.1852752,-0.4174667 0.4978519,-0.6752 0.9988931,-0.8236407 0.1243296,-0.036838 0.2312296,-0.059601 0.2375517,-0.050581 0.00627,0.00905 0.058196,0.2379205 0.1152858,0.5086879 0.057077,0.2707647 0.1112413,0.5129837 0.1203354,0.5382596 0.00992,0.027499 -0.053095,0.064644 -0.1570038,0.092523 -0.2483731,0.066649 -0.5118662,0.2181853 -0.6672308,0.3837403 -0.1366558,0.145625 -0.2762124,0.434456 -0.2762124,0.571673 0,0.154598 -0.069023,0.06675 -0.1966792,-0.25033 z M 3.787849,10.763197 C 3.3115394,10.299767 2.7772578,9.9807137 2.249463,9.8445383 L 1.9145717,9.7581351 1.7961293,9.3775404 C 1.7309886,9.1682124 1.6665315,8.9335693 1.652897,8.8561124 1.6291503,8.7212857 1.6326121,8.7153048 1.734244,8.7157527 c 0.4428443,0.00183 1.114371,0.3871311 1.5955705,0.9151753 0.1881226,0.2064385 0.2555544,0.3198776 0.3838196,0.645713 0.085578,0.217406 0.179247,0.453089 0.2081451,0.523749 0.028915,0.07065 0.048148,0.127735 0.042758,0.126844 -0.00541,-9.35e-4 -0.084887,-0.07469 -0.1767009,-0.164033 z M 4.4822481,9.1599724 C 4.3248914,8.4631704 4.3246502,8.5227189 4.4857653,8.2568298 4.6566074,7.9751642 4.8383994,7.8058129 5.1416444,7.6458363 5.34295,7.5396436 5.8233029,7.3999106 5.8621645,7.4362463 c 0.019458,0.018161 0.1099096,0.779657 0.112334,0.9455583 0.00176,0.1178435 -0.00627,0.12357 -0.2975713,0.2132652 -0.4971585,0.1530803 -0.8605098,0.4603106 -1.0187004,0.8613631 -0.02786,0.070652 -0.057317,0.1284675 -0.065431,0.1284675 -0.00817,0 -0.057932,-0.1912187 -0.1107135,-0.424928 z M 3.0854496,9.1255701 C 2.6479137,8.7207325 2.0712109,8.441561 1.6675342,8.439166 1.5744941,8.4386985 1.5665982,8.4233858 1.5289417,8.171768 1.5069916,8.0250235 1.4749382,7.7848902 1.4577374,7.6381408 L 1.4264553,7.3713265 h 0.1381325 c 0.1862562,0 0.5666852,0.1308714 0.8029545,0.2762158 0.2049596,0.1260872 0.6312808,0.530444 0.7559323,0.7169903 C 3.1810546,8.4506906 3.4339134,9.3915264 3.40469,9.410873 3.40117,9.413193 3.2575367,9.2847917 3.0854358,9.1255579 Z M 4.2277098,7.6614721 4.1735466,7.1215139 4.3278458,6.8981642 C 4.5195484,6.6206733 4.7062554,6.4534 4.9934262,6.3018606 5.1883833,6.1989722 5.7741364,6.034061 5.8077098,6.0725961 c 0.00677,0.00771 0.018264,0.252696 0.025588,0.5443383 l 0.013314,0.5302519 -0.2596645,0.054925 C 5.0734718,7.3107281 4.6144639,7.6298787 4.3932718,8.032074 4.3420478,8.12522 4.2960248,8.2014254 4.2909998,8.2014254 c -0.00503,0 -0.033512,-0.2429801 -0.063283,-0.5399547 z M 2.8463817,7.8031805 C 2.4941871,7.4242123 2.0967979,7.1917365 1.6823252,7.1221919 L 1.4217979,7.0784885 1.3992343,6.903171 C 1.372072,6.6919143 1.3691786,6.0485686 1.3952928,6.0207567 c 0.051549,-0.054939 0.5081565,0.059601 0.7576645,0.1900379 0.3032804,0.1585521 0.7166676,0.5619578 0.824732,0.804807 0.033866,0.076086 0.084159,0.3562291 0.1117812,0.6225477 0.027647,0.2663235 0.050005,0.4831696 0.049729,0.4818858 C 3.138926,8.1186861 3.0071587,7.9761654 2.8463892,7.8031767 Z M 4.160042,6.2569285 4.1587858,5.7156717 4.3720797,5.4694659 c 0.3730032,-0.430558 0.8026947,-0.6645378 1.3391506,-0.729213 0.2061289,-0.024832 0.2222347,-0.021197 0.2069756,0.047057 -0.00917,0.040717 -0.030448,0.2742649 -0.047494,0.519034 -0.016995,0.2447644 -0.040874,0.455605 -0.052995,0.4685325 -0.012185,0.012937 -0.1518902,0.047534 -0.3105746,0.076894 -0.4924684,0.091126 -0.9006741,0.3533479 -1.22718,0.7883043 L 4.1612731,6.7981876 Z M 2.9075743,6.6168867 C 2.7983429,6.4297248 2.4755,6.1074805 2.2669693,5.9774622 2.0814896,5.8618216 1.7232025,5.7506918 1.5358291,5.7506918 c -0.1459705,0 -0.1478327,-0.017085 -0.06685,-0.6126824 0.029574,-0.2174053 0.054271,-0.4110571 0.054919,-0.4303388 8.764e-4,-0.019275 0.1078271,-0.025956 0.2381831,-0.014796 0.4313136,0.036886 0.8147967,0.2965583 1.1008392,0.7454078 l 0.1480432,0.2322982 -0.010304,0.5440348 -0.010304,0.54403 z M 4.1966124,5.2580963 C 4.1983709,4.9976742 4.3034446,4.3593977 4.3600072,4.2674162 4.4578834,4.1082327 4.9025741,3.7386243 5.1450761,3.6148905 5.5245069,3.4212949 6.1977017,3.2964277 6.1503753,3.4284202 6.1407032,3.4555894 6.0935364,3.6942113 6.0457036,3.958672 L 5.9587429,4.4395114 5.754291,4.4647715 C 5.228448,4.5297941 4.8099672,4.7379068 4.4496432,5.1135903 4.197111,5.3768833 4.1958851,5.3775835 4.1966036,5.2580755 Z M 2.9037758,5.1680584 C 2.6450661,4.7384576 2.2396967,4.4576378 1.8196604,4.4170527 1.6547322,4.4011306 1.5992654,4.3804476 1.5992654,4.3349697 c 0,-0.033424 0.052763,-0.2732797 0.1172517,-0.5329932 L 1.8337686,3.3297701 2.081884,3.3486785 c 0.4229575,0.03226 0.7692457,0.2931354 0.9814794,0.7394318 l 0.094196,0.1980771 -0.066109,0.5418724 -0.066109,0.5418735 z M 4.4764436,3.4879048 C 4.5991656,2.9776995 4.607044,2.9594826 4.7768801,2.7929191 5.2572595,2.3217996 5.8570017,2.0350551 6.3620122,2.0350551 c 0.1143689,0 0.207939,0.00844 0.207939,0.018724 0,0.010282 -0.048813,0.1496683 -0.1084651,0.3096964 C 6.4018328,2.523508 6.325526,2.7552091 6.2919264,2.878369 L 6.2308291,3.1023011 H 6.0724725 c -0.2392741,0 -0.700196,0.1389903 -0.9794055,0.2953345 C 4.9561094,3.4743214 4.732984,3.6438943 4.5972312,3.7744523 L 4.350408,4.0118309 Z M 3.1062772,3.7538979 C 2.8939529,3.3217661 2.5143664,3.0627869 2.0933095,3.0627869 c -0.088104,0 -0.1596266,-0.013352 -0.1589345,-0.029641 8.763e-4,-0.016288 0.097136,-0.2519911 0.2143228,-0.5237496 l 0.2130614,-0.4940984 0.2586369,9.337e-4 c 0.3186665,0.00134 0.494052,0.084678 0.6486893,0.3087344 0.061688,0.089377 0.13953,0.2550581 0.172994,0.3681752 L 3.5029129,2.8988146 3.3628566,3.425472 C 3.2858199,3.715134 3.2201674,3.9555183 3.2169481,3.9596645 3.213937,3.9638235 3.1639279,3.8711929 3.1062722,3.7538613 Z M 4.8134593,2.3839767 C 4.8650728,2.2486189 4.9720607,2.0006186 5.0512172,1.8328646 5.1860983,1.5469978 5.2144148,1.5142752 5.5023202,1.3115151 5.6712745,1.1925298 5.8929717,1.0511999 5.9949844,0.99745419 6.3528163,0.80891971 6.9205355,0.65157654 7.242984,0.65157654 H 7.3830616 L 7.1972603,0.91315221 C 7.0950758,1.0570217 6.9413329,1.3058614 6.8556221,1.4661272 L 6.6997817,1.7575218 6.4924204,1.7579419 C 6.011217,1.7588757 5.412864,2.0172629 4.9555606,2.4215034 L 4.7196128,2.6300763 Z M 3.5475676,2.3682333 C 3.4833427,2.1327983 3.3206576,1.9081136 3.1424582,1.8087182 3.0791879,1.7734226 2.920236,1.7343086 2.7892449,1.7218009 L 2.5510813,1.6990645 2.7481964,1.4421294 C 2.8566115,1.3008183 3.0551484,1.0651349 3.1893852,0.91838477 l 0.244076,-0.26681342 h 0.2092843 c 0.2540346,0 0.372075,0.0835967 0.4352347,0.30824364 C 4.1727286,1.2967804 4.1413512,1.4549781 3.8638599,2.0394242 L 3.6060182,2.5824922 Z M 4.320623,1.0064037 C 4.3600522,0.62055741 4.2404958,0.37486432 4.0132906,0.37486432 c -0.1383908,0 -0.055647,-0.0577236 0.2481207,-0.17309062 0.2460947,-0.0934672 0.9263086,-0.26171585 1.0580796,-0.26171585 0.030096,0 -0.1318112,0.20011289 -0.3598291,0.44469008 C 4.7316438,0.62932978 4.4895561,0.91837607 4.4216948,1.0270765 L 4.298307,1.2247195 Z M 5.5163498,1.006567 C 5.8280372,0.54284284 6.1140723,0.26524891 6.4735284,0.07765272 c 0.206585,-0.10781296 0.4277948,-0.19088293 0.5701824,-0.21410959 0.2517598,-0.0410843 1.2841958,0.0138197 1.429063,0.07595877 0.081258,0.03487449 0.081283,0.03510827 0.003,0.03758297 C 8.3483248,-0.01871734 8.0873905,0.0907992 7.8683347,0.23238133 7.6978906,0.34254284 7.6145766,0.36846817 7.3620545,0.38991132 6.7163823,0.44474057 6.1674457,0.6670292 5.4607781,1.1598158 c -0.072916,0.050851 -0.062805,0.02297 0.055646,-0.1532443 z"
       id="path1" /></g></svg>
