<?xml version="1.0" encoding="UTF-8" standalone="no"?>
<!-- Created with Inkscape (http://www.inkscape.org/) -->

<svg
   width="48"
   height="48"
   viewBox="0 0 12.7 12.7"
   version="1.1"
   id="svg1"
   xml:space="preserve"
   inkscape:version="1.4 (86a8ad7, 2024-10-11)"
   sodipodi:docname="turtle icon.svg"
   inkscape:export-filename="turtle icon.png"
   inkscape:export-xdpi="96"
   inkscape:export-ydpi="96"
   xmlns:inkscape="http://www.inkscape.org/namespaces/inkscape"
   xmlns:sodipodi="http://sodipodi.sourceforge.net/DTD/sodipodi-0.dtd"
   xmlns="http://www.w3.org/2000/svg"
   xmlns:svg="http://www.w3.org/2000/svg"><sodipodi:namedview
     id="namedview1"
     pagecolor="#ffffff"
     bordercolor="#000000"
     borderopacity="0.25"
     inkscape:showpageshadow="2"
     inkscape:pageopacity="0.0"
     inkscape:pagecheckerboard="0"
     inkscape:deskcolor="#d1d1d1"
     inkscape:document-units="mm"
     inkscape:zoom="5.6568543"
     inkscape:cx="30.670756"
     inkscape:cy="8.2201163"
     inkscape:window-width="1920"
     inkscape:window-height="1051"
     inkscape:window-x="-9"
     inkscape:window-y="-9"
     inkscape:window-maximized="1"
     inkscape:current-layer="layer1" /><defs
     id="defs1" /><g
     inkscape:label="Layer 1"
     inkscape:groupmode="layer"
     id="layer1"
     transform="translate(-96.327776,-137.25862)"><path
       style="fill:#ad7e00;fill-opacity:1;stroke:#815d00;stroke-width:0.329092;stroke-linecap:round;stroke-linejoin:round;stroke-dasharray:none;stroke-opacity:1;paint-order:normal"
       d="m 98.607581,146.17525 c 0.135902,-0.22248 0.278046,-0.40729 0.315854,-0.41071 0.03787,-0.003 0.172645,0.13025 0.299607,0.29704 0.126973,0.1668 0.219543,0.33183 0.205717,0.36678 -0.01378,0.0348 -0.233034,0.11848 -0.487155,0.18567 -0.333826,0.0881 -0.478541,0.10035 -0.521567,0.044 -0.04303,-0.0565 0.009,-0.19047 0.187544,-0.48272 z m -2.003314,-2.50646 c 0.13754,-0.51158 0.934092,-1.30755 1.652905,-1.65166 0.56664,-0.27126 0.631036,-0.2064 0.446708,0.44983 -0.07515,0.26721 -0.159639,0.66025 -0.187959,0.87342 -0.02834,0.21317 -0.08044,0.40911 -0.115874,0.43542 -0.03536,0.0263 -0.164807,0.0473 -0.287549,0.0461 -0.122743,-7.2e-4 -0.495152,0.0403 -0.827579,0.0911 -0.658347,0.10096 -0.763373,0.0632 -0.680652,-0.24446 z m 4.168693,4.83144 c 0.14267,-0.30298 0.28662,-0.64632 0.31989,-0.76303 0.0333,-0.1167 0.0893,-0.2337 0.12486,-0.26002 0.0353,-0.0263 0.24046,-0.0214 0.45567,0.0105 0.21519,0.0324 0.62095,0.0611 0.90167,0.0642 0.51169,0.004 0.6125,0.0409 0.5715,0.20032 -0.072,0.27964 -1.0215,1.05639 -1.56177,1.2775 -0.3979,0.16283 -0.87568,0.21277 -0.98738,0.10319 -0.0692,-0.0679 -0.0386,-0.17824 0.17556,-0.63307 z m -1.340045,-2.99211 c -0.251735,-0.52106 -0.303647,-1.23926 -0.100515,-1.39019 0.110472,-0.0821 1.16842,-0.25668 1.33354,-0.22012 0.12454,0.0276 0.21761,0.12532 0.60916,0.63969 0.39157,0.51435 0.46079,0.62984 0.45303,0.75565 -0.0105,0.16466 -0.47327,1.12173 -0.58177,1.20233 -0.33769,0.25081 -1.4153,-0.37012 -1.713505,-0.98736 z m -0.246454,-2.63654 c 0.02942,-0.17578 0.08581,-0.42628 0.125259,-0.55663 0.10283,-0.33953 0.457717,-1.0047 0.587474,-1.10107 0.101306,-0.0753 0.383786,-0.08 0.451536,-0.008 0.0156,0.0166 0.0668,0.0643 0.11338,0.1055 0.0465,0.0413 0.2118,0.21489 0.36706,0.38587 l 0.28233,0.31088 -0.10898,0.53359 c -0.11348,0.55578 -0.18056,0.74415 -0.29542,0.82945 -0.0786,0.0584 -1.128357,0.12174 -1.29213,0.0781 -0.212005,-0.0564 -0.286499,-0.24329 -0.230497,-0.57798 z m 2.630909,3.73126 c 0.003,-0.16755 0.35625,-1.14613 0.43473,-1.20442 0.11487,-0.0853 0.31667,-0.0967 0.88877,-0.0499 l 0.5492,0.0448 0.22399,0.35419 c 0.12319,0.19483 0.2462,0.39977 0.27337,0.45547 0.0272,0.0558 0.059,0.11728 0.0713,0.13683 0.0514,0.0843 -0.0314,0.35111 -0.13289,0.42633 -0.12975,0.0965 -0.87524,0.24845 -1.234,0.25173 -0.74907,0.007 -1.07965,-0.12078 -1.07432,-0.41489 z m -0.51622,-3.10914 c 0.0164,-0.29209 0.30833,-1.2048 0.409,-1.27958 0.1201,-0.0892 1.44201,-0.41225 1.63063,-0.39849 0.11291,0.009 0.19637,0.0974 0.65569,0.70079 0.45935,0.60341 0.52291,0.70734 0.49956,0.81678 -0.039,0.18299 -0.72029,1.34751 -0.84058,1.43683 -0.11268,0.0835 -1.32262,0.0904 -1.45558,0.009 -0.0449,-0.0278 -0.26732,-0.29452 -0.49438,-0.59279 -0.3443,-0.45228 -0.41142,-0.56709 -0.40434,-0.69171 z m -2.271249,-4.56508 c 0.06507,-0.33313 0.728628,-0.71167 1.481659,-0.84519 0.77826,-0.13801 1.53458,-0.036 2.67374,0.36029 0.31366,0.10908 0.46127,0.19295 0.56322,0.31982 0.15588,0.19394 0.18784,0.51057 0.0637,0.63033 -0.0435,0.042 -0.462,0.0829 -0.96813,0.0951 -0.49043,0.0116 -1.25006,0.0313 -1.6881,0.044 -0.82489,0.0235 -1.332663,-0.0333 -1.773022,-0.19851 -0.306913,-0.1151 -0.390926,-0.21169 -0.353036,-0.40578 z m 6.776139,8.79666 c -0.0231,-0.49226 0.0538,-0.91161 0.31699,-1.72731 0.13719,-0.42525 0.36578,-1.13634 0.50799,-1.58021 0.14556,-0.45437 0.29915,-0.82988 0.35143,-0.85929 0.1507,-0.0848 0.44987,0.0335 0.59528,0.23527 0.14339,0.19899 0.19159,0.66592 0.16568,1.60449 -0.0237,0.86206 -0.30515,1.66172 -0.80177,2.27871 -0.39207,0.4871 -0.87097,0.68803 -1.05267,0.44166 -0.0379,-0.0512 -0.0752,-0.22833 -0.083,-0.39332 z m -4.94885,-6.91942 c -3.7e-4,-0.0413 0.0262,-0.13182 0.0592,-0.201 0.1289,-0.26948 1.21995,-0.60534 1.94888,-0.59992 0.36616,0.003 0.48831,0.0623 0.54822,0.26701 0.0442,0.15071 -0.21633,0.97568 -0.33608,1.06463 -0.0405,0.0301 -0.25685,0.094 -0.4807,0.14158 -0.22385,0.0479 -0.51825,0.11325 -0.65422,0.14553 -0.13596,0.0323 -0.30471,0.0323 -0.37498,6e-5 -0.15265,-0.07 -0.70912,-0.71069 -0.7104,-0.81789 z m 3.39952,4.4428 c -0.10331,-0.23481 -0.0987,-0.2983 0.039,-0.53749 0.0686,-0.11893 0.21337,-0.37915 0.322,-0.5783 0.10862,-0.19916 0.23397,-0.3892 0.2786,-0.42234 0.0446,-0.0332 0.29684,-0.0671 0.56053,-0.0756 0.72985,-0.0234 0.8548,0.14357 0.6128,0.81916 -0.25259,0.70503 -0.79339,1.47174 -1.06913,1.51571 -0.0766,0.0121 -0.1704,0.0115 -0.20873,-0.002 -0.0876,-0.0302 -0.44097,-0.50541 -0.53506,-0.71919 z m -0.44349,-4.21847 c 0.032,-0.21418 0.11476,-0.49137 0.18414,-0.616 0.11371,-0.20432 0.14243,-0.22875 0.29261,-0.24865 0.2465,-0.0325 0.78372,0.1377 1.12903,0.35794 0.41335,0.26368 0.76914,0.73105 0.9108,1.1965 0.11835,0.38881 0.13485,0.94587 0.0346,1.17069 -0.0609,0.13658 -0.0925,0.15744 -0.31344,0.20648 -0.13516,0.03 -0.41664,0.0389 -0.62551,0.0197 l -0.37974,-0.0347 -0.64532,-0.83129 -0.64534,-0.83128 z m 1.71173,-1.2973 c 0.16054,-0.25139 0.46329,-0.47393 0.78831,-0.65889 0.62029,-0.35301 1.30858,-0.35932 1.63531,-0.31985 0.0935,0.0115 0.19841,0.0389 0.27413,0.0659 0.34685,0.12412 0.48448,0.42903 0.54489,0.72355 0.009,0.0428 0.0188,0.13101 -0.0105,0.28177 -0.0671,0.35165 -0.45625,1.14423 -0.81051,1.48824 -0.23615,0.24119 -0.33899,0.31905 -0.59666,0.4302 -0.29909,0.12902 -0.31687,0.12892 -0.40677,-0.002 -0.12013,-0.17728 -0.24509,-1.03438 -0.99012,-1.50639 -0.45742,-0.28976 -0.51857,-0.36144 -0.42855,-0.50238 z"
       id="path1"
       sodipodi:nodetypes="scscsssssssscssssssssssssssssssscssssscsssccsssssssscssssssssssssssssssssssssssssscssssssscsssssssssssssssssscccsssssssssssssscscccs" /></g></svg>
