<?xml version="1.0" encoding="UTF-8" standalone="no"?>
<!-- Created with Inkscape (http://www.inkscape.org/) -->

<svg
   width="162.78429mm"
   height="162.78429mm"
   viewBox="0 0 162.78429 162.78429"
   version="1.1"
   id="svg1"
   xml:space="preserve"
   inkscape:version="1.4 (86a8ad7, 2024-10-11)"
   sodipodi:docname="minimap.svg"
   inkscape:export-filename="..\Растерни изображения\minimap.png"
   inkscape:export-xdpi="96"
   inkscape:export-ydpi="96"
   xmlns:inkscape="http://www.inkscape.org/namespaces/inkscape"
   xmlns:sodipodi="http://sodipodi.sourceforge.net/DTD/sodipodi-0.dtd"
   xmlns="http://www.w3.org/2000/svg"
   xmlns:svg="http://www.w3.org/2000/svg"><sodipodi:namedview
     id="namedview1"
     pagecolor="#ffffff"
     bordercolor="#000000"
     borderopacity="0.25"
     inkscape:showpageshadow="2"
     inkscape:pageopacity="0.0"
     inkscape:pagecheckerboard="0"
     inkscape:deskcolor="#d1d1d1"
     inkscape:document-units="mm"
     inkscape:zoom="1.0494603"
     inkscape:cx="443.08487"
     inkscape:cy="260.61013"
     inkscape:window-width="1920"
     inkscape:window-height="1051"
     inkscape:window-x="-9"
     inkscape:window-y="-9"
     inkscape:window-maximized="1"
     inkscape:current-layer="svg1" /><defs
     id="defs1"><clipPath
       clipPathUnits="userSpaceOnUse"
       id="clipPath1"><ellipse
         style="display:inline;fill:#000000;fill-opacity:1;fill-rule:evenodd;stroke-width:0.669065;stroke-linecap:round;stroke-linejoin:round;stroke-miterlimit:3.5"
         id="ellipse1"
         cx="102.52885"
         cy="137.78214"
         rx="77.903137"
         ry="77.684937"
         inkscape:label="path1" /></clipPath></defs><g
     inkscape:groupmode="layer"
     id="layer2"
     inkscape:label="Layer 2"
     style="display:none"><rect
       style="fill:#000000;fill-opacity:1;fill-rule:evenodd;stroke-width:0.632;stroke-linecap:round;stroke-linejoin:round;stroke-miterlimit:3.5"
       id="rect1"
       width="245.55875"
       height="259.67709"
       x="-27.732506"
       y="-29.245188" /></g><ellipse
     style="display:inline;fill:#1e2033;fill-opacity:1;fill-rule:evenodd;stroke-width:0.723014;stroke-linecap:round;stroke-linejoin:round;stroke-miterlimit:3.5"
     id="path1"
     cx="81.434357"
     cy="81.459129"
     rx="78.913223"
     ry="78.417694" /><g
     inkscape:label="Layer 1"
     inkscape:groupmode="layer"
     id="layer1"
     transform="translate(-21.600357,-56.315506)"
     style="display:inline"
     clip-path="url(#clipPath1)"><g
       id="g348"
       transform="translate(0.26746553,0.28870365)"
       style="display:inline"><path
         style="display:inline;fill:#f3f3f3;fill-opacity:1"
         d="m 96.614758,215.97074 c -0.08352,-0.0806 -1.586843,-0.3008 -3.340723,-0.48936 -14.172806,-1.5237 -28.33624,-7.47658 -40.088667,-16.84923 -3.163989,-2.5233 -10.092207,-9.53663 -12.482531,-12.63588 -7.08654,-9.18825 -11.866419,-19.09157 -14.511726,-30.0665 -1.862471,-7.72708 -2.010282,-9.10899 -1.997774,-18.67767 0.01241,-9.49351 0.264214,-11.73912 2.145448,-19.13323 C 30.941188,100.0293 41.543426,84.390917 56.52609,73.592348 66.660664,66.28798 77.341394,61.904088 90.99627,59.444105 c 4.421406,-0.796535 19.00335,-0.792353 23.38506,0.0067 14.77303,2.694047 25.90256,7.511479 36.89979,15.972124 3.08189,2.371032 10.0913,9.291876 12.63724,12.477581 9.25672,11.582785 15.00598,25.17723 16.88979,39.93681 0.49871,3.90737 0.49954,14.86839 10e-4,18.98138 -4.31978,35.66992 -32.34896,63.93045 -68.09862,68.6607 -2.65507,0.35131 -15.824726,0.75331 -16.096212,0.49133 z m 4.451852,-76.48769 1.57842,-0.65422 1.52077,0.65422 c 1.74879,0.75231 2.16576,0.80503 2.1716,0.27459 0.009,-0.78815 -3.44838,-8.74756 -3.75498,-8.64536 -0.17645,0.0588 -0.58775,0.78101 -0.914,1.60487 -0.32624,0.82386 -1.11845,2.75512 -1.76046,4.29168 -0.642008,1.53657 -1.167288,2.86906 -1.167288,2.9611 0,0.32139 0.759337,0.16244 2.325938,-0.48688 z m 0.22304,-66.033219 c 0.10139,-0.264215 0.18434,-0.810879 0.18434,-1.214808 0,-1.021353 0.42609,-0.923461 2.09097,0.480392 1.30446,1.099936 1.6009,1.214809 3.13494,1.214809 1.26477,0 1.74098,-0.121776 1.8786,-0.480393 0.33277,-0.867198 0.19821,-4.547187 -0.1801,-4.925504 -0.20045,-0.200443 -0.93749,-0.364442 -1.63787,-0.364442 -1.38052,0 -1.64212,0.294241 -1.64212,1.847051 0,0.487447 -0.0883,0.886267 -0.19628,0.886267 -0.10795,0 -0.85376,-0.614996 -1.65735,-1.366659 -1.39211,-1.302157 -1.54615,-1.366659 -3.2638,-1.366659 -2.109278,0 -2.171414,0.08256 -2.171414,2.885169 0,2.72037 0.104084,2.88517 1.822212,2.88517 1.045262,0 1.505302,-0.134932 1.637872,-0.480393 z"
         id="path357"
         sodipodi:nodetypes="csssssssscssscsccscscsssssssssssssssssss" /><path
         style="display:inline;fill:#82a9e1;fill-opacity:1"
         d="M 97.618029,215.74334 C 74.552723,214.43068 52.2059,202.08419 38.896573,183.30008 36.030916,179.25564 33.913482,175.68771 31.935451,171.57043 18.518574,143.64309 22.47209,111.17279 42.215369,87.141262 49.330552,78.480658 58.600377,71.3026 69.064007,66.351108 c 12.493687,-5.912135 26.805145,-8.5009 40.306233,-7.290897 26.20408,2.348479 49.41012,17.42709 62.05584,40.322073 5.75808,10.424976 8.92477,21.425936 9.58951,33.313566 0.7731,13.82562 -1.73765,26.51323 -7.69287,38.87458 -4.06388,8.43544 -8.38435,14.48776 -15.18474,21.27147 -6.89921,6.88229 -13.03197,11.24264 -21.58641,15.34778 -6.75909,3.24359 -14.52487,5.68463 -21.58312,6.78429 -2.51628,0.39203 -12.65572,1.19178 -13.19076,1.04041 -0.0835,-0.0236 -1.955364,-0.14559 -4.159661,-0.27104 z m 3.855961,-9.94839 c 0,-1.71073 0.58939,-2.32816 2.26556,-2.37336 0.77201,-0.0208 1.50057,-0.13469 1.61903,-0.25304 0.11846,-0.11835 0.25525,-8.9505 0.30397,-19.627 0.0748,-16.38372 0.15483,-19.41182 0.51328,-19.41182 0.35845,0 0.4394,3.05459 0.51883,19.57815 0.0822,17.09731 0.15308,19.63709 0.55949,20.0433 0.7128,0.71247 1.70508,-0.12473 1.96396,-1.65703 0.11729,-0.69421 0.37595,-1.21648 0.60248,-1.21648 0.38611,0 0.47658,0.37424 0.93602,3.8722 0.21993,1.67447 0.29499,1.7289 1.93228,1.40145 l 0.96496,-0.193 -0.18442,-3.67921 c -0.10143,-2.02356 -0.41608,-5.86586 -0.69922,-8.53844 -0.43019,-4.06058 -0.51207,-8.05383 -0.49822,-24.29616 l 0.0166,-19.43693 0.97045,-5.59938 0.97045,-5.59939 v -32.4646 c 0,-17.855533 -0.1025,-32.410805 -0.22778,-32.345051 -0.12528,0.06575 -1.21067,0.588256 -2.41199,1.161115 l -2.18421,1.041562 -0.13184,31.739934 c -0.0862,20.74768 -0.24432,32.31843 -0.45663,33.4103 -1.19737,6.15778 -1.8764,11.45646 -1.8764,14.64208 0,1.37436 -0.12723,2.36524 -0.30371,2.36524 -0.1737,0 -0.30758,-0.94247 -0.31277,-2.20184 -0.008,-2.02152 -0.6953,-10.47365 -1.09735,-13.50132 -0.15547,-1.17073 -0.27799,-1.31869 -1.46844,-1.77333 -1.20254,-0.45925 -1.37029,-0.45907 -2.26278,0.002 -0.53017,0.27417 -1.03425,0.68169 -1.12018,0.90561 -0.0859,0.22392 -0.006,2.16427 0.1775,4.31188 0.62012,7.25568 0.74496,12.19245 0.32121,12.70304 -0.31457,0.37903 -1.220327,0.46461 -4.917248,0.46461 h -4.531649 l 0.08923,2.20184 0.08923,2.20184 4.555531,0.15185 4.555536,0.15185 -0.0489,10.32587 c -0.0468,9.86826 -0.18126,12.30016 -1.175743,21.25915 -1.047001,9.43213 -1.104397,10.59654 -0.542665,11.00919 0.284227,0.2088 0.968986,0.37963 1.521688,0.37963 0.96152,0 1.00491,-0.0499 1.00491,-1.15676 z M 89.954187,189.91937 c 0.095,-8.58859 0.106795,-38.49581 0.02621,-66.46048 l -0.14651,-50.844855 -0.73551,-1.315969 c -0.41136,-0.736004 -0.958295,-1.31438 -1.241022,-1.312364 -0.780331,0.0056 -3.752237,0.843872 -4.051086,1.142721 -0.146502,0.146502 -0.26211,6.708273 -0.256907,14.581714 0.01099,16.633173 0.425572,15.013093 -3.817933,14.919563 -1.425417,-0.0314 -2.726483,0.0777 -2.891259,0.24247 -0.164776,0.16478 -0.258711,1.24271 -0.208746,2.3954 l 0.09085,2.09581 3.02001,0.0876 c 1.661005,0.0482 3.190605,0.22921 3.399112,0.40226 0.300398,0.24931 0.366592,9.72031 0.318841,45.61952 l -0.06026,45.30489 -1.364788,0.0951 c -0.750633,0.0523 -1.457954,0.18897 -1.571823,0.3037 -0.23504,0.23682 0.816681,4.89548 1.182919,5.2398 0.131408,0.12355 0.497608,0.27207 0.813777,0.33004 0.316168,0.058 0.726166,0.37874 0.911106,0.71281 0.184939,0.33407 0.375928,0.66985 0.424419,0.74618 0.136307,0.21457 5.339153,1.50932 5.682173,1.41404 0.194551,-0.054 0.36578,-5.69666 0.476427,-15.69999 z m -15.074334,9.51572 c -0.365161,-2.5171 -0.34699,-2.50555 -3.938602,-2.50555 -1.748002,0 -3.178186,0.12117 -3.178186,0.26925 0,0.2823 6.477168,3.67888 7.0155,3.67888 0.197405,0 0.234311,-0.52564 0.101288,-1.44258 z m -26.161088,-26.6034 c -0.100106,-4.05825 -0.09013,-7.74472 0.02217,-8.19215 l 0.204179,-0.81352 h 10.491899 c 6.463871,0 10.711333,-0.11743 11.063463,-0.30589 0.471248,-0.2522 0.555057,-0.59185 0.477521,-1.93521 -0.05172,-0.89613 -0.18931,-1.78347 -0.30575,-1.97187 -0.150604,-0.24369 -3.271424,-0.34256 -10.812671,-0.34256 -10.170035,0 -10.613742,-0.0239 -10.915349,-0.58744 -0.449387,-0.83968 -0.434935,-51.76769 0.01493,-52.60827 0.322433,-0.60247 0.547711,-0.61342 10.778366,-0.52364 6.407833,0.0562 10.556195,-0.0211 10.726087,-0.19989 0.388042,-0.4084 0.600919,-2.68998 0.360587,-3.86471 l -0.200982,-0.98239 H 59.920249 c -9.182797,0 -10.744019,-0.0647 -10.992036,-0.45555 -0.158991,-0.250556 -0.291167,-1.514716 -0.293725,-2.809246 -0.0026,-1.29453 -0.10715,-2.351457 -0.232427,-2.348727 -0.533384,0.01162 -6.75737,9.510313 -6.75737,10.312713 0,0.17154 0.336856,0.31189 0.74857,0.31189 0.420347,0 0.881813,0.24897 1.052455,0.56782 0.197414,0.36887 0.280963,9.68337 0.238462,26.58504 -0.0572,22.74792 -0.122668,26.0534 -0.520977,26.30516 -0.250554,0.15837 -1.719713,0.29003 -3.264797,0.29259 -1.545084,0.003 -2.809175,0.10715 -2.80909,0.23243 2.77e-4,0.41286 1.26192,3.56062 1.582434,3.94813 0.1953,0.23612 1.09954,0.37962 2.39204,0.37962 1.743674,0 2.128629,0.0945 2.39243,0.58744 0.176184,0.32921 0.314387,2.56781 0.314387,5.09244 0,4.3666 0.02472,4.54214 0.804805,5.71438 1.907365,2.86619 3.827564,5.29771 4.066873,5.14981 0.142172,-0.0879 0.176589,-3.48014 0.07648,-7.5384 z m 33.141605,-9.19001 c 0.374112,-0.14356 0.480392,-0.65001 0.480392,-2.28916 v -2.10482 l -2.809243,0.0873 -2.809244,0.0873 -0.09185,1.77192 c -0.122996,2.37285 0.141219,2.63176 2.685661,2.63176 1.135139,0 2.280065,-0.083 2.54428,-0.18434 z m 18.85437,-23.80812 c 1.77492,-0.76082 2.16378,-0.75801 3.94177,0.0285 2.29022,1.01308 2.31832,0.59967 0.29515,-4.34177 -1.72213,-4.20614 -2.18327,-5.00989 -2.61475,-4.55734 -0.35072,0.36783 -3.358388,7.76129 -3.515928,8.64286 -0.178385,0.99821 0.03619,1.02402 1.893758,0.22777 z m 4.40367,-35.39357 V 76.942679 l -2.50554,0.08821 c -2.16177,0.07611 -2.50207,0.161128 -2.48023,0.619686 0.0139,0.292314 0.0504,12.523913 0.081,27.181325 l 0.0557,26.64986 0.6334,-0.98905 c 1.15433,-1.80251 2.74155,-1.55879 3.61729,0.55545 0.20257,0.48903 0.42006,0.88915 0.48331,0.88915 0.0632,0 0.115,-12.37379 0.115,-27.49732 z m -4.23186,-30.520452 c 0.37388,-0.200095 0.58744,-0.635211 0.58744,-1.196884 0,-1.331244 0.3978,-1.33127 1.91007,-1.22e-4 1.53128,1.347887 3.53879,1.867348 4.73744,1.225852 0.61679,-0.330094 0.65821,-0.545198 0.57699,-2.996137 l -0.0875,-2.640511 h -1.67036 c -1.63143,0 -1.67268,0.02124 -1.76966,0.911106 -0.16833,1.544564 -0.5669,1.584453 -1.97949,0.198102 -1.30453,-1.280301 -1.33547,-1.291685 -3.263541,-1.200881 l -1.946522,0.09167 -0.087,2.784842 c -0.0769,2.46142 -0.02399,2.801221 0.455553,2.925865 0.982074,0.255265 1.93994,0.216406 2.53658,-0.102905 z"
         id="path356" /><path
         style="display:inline;fill:#3f8a84;fill-opacity:1"
         d="M 92.51478,215.15155 C 69.628426,212.03593 50.075046,199.88971 37.401868,180.91634 31.037192,171.38761 27.429596,162.18217 25.050745,149.40018 24.234356,145.01357 24.226125,129.87147 25.037704,125.40772 28.297627,107.47787 35.17437,94.017973 47.238597,81.953746 57.757852,71.434491 69.885908,64.58483 84.011124,61.185427 c 7.700608,-1.853244 8.963785,-1.985657 18.829526,-1.973819 9.69342,0.01163 10.78223,0.127451 18.52582,1.97063 13.91776,3.312791 27.65931,11.177959 37.55378,21.494418 14.49896,15.11734 22.12367,33.978574 22.12367,54.727294 0,27.13915 -13.66306,51.9295 -36.59609,66.40022 -8.01814,5.05943 -16.4481,8.40521 -26.57393,10.54698 -6.9649,1.47317 -17.885239,1.81785 -25.35912,0.8004 z m 22.77765,-2.00342 c 21.27562,-3.50936 39.97992,-15.76623 51.86225,-33.98515 7.00704,-10.74376 11.37981,-23.90877 12.23107,-36.82387 l 0.20518,-3.11295 h -2.43256 -2.43255 l -0.17318,1.74629 c -0.65951,6.65039 -0.96271,8.7787 -1.71479,12.03724 -1.14859,4.97646 -1.88118,7.42755 -3.18746,10.66448 -3.19267,7.91143 -6.56577,13.60134 -11.79269,19.89249 -6.78151,8.16226 -14.60044,14.11829 -24.95055,19.00595 -7.73142,3.65103 -15.21995,5.62929 -24.59986,6.4986 -1.8374,0.17029 -3.51156,0.30972 -3.72035,0.30986 -0.27252,1.9e-4 -0.37963,0.69604 -0.37963,2.46615 v 2.4659 l 3.2648,-0.20679 c 1.79563,-0.11373 5.31478,-0.54492 7.82032,-0.9582 z m -13.17353,-6.613 c 0.2924,-0.64176 0.44713,-0.69345 1.41931,-0.47419 0.60012,0.13535 1.18476,0.18822 1.2992,0.11749 0.2634,-0.16279 1.18417,-2.95478 1.21609,-3.68746 0.0132,-0.30269 0.0654,-0.41368 0.116,-0.24664 0.0506,0.16704 0.33479,1.15786 0.63151,2.20184 0.49814,1.75265 0.60519,1.89814 1.39672,1.89814 0.85693,0 0.95389,-0.15009 1.23661,-1.91418 0.17254,-1.07653 0.69788,-0.64275 0.84701,0.69937 l 0.15185,1.36666 1.50756,-0.0802 c 0.82915,-0.0441 1.62485,-0.19745 1.76821,-0.34081 0.228,-0.228 -0.27866,-12.05318 -0.53462,-12.47757 -0.40092,-0.66475 -0.61212,-9.51963 -0.59419,-24.91236 l 0.021,-18.07027 1.02075,-5.92219 1.02076,-5.92219 0.10188,-32.19242 c 0.0579,-18.286009 -0.0139,-32.368625 -0.1661,-32.600332 -0.21293,-0.324114 -0.80665,-0.147187 -2.88996,0.861195 l -2.62199,1.269113 -0.005,29.053454 c -0.005,29.58788 -0.13075,33.74891 -1.19568,39.53118 -0.32302,1.75388 -0.67913,3.9747 -0.79136,4.93515 -0.11223,0.96046 -0.32497,1.74629 -0.47276,1.74629 -0.14779,0 -0.26926,-0.17083 -0.26994,-0.37963 -0.006,-1.88774 -0.70315,-8.95257 -0.92396,-9.36515 -0.15547,-0.29051 -0.88154,-0.75691 -1.61348,-1.03644 -1.28644,-0.4913 -1.37363,-0.48637 -2.61666,0.14777 l -1.285875,0.65601 0.205415,3.39428 c 0.11297,1.86686 0.33113,4.55595 0.48479,5.97576 0.39729,3.67088 0.35921,7.39622 -0.0801,7.83551 -0.25038,0.25038 -1.760996,0.36444 -4.826736,0.36444 -3.788869,0 -4.490118,0.0725 -4.646641,0.48039 -0.350232,0.91269 -0.196845,3.99039 0.215948,4.33298 0.237392,0.19702 2.183978,0.36664 4.783307,0.41682 l 4.383012,0.0846 -0.10008,10.17401 c -0.0947,9.6226 -0.408007,14.82234 -1.400093,23.23321 -0.236429,2.00443 -0.515376,4.84197 -0.619882,6.30563 -0.184006,2.57709 -0.167904,2.67007 0.50947,2.94184 0.384715,0.15435 1.214905,0.28931 1.844875,0.29989 0.92057,0.0155 1.20981,-0.12213 1.47358,-0.70103 z M 90.298683,190.02032 c 0.03392,-8.64412 0.01921,-38.53978 -0.03268,-66.43482 L 90.171657,72.867266 89.409441,71.272831 C 88.840387,70.082458 88.483088,69.679309 87.999536,69.682 c -1.11259,0.0062 -3.917153,0.857935 -4.393529,1.334311 -0.392812,0.392812 -0.446211,2.379437 -0.391517,14.565773 0.03483,7.761009 -0.0467,14.17893 -0.181191,14.262048 -0.343347,0.212198 -9.216595,0.321328 -22.444341,0.276028 -10.135737,-0.0347 -11.293337,-0.0888 -11.464752,-0.535477 -0.104866,-0.273278 -0.190667,-1.590408 -0.190667,-2.926955 0,-1.807296 -0.09729,-2.398517 -0.379627,-2.306907 -0.879002,0.285213 -7.212923,9.972909 -7.212923,11.032129 0,0.2176 0.375831,0.43889 0.83518,0.49174 l 0.835181,0.0961 0.06864,26.2568 c 0.05349,20.46167 -0.01354,26.30902 -0.303702,26.49336 -0.204786,0.1301 -1.636498,0.23863 -3.181582,0.24119 -2.130158,0.004 -2.809244,0.10212 -2.809244,0.40784 0,0.41025 1.458914,4.17888 1.725026,4.45604 0.08019,0.0835 1.125685,0.22019 2.32333,0.30371 l 2.177536,0.15185 0.157096,4.76038 0.157096,4.76037 2.019282,2.98403 c 1.110605,1.64121 2.353366,3.29745 2.76169,3.68054 l 0.742407,0.69652 0.376377,-0.90865 c 0.241898,-0.584 0.304211,-1.48394 0.174401,-2.51874 -0.322437,-2.57033 -0.50165,-12.81036 -0.231333,-13.21812 0.188024,-0.28362 4.071933,-0.3819 16.481418,-0.41704 8.929484,-0.0253 16.462829,-0.16432 16.740767,-0.30896 0.740988,-0.38562 0.763102,0.13641 0.734742,17.34513 l -0.02527,15.33695 -8.193113,0.15185 -8.193112,0.15185 0.833781,0.6554 c 1.102205,0.86639 5.780486,3.26083 7.50434,3.84088 0.751662,0.25293 2.089214,0.74556 2.972338,1.09474 0.883123,0.34918 2.222141,0.63488 2.975596,0.63488 1.09729,0 1.52075,0.16275 2.127833,0.8178 0.816976,0.88153 3.915055,1.86641 5.970452,1.89801 l 1.138882,0.0175 z m -7.701442,-30.89828 c -0.09659,-0.0966 -7.52293,-0.16882 -16.502974,-0.16051 -11.784135,0.0109 -16.443301,-0.0811 -16.744041,-0.3307 -0.625894,-0.51944 -0.620997,-51.96055 0.005,-52.48008 0.467751,-0.3882 16.871426,-0.28458 19.273823,0.12175 0.833576,0.14098 1.56247,0.0954 1.974063,-0.12354 0.442007,-0.23508 2.563194,-0.31981 6.574721,-0.26261 l 5.92219,0.0844 0.05606,26.0697 c 0.03083,14.33833 -0.04278,26.33688 -0.163578,26.66343 -0.120801,0.32655 -0.298666,0.51471 -0.395257,0.41812 z m 37.511669,45.84376 c 6.3183,-1.64217 13.4203,-4.64617 18.87228,-7.98258 6.51204,-3.98513 13.48882,-10.03203 17.72438,-15.36204 l 1.8644,-2.34615 v -2.42968 c 0,-3.25727 0.21464,-3.60456 2.22771,-3.60456 1.42837,0 2.32782,-0.35855 2.32782,-0.92793 0,-0.10948 -0.9128,-0.28429 -2.02845,-0.38847 -1.11566,-0.10418 -2.1596,-0.32055 -2.31987,-0.48083 -0.17539,-0.17538 -0.35233,-7.04853 -0.44441,-17.26205 -0.14377,-15.94754 -0.12021,-17.02067 0.3909,-17.80072 1.44052,-2.19851 5.47471,-2.29005 7.26298,-0.16481 l 0.77428,0.92017 -0.19591,13.13329 c -0.13147,8.81364 -0.0929,13.31732 0.11723,13.69283 0.26349,0.47083 0.46284,0.17137 1.25729,-1.88872 3.59183,-9.31391 5.11457,-20.51624 4.13772,-30.43994 -0.57207,-5.81163 -1.17749,-9.02995 -2.61434,-13.89752 -4.60959,-15.61579 -14.85114,-29.348446 -28.64874,-38.41445 -3.11841,-2.049014 -10.84173,-5.998821 -11.7299,-5.998821 -0.57093,0 -0.59236,0.205901 -0.51241,4.921769 l 0.0834,4.921768 0.75926,0.184233 c 0.60616,0.147085 0.73231,0.333495 0.62562,0.924496 -0.0735,0.407144 -0.13174,2.824418 -0.12942,5.371718 0.003,3.437805 -0.091,4.631456 -0.36535,4.631456 -0.57502,0 -0.73814,0.758975 -0.73967,3.441487 -0.002,2.669564 -1.30049,21.805364 -1.81515,26.739874 -0.1721,1.65002 -0.50537,3.76834 -0.74061,4.70738 -0.50635,2.02127 -0.91142,4.58871 -1.53914,9.75546 -0.87276,7.18367 -1.11804,10.80404 -1.3207,19.49381 l -0.20319,8.71239 -0.83432,0.87084 c -0.66666,0.69584 -0.83433,1.156 -0.83433,2.28981 0,1.86559 -0.80209,2.43436 -3.556,2.52162 -1.08258,0.0343 -2.12617,0.2201 -2.3191,0.41289 -0.25383,0.25365 -0.37538,4.68366 -0.43977,16.0269 -0.0489,8.622 -0.0191,15.85857 0.0664,16.08127 0.22855,0.5956 1.51234,0.49845 4.83907,-0.36619 z m 7.3316,-16.65725 c -3.22716,-0.46612 -3.30112,-0.52483 -3.05795,-2.42712 0.24476,-1.91466 3.02822,-19.11813 3.66676,-22.66281 0.25577,-1.41981 0.94527,-5.58812 1.53223,-9.26291 0.58696,-3.6748 1.13638,-6.90799 1.22093,-7.18487 0.28587,-0.93613 1.02733,-0.94561 6.43242,-0.0823 1.18191,0.18878 1.22993,0.60507 0.5355,4.64213 -0.24835,1.44375 -0.93441,5.63165 -1.52458,9.30644 -0.59017,3.6748 -1.61538,9.96143 -2.27825,13.9703 -0.66287,4.00886 -1.40317,8.63109 -1.6451,10.27161 -0.61741,4.18662 -0.45073,4.06952 -4.88196,3.42949 z m -26.37056,-48.52319 1.58176,-0.6556 1.57755,0.6556 c 1.99827,0.83045 2.41295,0.82563 2.38643,-0.0277 -0.0355,-1.14155 -3.43927,-8.86879 -3.94995,-8.96714 -0.34141,-0.0658 -0.96558,1.13967 -2.33952,4.51813 -1.030635,2.53429 -1.800942,4.72582 -1.711792,4.87007 0.246862,0.39943 0.72927,0.32216 2.455522,-0.39334 z m 4.63372,-33.96642 c -0.007,-14.615664 -0.1098,-27.120595 -0.22828,-27.788739 l -0.21543,-1.214808 h -2.6738 -2.673807 l 0.03201,27.925727 c 0.01761,15.35915 0.0866,27.98031 0.153327,28.04703 0.0667,0.0667 0.43785,-0.53283 0.82473,-1.33234 1.26498,-2.61415 2.29258,-2.59033 3.47375,0.0805 0.57691,1.3045 0.83461,1.62425 1.04326,1.29449 0.16179,-0.25572 0.27174,-11.49517 0.26424,-27.01187 z M 101.4633,73.646487 c 0.17292,-0.323091 0.31439,-0.869754 0.31439,-1.214808 0,-0.854576 0.33931,-0.788589 1.34552,0.26167 1.14653,1.196724 2.22339,1.595917 4.00079,1.483105 l 1.48699,-0.09438 0.088,-2.859789 c 0.0981,-3.187003 0.008,-3.353874 -1.81259,-3.361452 -1.2904,-0.0054 -2.07168,0.630989 -2.07168,1.687403 0,0.405659 -0.0872,0.737562 -0.19381,0.737562 -0.1066,0 -0.78687,-0.546663 -1.51173,-1.214808 -1.19254,-1.099252 -1.47022,-1.214366 -2.91913,-1.210157 -0.88067,0.0026 -1.801297,0.131197 -2.045837,0.285866 -0.560742,0.354663 -0.806559,4.063436 -0.348104,5.252045 0.291778,0.756475 0.464938,0.835181 1.837477,0.835181 1.187344,0 1.583394,-0.127151 1.829724,-0.587439 z"
         id="path353" /><path
         style="display:inline;fill:#303351;fill-opacity:1"
         d="M 92.51478,215.15155 C 69.628426,212.03593 50.075046,199.88971 37.401868,180.91634 31.037192,171.38761 27.429596,162.18217 25.050745,149.40018 24.234356,145.01357 24.226125,129.87147 25.037704,125.40772 28.297627,107.47787 35.17437,94.017973 47.238597,81.953746 57.757852,71.434491 69.885908,64.58483 84.011124,61.185427 c 7.700608,-1.853244 8.963785,-1.985657 18.829526,-1.973819 9.69342,0.01163 10.78223,0.127451 18.52582,1.97063 13.91776,3.312791 27.65931,11.177959 37.55378,21.494418 14.49896,15.11734 22.12367,33.978574 22.12367,54.727294 0,27.13915 -13.66306,51.9295 -36.59609,66.40022 -8.01814,5.05943 -16.4481,8.40521 -26.57393,10.54698 -6.9649,1.47317 -17.885239,1.81785 -25.35912,0.8004 z m 22.77765,-2.00342 c 21.27562,-3.50936 39.97992,-15.76623 51.86225,-33.98515 7.00704,-10.74376 11.37981,-23.90877 12.23107,-36.82387 l 0.20518,-3.11295 h -2.43256 -2.43255 l -0.17318,1.74629 c -0.65951,6.65039 -0.96271,8.7787 -1.71479,12.03724 -1.14859,4.97646 -1.88118,7.42755 -3.18746,10.66448 -3.19267,7.91143 -6.56577,13.60134 -11.79269,19.89249 -6.78151,8.16226 -14.60044,14.11829 -24.95055,19.00595 -7.73142,3.65103 -15.21995,5.62929 -24.59986,6.4986 -1.8374,0.17029 -3.51156,0.30972 -3.72035,0.30986 -0.27252,1.9e-4 -0.37963,0.69604 -0.37963,2.46615 v 2.4659 l 3.2648,-0.20679 c 1.79563,-0.11373 5.31478,-0.54492 7.82032,-0.9582 z m -13.17353,-6.613 c 0.2924,-0.64176 0.44713,-0.69345 1.41931,-0.47419 0.60012,0.13535 1.18476,0.18822 1.2992,0.11749 0.2634,-0.16279 1.18417,-2.95478 1.21609,-3.68746 0.0132,-0.30269 0.0654,-0.41368 0.116,-0.24664 0.0506,0.16704 0.33479,1.15786 0.63151,2.20184 0.49814,1.75265 0.60519,1.89814 1.39672,1.89814 0.85693,0 0.95389,-0.15009 1.23661,-1.91418 0.17254,-1.07653 0.69788,-0.64275 0.84701,0.69937 l 0.15185,1.36666 1.50756,-0.0802 c 0.82915,-0.0441 1.62485,-0.19745 1.76821,-0.34081 0.228,-0.228 -0.27866,-12.05318 -0.53462,-12.47757 -0.40092,-0.66475 -0.61212,-9.51963 -0.59419,-24.91236 l 0.021,-18.07027 1.02075,-5.92219 1.02076,-5.92219 0.10188,-32.19242 c 0.0579,-18.286009 -0.0139,-32.368625 -0.1661,-32.600332 -0.21293,-0.324114 -0.80665,-0.147187 -2.88996,0.861195 l -2.62199,1.269113 -0.005,29.053454 c -0.005,29.58788 -0.13075,33.74891 -1.19568,39.53118 -0.32302,1.75388 -0.67913,3.9747 -0.79136,4.93515 -0.11223,0.96046 -0.32497,1.74629 -0.47276,1.74629 -0.14779,0 -0.26926,-0.17083 -0.26994,-0.37963 -0.006,-1.88774 -0.70315,-8.95257 -0.92396,-9.36515 -0.15547,-0.29051 -0.88154,-0.75691 -1.61348,-1.03644 -1.28644,-0.4913 -1.37363,-0.48637 -2.61666,0.14777 l -1.285875,0.65601 0.205415,3.39428 c 0.11297,1.86686 0.33113,4.55595 0.48479,5.97576 0.39729,3.67088 0.35921,7.39622 -0.0801,7.83551 -0.25038,0.25038 -1.760996,0.36444 -4.826736,0.36444 -3.788869,0 -4.490118,0.0725 -4.646641,0.48039 -0.350232,0.91269 -0.196845,3.99039 0.215948,4.33298 0.237392,0.19702 2.183978,0.36664 4.783307,0.41682 l 4.383012,0.0846 -0.10008,10.17401 c -0.0947,9.6226 -0.408007,14.82234 -1.400093,23.23321 -0.236429,2.00443 -0.515376,4.84197 -0.619882,6.30563 -0.184006,2.57709 -0.167904,2.67007 0.50947,2.94184 0.384715,0.15435 1.214905,0.28931 1.844875,0.29989 0.92057,0.0155 1.20981,-0.12213 1.47358,-0.70103 z M 90.298683,190.02032 c 0.03392,-8.64412 0.01921,-38.53978 -0.03268,-66.43482 L 90.171657,72.867266 89.409441,71.272831 C 88.840387,70.082458 88.483088,69.679309 87.999536,69.682 c -1.11259,0.0062 -3.917153,0.857935 -4.393529,1.334311 -0.392812,0.392812 -0.446211,2.379437 -0.391517,14.565773 0.03483,7.761009 -0.0467,14.17893 -0.181191,14.262048 -0.343347,0.212198 -9.216595,0.321328 -22.444341,0.276028 -10.135737,-0.0347 -11.293337,-0.0888 -11.464752,-0.535477 -0.104866,-0.273278 -0.190667,-1.590408 -0.190667,-2.926955 0,-1.807296 -0.09729,-2.398517 -0.379627,-2.306907 -0.879002,0.285213 -7.212923,9.972909 -7.212923,11.032129 0,0.2176 0.375831,0.43889 0.83518,0.49174 l 0.835181,0.0961 0.06864,26.2568 c 0.05349,20.46167 -0.01354,26.30902 -0.303702,26.49336 -0.204786,0.1301 -1.636498,0.23863 -3.181582,0.24119 -2.130158,0.004 -2.809244,0.10212 -2.809244,0.40784 0,0.41025 1.458914,4.17888 1.725026,4.45604 0.08019,0.0835 1.125685,0.22019 2.32333,0.30371 l 2.177536,0.15185 0.157096,4.76038 0.157096,4.76037 2.019282,2.98403 c 1.110605,1.64121 2.353366,3.29745 2.76169,3.68054 l 0.742407,0.69652 0.376377,-0.90865 c 0.241898,-0.584 0.304211,-1.48394 0.174401,-2.51874 -0.322437,-2.57033 -0.50165,-12.81036 -0.231333,-13.21812 0.188024,-0.28362 4.071933,-0.3819 16.481418,-0.41704 8.929484,-0.0253 16.462829,-0.16432 16.740767,-0.30896 0.740988,-0.38562 0.763102,0.13641 0.734742,17.34513 l -0.02527,15.33695 -8.193113,0.15185 -8.193112,0.15185 0.833781,0.6554 c 1.102205,0.86639 5.780486,3.26083 7.50434,3.84088 0.751662,0.25293 2.089214,0.74556 2.972338,1.09474 0.883123,0.34918 2.222141,0.63488 2.975596,0.63488 1.09729,0 1.52075,0.16275 2.127833,0.8178 0.816976,0.88153 3.915055,1.86641 5.970452,1.89801 l 1.138882,0.0175 z m -7.701442,-30.89828 c -0.09659,-0.0966 -7.52293,-0.16882 -16.502974,-0.16051 -11.784135,0.0109 -16.443301,-0.0811 -16.744041,-0.3307 -0.625894,-0.51944 -0.620997,-51.96055 0.005,-52.48008 0.467751,-0.3882 16.871426,-0.28458 19.273823,0.12175 0.833576,0.14098 1.56247,0.0954 1.974063,-0.12354 0.442007,-0.23508 2.563194,-0.31981 6.574721,-0.26261 l 5.92219,0.0844 0.05606,26.0697 c 0.03083,14.33833 -0.04278,26.33688 -0.163578,26.66343 -0.120801,0.32655 -0.298666,0.51471 -0.395257,0.41812 z m 37.511669,45.84376 c 6.3183,-1.64217 13.4203,-4.64617 18.87228,-7.98258 6.51204,-3.98513 13.48882,-10.03203 17.72438,-15.36204 l 1.8644,-2.34615 v -2.42968 c 0,-3.25727 0.21464,-3.60456 2.22771,-3.60456 1.42837,0 2.32782,-0.35855 2.32782,-0.92793 0,-0.10948 -0.9128,-0.28429 -2.02845,-0.38847 -1.11566,-0.10418 -2.1596,-0.32055 -2.31987,-0.48083 -0.17539,-0.17538 -0.35233,-7.04853 -0.44441,-17.26205 -0.14377,-15.94754 -0.12021,-17.02067 0.3909,-17.80072 1.44052,-2.19851 5.47471,-2.29005 7.26298,-0.16481 l 0.77428,0.92017 -0.19591,13.13329 c -0.13147,8.81364 -0.0929,13.31732 0.11723,13.69283 0.26349,0.47083 0.46284,0.17137 1.25729,-1.88872 3.59183,-9.31391 5.11457,-20.51624 4.13772,-30.43994 -0.57207,-5.81163 -1.17749,-9.02995 -2.61434,-13.89752 -4.60959,-15.61579 -14.85114,-29.348446 -28.64874,-38.41445 -3.11841,-2.049014 -10.84173,-5.998821 -11.7299,-5.998821 -0.57093,0 -0.59236,0.205901 -0.51241,4.921769 l 0.0834,4.921768 0.75926,0.184233 c 0.60616,0.147085 0.73231,0.333495 0.62562,0.924496 -0.0735,0.407144 -0.13174,2.824418 -0.12942,5.371718 0.003,3.437805 -0.091,4.631456 -0.36535,4.631456 -0.57502,0 -0.73814,0.758975 -0.73967,3.441487 -0.002,2.669564 -1.30049,21.805364 -1.81515,26.739874 -0.1721,1.65002 -0.50537,3.76834 -0.74061,4.70738 -0.50635,2.02127 -0.91142,4.58871 -1.53914,9.75546 -0.87276,7.18367 -1.11804,10.80404 -1.3207,19.49381 l -0.20319,8.71239 -0.83432,0.87084 c -0.66666,0.69584 -0.83433,1.156 -0.83433,2.28981 0,1.86559 -0.80209,2.43436 -3.556,2.52162 -1.08258,0.0343 -2.12617,0.2201 -2.3191,0.41289 -0.25383,0.25365 -0.37538,4.68366 -0.43977,16.0269 -0.0489,8.622 -0.0191,15.85857 0.0664,16.08127 0.22855,0.5956 1.51234,0.49845 4.83907,-0.36619 z m 7.3316,-16.65725 c -3.22716,-0.46612 -3.30112,-0.52483 -3.05795,-2.42712 0.24476,-1.91466 3.02822,-19.11813 3.66676,-22.66281 0.25577,-1.41981 0.94527,-5.58812 1.53223,-9.26291 0.58696,-3.6748 1.13638,-6.90799 1.22093,-7.18487 0.28587,-0.93613 1.02733,-0.94561 6.43242,-0.0823 1.18191,0.18878 1.22993,0.60507 0.5355,4.64213 -0.24835,1.44375 -0.93441,5.63165 -1.52458,9.30644 -0.59017,3.6748 -1.61538,9.96143 -2.27825,13.9703 -0.66287,4.00886 -1.40317,8.63109 -1.6451,10.27161 -0.61741,4.18662 -0.45073,4.06952 -4.88196,3.42949 z m -26.37056,-48.52319 1.58176,-0.6556 1.57755,0.6556 c 1.99827,0.83045 2.41295,0.82563 2.38643,-0.0277 -0.0355,-1.14155 -3.43927,-8.86879 -3.94995,-8.96714 -0.34141,-0.0658 -0.96558,1.13967 -2.33952,4.51813 -1.030635,2.53429 -1.800942,4.72582 -1.711792,4.87007 0.246862,0.39943 0.72927,0.32216 2.455522,-0.39334 z m 78.32644,-7.46842 C 178.30046,115.43279 171.60602,99.414769 160.22016,86.433298 148.56018,73.139306 132.44989,64.25359 114.98873,61.485666 c -3.89524,-0.61747 -9.87505,-1.09765 -10.53378,-0.845867 -0.30356,0.116028 -0.36303,0.763783 -0.24764,2.697508 l 0.15185,2.544813 3.03702,0.188867 c 9.00384,0.559935 18.71357,3.170786 27.04644,7.272528 14.57587,7.174767 26.20891,18.945395 33.0769,33.468105 3.84409,8.12851 6.17321,16.7066 6.69843,24.67014 0.2913,4.41679 0.0653,4.09998 2.92508,4.09998 h 2.46527 z m -73.69272,-26.498 c -0.007,-14.615664 -0.1098,-27.120595 -0.22828,-27.788739 l -0.21543,-1.214808 h -2.6738 -2.673807 l 0.03201,27.925727 c 0.01761,15.35915 0.0866,27.98031 0.153327,28.04703 0.0667,0.0667 0.43785,-0.53283 0.82473,-1.33234 1.26498,-2.61415 2.29258,-2.59033 3.47375,0.0805 0.57691,1.3045 0.83461,1.62425 1.04326,1.29449 0.16179,-0.25572 0.27174,-11.49517 0.26424,-27.01187 z M 101.4633,73.646487 c 0.17292,-0.323091 0.31439,-0.869754 0.31439,-1.214808 0,-0.854576 0.33931,-0.788589 1.34552,0.26167 1.14653,1.196724 2.22339,1.595917 4.00079,1.483105 l 1.48699,-0.09438 0.088,-2.859789 c 0.0981,-3.187003 0.008,-3.353874 -1.81259,-3.361452 -1.2904,-0.0054 -2.07168,0.630989 -2.07168,1.687403 0,0.405659 -0.0872,0.737562 -0.19381,0.737562 -0.1066,0 -0.78687,-0.546663 -1.51173,-1.214808 -1.19254,-1.099252 -1.47022,-1.214366 -2.91913,-1.210157 -0.88067,0.0026 -1.801297,0.131197 -2.045837,0.285866 -0.560742,0.354663 -0.806559,4.063436 -0.348104,5.252045 0.291778,0.756475 0.464938,0.835181 1.837477,0.835181 1.187344,0 1.583394,-0.127151 1.829724,-0.587439 z"
         id="path352" /><path
         style="display:inline;fill:#4b4f7e;fill-opacity:1"
         d="M 93.729588,215.2755 C 60.718824,211.32483 34.129389,187.80556 26.4653,155.77792 c -1.842018,-7.69765 -1.980709,-9.00305 -1.968261,-18.52582 0.01258,-9.62778 0.263619,-11.78274 2.281923,-19.58878 7.206754,-27.87303 29.074907,-49.512818 56.913611,-56.319276 8.158376,-1.994693 9.48118,-2.143708 18.996227,-2.13995 9.34299,0.0037 10.76526,0.156603 18.37397,1.975451 25.58781,6.116718 46.283,24.610587 55.28359,49.403155 3.24855,8.94831 4.54571,16.60197 4.54571,26.82125 0,8.67408 -0.63681,13.52247 -2.79228,21.25914 -5.94282,21.33068 -20.65828,39.04014 -40.63711,48.90511 -6.70563,3.31105 -12.66186,5.34753 -19.89248,6.8014 -6.72541,1.35229 -16.88503,1.73833 -23.840612,0.9059 z m 21.825162,-1.94968 c 10.9636,-1.88292 20.4296,-5.65024 29.72301,-11.82933 17.04938,-11.33596 28.95461,-28.99392 32.87166,-48.75559 0.99744,-5.0321 1.80545,-12.81986 1.39844,-13.47841 -0.15471,-0.25034 -0.9926,-0.33883 -2.63029,-0.27777 l -2.40324,0.0896 -0.0817,1.36666 c -0.47245,7.90528 -2.32202,16.54953 -4.93861,23.08135 -6.91989,17.27414 -18.56429,29.93184 -35.17975,38.24107 -4.12375,2.06225 -9.56768,4.06318 -14.04117,5.16085 -3.72628,0.91432 -11.18189,2.05288 -14.5473,2.22153 l -1.67036,0.0837 -0.0896,2.40324 c -0.0498,1.33589 0.0418,2.48443 0.20617,2.58603 0.51376,0.31753 7.5473,-0.23423 11.38272,-0.89293 z m -12.05492,-6.47489 c 1.60287,-0.17366 1.92229,-0.37734 1.92229,-1.22575 0,-0.37581 0.19479,-0.94858 0.43286,-1.27281 0.42058,-0.57279 0.44109,-0.56797 0.72261,0.16973 0.15935,0.41759 0.34152,1.03258 0.4048,1.36665 0.14509,0.76591 1.80581,1.00502 2.35812,0.33954 0.32803,-0.39526 0.4412,-0.38362 0.91936,0.0945 0.44476,0.44476 0.81066,0.505 1.98491,0.32679 0.79179,-0.12016 1.56619,-0.40885 1.72089,-0.64152 0.15469,-0.23268 0.20254,-1.31138 0.10634,-2.39711 -1.07155,-12.09327 -1.16614,-14.53412 -1.27433,-32.88653 -0.10611,-17.9972 -0.0776,-19.29348 0.50697,-23.08136 0.34066,-2.20729 0.77493,-4.76492 0.96504,-5.68362 0.37785,-1.82594 0.77082,-68.636661 0.40371,-68.636661 -0.38051,0 -5.45608,2.575796 -5.67813,2.881593 -0.12272,0.169003 -0.22522,14.145602 -0.22778,31.059108 -0.004,25.837 -0.0776,31.22476 -0.46132,33.71093 -0.89979,5.83043 -1.55352,9.01052 -1.77772,8.64777 -0.12521,-0.2026 -0.35968,-2.04377 -0.52105,-4.09148 -0.16136,-2.04771 -0.34569,-3.87027 -0.40962,-4.05013 -0.18822,-0.5296 -2.86585,-1.42002 -3.66615,-1.21915 -0.40288,0.10111 -1.10646,0.5055 -1.56351,0.89864 l -0.831005,0.7148 0.517185,4.97745 c 0.58479,5.62816 0.74138,11.09646 0.32917,11.49522 -0.15188,0.14693 -2.42737,0.31219 -5.056651,0.36725 l -4.780513,0.10012 -0.07872,-43.13315 -0.07872,-43.133153 -0.683329,-0.868674 c -0.375832,-0.47777 -0.68333,-1.115509 -0.68333,-1.417197 0,-0.830584 -0.297815,-0.878799 -2.53348,-0.410164 -3.189794,0.668636 -3.197402,0.676464 -3.300079,3.395112 -0.08391,2.221642 -0.133053,2.367975 -0.921962,2.745118 -1.366156,0.653099 -1.405456,2.796624 -0.05127,2.796624 0.224224,0 0.549155,0.264347 0.722068,0.587438 0.338025,0.631606 0.458489,19.335398 0.130044,20.191312 -0.266784,0.695224 -9.685169,0.705144 -11.498031,0.0121 l -1.224962,-0.468291 0.01756,-2.492804 c 0.0097,-1.371043 0.175246,-3.039468 0.367972,-3.707613 0.192726,-0.668144 0.371411,-3.264797 0.397079,-5.770338 0.03192,-3.116201 0.17378,-4.795419 0.448983,-5.314786 0.221273,-0.41759 0.486392,-1.278946 0.589152,-1.914124 0.126548,-0.782213 0.388392,-1.22943 0.811461,-1.385933 0.343543,-0.127085 0.807734,-0.666554 1.031535,-1.198821 l 0.406912,-0.967758 h -1.796775 c -1.371654,0 -2.140644,0.189508 -3.250136,0.800957 -2.206144,1.21582 -6.457821,3.999214 -7.907029,5.176399 l -1.290734,1.048456 v 2.528642 c 0,2.025628 0.09556,2.565312 0.480393,2.712985 0.264215,0.101389 2.306138,0.184344 4.537606,0.184344 2.541157,0 4.131878,0.120807 4.257024,0.323298 0.109895,0.177814 0.185037,2.535301 0.166982,5.23886 -0.02838,4.250051 -0.102758,4.967525 -0.54935,5.299369 -0.396177,0.294384 -2.748284,0.365142 -10.095299,0.303702 l -9.578777,-0.0801 -0.151851,-2.885169 c -0.104865,-1.992434 -0.267024,-2.88517 -0.524069,-2.88517 -0.535036,0 -4.054023,4.878917 -6.007729,8.329439 -0.917487,1.62042 -1.668157,3.0361 -1.668157,3.14597 0,0.10986 0.444164,0.31481 0.987031,0.45544 l 0.987032,0.2557 0.07959,11.45863 c 0.05247,7.5539 -0.02879,11.66115 -0.238462,12.05292 -0.289473,0.54089 -0.656599,0.59429 -4.085718,0.59429 -2.184178,0 -3.846553,-0.12764 -3.955365,-0.3037 -0.455463,-0.73696 -0.785843,-0.19941 -0.69997,1.13888 l 0.09257,1.44259 4.074413,0.0354 c 3.58097,0.0311 4.123891,0.10306 4.482959,0.59411 0.329553,0.45069 0.393217,2.93949 0.329267,12.87194 l -0.07928,12.31323 -2.974911,0.0871 c -2.306228,0.0675 -3.014186,0.18944 -3.149643,0.54243 -0.178307,0.46466 0.939952,3.92155 1.491061,4.60934 0.184219,0.2299 1.044115,0.37963 2.180323,0.37963 1.054281,0 2.035783,0.15964 2.240579,0.36444 0.248493,0.24849 0.364442,1.7074 0.364442,4.58556 0,4.88933 -0.01984,4.82963 2.997502,9.02029 2.131491,2.96034 2.875319,3.53558 3.16069,2.44432 0.159823,-0.61116 0.339098,-0.62211 10.188446,-0.62211 5.514168,0 10.20777,-0.0698 10.430227,-0.15518 0.319736,-0.12266 0.394611,-1.37918 0.35742,-5.99811 -0.04574,-5.68043 -0.06474,-5.84564 -0.683329,-5.93999 -0.618253,-0.0943 -0.636284,0.0148 -0.636284,3.85051 0,3.1283 -0.09587,4.04343 -0.461951,4.40951 -0.662773,0.66277 -18.39371,0.73737 -18.939542,0.0797 -0.247269,-0.29794 -0.328052,-2.1395 -0.270049,-6.15609 l 0.08276,-5.73098 16.730808,-0.0437 16.730808,-0.0437 0.20058,11.40631 c 0.287308,16.33826 0.260935,20.34482 -0.135532,20.58985 -0.184861,0.11425 -3.863556,0.18544 -8.174876,0.1582 -4.406426,-0.0279 -7.913101,0.0707 -8.008533,0.22516 -0.679222,1.099 10.546143,6.31372 14.310222,6.64777 1.479196,0.13128 1.929289,0.28945 2.068083,0.72675 0.213173,0.67165 3.541568,1.74322 5.782092,1.86155 l 1.496121,0.079 0.06701,-20.62498 c 0.03685,-11.34375 0.109827,-20.75344 0.16216,-20.91044 0.151092,-0.45328 9.104276,-0.27753 9.572831,0.18791 0.31063,0.30856 0.32672,2.33389 0.0813,10.23652 -0.366288,11.79595 -0.591928,14.96224 -1.839784,25.81678 -0.41821,3.63782 -0.385486,6.26895 0.08049,6.47187 0.364586,0.15877 2.307704,0.0748 4.986934,-0.21548 z M 49.43971,158.46062 c -0.111358,-0.11136 -0.202468,-11.93296 -0.202468,-26.27022 v -26.06776 h 9.100375 c 8.686449,0 9.114675,0.0267 9.414763,0.58744 0.181413,0.33897 0.314387,2.77509 0.314387,5.75965 0,5.95255 0.03259,5.88715 -2.955646,5.93004 -2.379139,0.0341 -2.385175,0.66132 -0.02194,2.28012 1.843632,1.26288 1.844547,1.26755 1.784222,9.10781 l -0.05502,7.15096 -1.881347,2.01812 c -1.990846,2.13558 -2.140959,2.23235 -3.931336,2.53439 l -1.138883,0.19213 0.0117,3.09918 0.0117,3.09919 0.975333,0.61142 c 0.776193,0.48658 0.994836,0.84746 1.070855,1.76748 0.160668,1.94449 -0.0493,2.02478 -5.295644,2.02478 H 51.97056 v 2.12591 2.12591 l 8.883284,-0.005 c 4.885806,-0.003 9.03523,-0.10505 9.220941,-0.22777 0.185712,-0.12272 0.322378,-0.70146 0.303702,-1.28609 l -0.03396,-1.06295 -2.733318,0.005 c -1.503325,0.003 -2.942238,0.10837 -3.197585,0.23448 -0.267917,0.13232 -0.717469,0.0444 -1.062958,-0.20783 -0.537398,-0.39237 -0.608773,-0.8727 -0.697182,-4.69188 -0.06302,-2.72245 0.02286,-4.4815 0.238461,-4.88436 0.310409,-0.58001 0.607426,-0.62961 3.770058,-0.62961 h 3.433102 l 0.196524,-9.03514 c 0.108088,-4.96932 0.118846,-13.20344 0.02391,-18.29804 -0.143171,-7.68285 -0.0998,-9.35974 0.254248,-9.83054 0.392921,-0.52249 0.892603,-0.56455 6.283845,-0.52896 3.22134,0.0213 5.978763,0.11393 6.127608,0.20592 0.148844,0.092 0.270627,2.12411 0.270627,4.51583 0,5.1131 0.0089,5.09744 -2.992867,5.2806 -1.110019,0.0677 -2.189049,0.26086 -2.397844,0.42918 -0.244876,0.19741 -0.379628,1.14372 -0.379628,2.66598 0,2.75261 -0.02682,2.72862 3.051174,2.72862 1.755881,0 2.140699,0.094 2.404777,0.58744 0.193451,0.36147 0.314388,3.6066 0.314388,8.43608 0,9.34957 0.0449,9.19861 -2.73625,9.19861 -2.915851,0 -3.71508,0.61566 -3.351127,2.58146 0.168546,0.91036 0.170763,0.91123 2.69781,1.06296 3.049627,0.1831 3.539598,0.58869 3.261487,2.69978 -0.09659,0.73322 -0.175622,3.77403 -0.175622,6.75737 v 5.42425 H 66.295172 c -9.159147,0 -16.744105,-0.0911 -16.855462,-0.20247 z m 26.464025,-3.51788 0.09257,-1.44259 h -1.778112 c -0.97804,0 -1.942095,0.16399 -2.142554,0.36445 -0.394773,0.39477 -0.499168,2.13291 -0.14913,2.48295 0.118422,0.11842 1.040917,0.17537 2.049989,0.12654 l 1.834676,-0.0888 z m 4.492866,1.36201 c 0.417422,-0.27919 0.338264,-1.49495 -0.127672,-1.96089 -0.5676,-0.5676 -1.623819,-0.58778 -2.226303,-0.0425 -0.715493,0.64751 -0.732961,1.8427 -0.02962,2.02651 0.8686,0.22698 2.026469,0.21577 2.383592,-0.0231 z m -4.889134,-14.34527 v -1.97407 l -1.456647,-0.0931 c -1.177901,-0.0753 -1.502677,-0.2206 -1.697193,-0.75925 -0.188301,-0.52144 -0.234148,-11.61818 -0.06643,-16.07899 0.02966,-0.78879 0.111532,-0.83544 1.473985,-0.83983 2.181236,-0.007 2.238423,-0.097 2.13798,-3.36146 l -0.08799,-2.85979 -1.432247,-0.0921 c -2.718831,-0.17491 -2.624731,-0.43529 -2.806509,7.76569 -0.08787,3.96432 -0.234908,9.91469 -0.326749,13.22305 -0.166358,5.99263 -0.164374,6.0174 0.528899,6.60365 0.521052,0.44062 1.07739,0.56986 2.214394,0.5144 l 1.51851,-0.0741 z m 43.341703,63.49149 c 11.54666,-2.7046 23.16474,-9.00564 31.86219,-17.2804 3.71232,-3.53191 7.77024,-8.21601 8.00498,-9.24026 0.0855,-0.37314 0.19007,-1.70343 0.23234,-2.95621 l 0.0768,-2.27776 1.67037,-0.15505 c 1.92791,-0.17895 2.42961,-0.42426 2.42961,-1.18795 0,-0.45669 -0.33501,-0.5748 -2.01235,-0.70944 -1.2078,-0.0969 -2.11661,-0.32606 -2.27311,-0.57305 -0.38475,-0.6072 -0.34375,-33.87286 0.0426,-34.59483 1.05707,-1.97517 5.36451,-1.97104 7.12799,0.007 0.59188,0.66384 0.60492,1.03934 0.5103,14.69554 -0.0841,12.14209 -0.0393,13.95343 0.33597,13.55874 0.84973,-0.89383 3.03853,-7.32143 3.98167,-11.69253 1.31897,-6.1129 1.51532,-8.12669 1.51016,-15.4888 -0.005,-6.53974 -0.0874,-7.74316 -0.80531,-11.70924 -2.62777,-14.51598 -9.015,-26.938673 -19.04753,-37.046026 -3.99779,-4.027603 -6.76735,-6.330792 -11.08512,-9.218482 -3.79872,-2.540546 -12.03429,-6.729859 -12.7158,-6.468339 -0.42941,0.164782 -0.49524,0.838476 -0.49524,5.068339 0,4.380963 0.0542,4.895039 0.53148,5.042528 1.01069,0.312314 1.44198,0.67291 1.29073,1.079176 -0.0835,0.224339 -0.17231,2.449689 -0.19732,4.945223 -0.0356,3.554692 -0.14003,4.607046 -0.48212,4.859232 -0.45043,0.332047 -0.51931,1.104405 -1.59973,17.936619 -0.64908,10.11217 -1.16044,15.25739 -1.6903,17.00731 -1.15784,3.82395 -2.66857,19.13842 -2.91707,29.57077 -0.19359,8.12731 -0.21371,8.33033 -0.90755,9.1549 -0.51525,0.61234 -0.70957,1.22029 -0.70957,2.21998 0,1.99333 -0.89992,2.63559 -3.69289,2.63559 -1.99003,0 -2.1107,0.0409 -2.46459,0.83518 -0.28205,0.63305 -0.34986,4.61556 -0.28018,16.4548 0.0506,8.59079 0.16112,15.73159 0.2457,15.86843 0.22431,0.36295 0.72504,0.31451 3.52281,-0.34082 z m 8.06977,-17.4407 c -1.12204,-0.189 -2.17584,-0.48177 -2.34176,-0.65059 -0.19994,-0.20345 -0.14911,-1.1764 0.15073,-2.88517 0.24883,-1.41802 0.64644,-3.80821 0.88358,-5.31153 0.23715,-1.50333 0.98881,-6.08164 1.67035,-10.17402 1.30562,-7.83965 1.66151,-10.02408 2.86371,-17.57742 0.40882,-2.56854 0.87455,-4.80132 1.03496,-4.96174 0.18642,-0.18641 1.31772,-0.16895 3.13507,0.0484 3.9704,0.47485 4.00891,0.49158 3.77823,1.64182 -0.10551,0.52605 -0.46499,2.73311 -0.79886,4.90458 -0.33387,2.17147 -1.55156,9.6881 -2.70598,16.70361 -1.15443,7.01552 -2.26374,13.84882 -2.46515,15.1851 -0.2014,1.33629 -0.48819,2.66879 -0.6373,2.9611 -0.31436,0.61628 -1.42886,0.64455 -4.56758,0.11586 z m -51.246506,-9.83433 c 0.0072,-0.96045 0.04138,-3.69379 0.07593,-6.07408 l 0.06281,-4.3278 -2.092433,4e-5 c -1.517346,4e-5 -2.185106,0.1264 -2.429617,0.45976 -0.230659,0.31448 -0.289209,2.0975 -0.185332,5.64385 0.150745,5.14637 0.157384,5.1872 0.911107,5.60357 0.41759,0.23068 1.408418,0.42427 2.201839,0.43019 l 1.442585,0.0108 z m 6.430253,0.83518 c 0.181375,-0.47973 0.175179,-2.32454 -0.01683,-5.01108 -0.167134,-2.3385 -0.280653,-4.66182 -0.252264,-5.16293 l 0.05161,-0.91111 -2.00219,-0.0887 c -1.445779,-0.0641 -2.101658,0.0311 -2.360116,0.34256 -0.239725,0.28885 -0.364946,2.03496 -0.37918,5.28737 -0.02721,6.21722 0.03498,6.3404 3.18819,6.31508 1.298382,-0.0104 1.519582,-0.10676 1.770774,-0.77118 z m 24.837943,-38.79676 c 0,-0.0889 -0.84746,-2.26683 -1.88324,-4.83987 -1.56235,-3.88112 -1.98021,-4.66307 -2.45238,-4.58919 -0.41925,0.0656 -1.01117,1.16883 -2.24754,4.18903 -2.11917,5.17673 -2.189645,5.46664 -1.328876,5.46664 0.364338,0 1.340116,-0.29153 2.168396,-0.64785 l 1.50596,-0.64785 1.7083,0.7729 c 1.50012,0.67871 2.52938,0.79923 2.52938,0.29619 z m 72.45576,-7.89742 C 178.30046,115.43279 171.60602,99.414769 160.22016,86.433298 148.56018,73.139306 132.44989,64.25359 114.98873,61.485666 c -3.89524,-0.61747 -9.87505,-1.09765 -10.53378,-0.845867 -0.30356,0.116028 -0.36303,0.763783 -0.24764,2.697508 l 0.15185,2.544813 3.03702,0.188867 c 9.00384,0.559935 18.71357,3.170786 27.04644,7.272528 14.57587,7.174767 26.20891,18.945395 33.0769,33.468105 3.84409,8.12851 6.17321,16.7066 6.69843,24.67014 0.2913,4.41679 0.0653,4.09998 2.92508,4.09998 h 2.46527 z m -73.67057,-26.30819 c 0,-15.095889 -0.0854,-27.874152 -0.18982,-28.396139 l -0.18981,-0.949069 h -2.84721 -2.847202 v 28.074518 c 0,18.18833 0.105813,28.13991 0.300484,28.26022 0.165268,0.10214 0.626748,-0.55204 1.025518,-1.45373 1.1776,-2.66276 2.15347,-2.63071 3.34198,0.10976 0.42971,0.99083 0.92186,1.80151 1.09367,1.80151 0.21174,0 0.31239,-8.84296 0.31239,-27.44707 z M 79.615829,78.166386 c 0.611383,-1.14238 0.259671,-1.947328 -0.899088,-2.057706 -1.757754,-0.167435 -3.001919,0.198141 -3.216255,0.94504 -0.536309,1.868881 -0.662585,1.735736 1.646191,1.735736 1.842769,0 2.18143,-0.08546 2.469152,-0.62307 z m 21.794101,-4.312088 c 0.17271,-0.208795 0.36028,-0.779171 0.41681,-1.267503 l 0.1028,-0.887875 1.46106,1.267503 c 1.35954,1.179432 1.58564,1.267503 3.25411,1.267503 2.18656,0 2.42183,-0.30978 2.42183,-3.188872 0,-2.765097 -0.27586,-3.188871 -2.07586,-3.188871 -1.65878,0 -2.17597,0.375355 -2.17597,1.579251 0,0.467701 -0.0872,0.850365 -0.19381,0.850365 -0.1066,0 -0.78687,-0.546663 -1.51173,-1.214808 -1.22295,-1.127276 -1.44532,-1.214808 -3.08616,-1.214808 -0.972545,0 -1.93226,0.163999 -2.132704,0.364442 -0.223464,0.223465 -0.364442,1.316043 -0.364442,2.824429 0,1.508387 0.140978,2.600964 0.364442,2.824429 0.480742,0.480742 3.118824,0.46936 3.519624,-0.01519 z"
         id="path351" /><path
         style="display:inline;fill:#4c5180;fill-opacity:1"
         d="m 94.033291,215.2755 c -9.59071,-1.1478 -17.203355,-3.38065 -25.814673,-7.57166 -16.948584,-8.24863 -29.787277,-21.64146 -37.421008,-39.03616 -2.458911,-5.60302 -4.331511,-11.97474 -5.617945,-19.11565 -0.604315,-3.35451 -0.683076,-4.78583 -0.676827,-12.29993 0.0076,-9.09838 0.215035,-10.95276 2.106633,-18.82953 3.768547,-15.69253 13.054043,-30.570878 25.60063,-41.020441 11.234092,-9.356436 22.63291,-14.578214 38.178765,-17.489623 3.220092,-0.603055 4.634533,-0.683322 12.148084,-0.689384 7.50309,-0.0061 8.95033,0.07338 12.29993,0.67507 15.16608,2.724302 27.26303,8.29381 38.59122,17.76763 9.90187,8.280984 17.96914,19.79124 22.71188,32.404938 7.46815,19.86217 6.31619,42.39791 -3.15921,61.80337 -3.95846,8.10686 -8.10689,13.89869 -14.70568,20.53135 -6.93197,6.96755 -12.87536,11.27174 -21.11611,15.29227 -13.45363,6.5638 -28.90786,9.27931 -43.125689,7.57775 z m 21.376199,-1.82696 c 32.36752,-5.30971 58.02968,-30.97275 63.32174,-63.3239 0.42039,-2.56992 0.85805,-6.14175 0.97256,-7.93739 l 0.20821,-3.26479 h -2.75615 -2.75616 l -0.15883,1.29073 c -0.0874,0.7099 -0.23951,2.45239 -0.33811,3.8722 -0.24067,3.46573 -0.9115,7.32169 -2.00776,11.54068 -3.28446,12.64034 -9.8163,23.8911 -19.14323,32.9732 -7.82369,7.61834 -15.70181,12.42681 -27.58901,16.83919 -3.66786,1.36146 -14.30295,3.32599 -18.07027,3.33796 -3.24312,0.0103 -3.18887,-0.0426 -3.18887,3.11317 v 2.74112 l 3.41664,-0.20783 c 1.87916,-0.1143 5.51932,-0.55276 8.08924,-0.97434 z m -11.80959,-6.41449 c 1.68342,-0.18171 2.12592,-0.51893 2.12592,-1.62011 0,-0.4708 0.12234,-0.93161 0.27188,-1.02403 0.30535,-0.18872 0.63922,0.50838 0.63922,1.33465 0,0.97382 0.7754,1.33548 2.12745,0.99229 0.73334,-0.18614 1.28538,-0.19787 1.38943,-0.0295 0.23123,0.37414 3.21198,-0.0141 3.71369,-0.4837 0.44267,-0.41435 0.20041,-5.84341 -0.71875,-16.10738 -0.66732,-7.45168 -0.46862,-38.52439 0.27383,-42.82199 1.44895,-8.38717 1.39805,-6.89453 1.41025,-41.35155 0.0105,-29.75266 -0.0311,-32.599891 -0.4768,-32.599891 -0.26858,0 -0.85898,0.263922 -1.31198,0.586492 -0.45301,0.32257 -1.43077,0.822533 -2.1728,1.11103 -0.74203,0.288496 -1.51249,0.65009 -1.71213,0.803543 -0.27625,0.212335 -0.38712,7.838959 -0.46399,31.916566 l -0.101,31.63756 -0.88386,4.78694 c -0.52389,2.83738 -0.9952,4.67559 -1.15724,4.51355 -0.15036,-0.15036 -0.34779,-1.68949 -0.43873,-3.42028 -0.0909,-1.73079 -0.28881,-3.38628 -0.43971,-3.67887 -0.31723,-0.61507 -2.12792,-1.44208 -3.15736,-1.44208 -0.38765,0 -1.20448,0.29481 -1.8152,0.65514 l -1.110391,0.65515 0.201137,3.3689 c 0.110625,1.8529 0.329154,4.45865 0.485624,5.79056 0.15647,1.3319 0.28449,3.61846 0.28449,5.08122 0,3.21482 0.35118,3.03291 -5.618483,2.91032 l -4.251829,-0.0873 -0.151851,-42.97384 -0.151851,-42.973836 -0.878298,-1.594435 c -0.952074,-1.728367 -0.972639,-1.737904 -2.766126,-1.282757 -3.824291,0.970519 -3.785036,0.92746 -3.792129,4.159737 l -0.0041,1.889949 -3.416648,-0.04852 c -6.904138,-0.09804 -8.334384,0.09044 -10.705497,1.410791 -2.348649,1.307846 -6.052808,3.72687 -7.830916,5.114029 l -1.149471,0.896739 0.08651,2.927188 0.08651,2.927189 4.297334,0.08408 c 3.165013,0.06193 4.387452,0.192665 4.639347,0.49618 0.23012,0.277278 0.314592,1.988562 0.258197,5.230707 l -0.08382,4.818606 h -9.870316 -9.870315 l -0.08882,-2.731031 c -0.04885,-1.502067 -0.208387,-2.850595 -0.35452,-2.996728 -0.630545,-0.630545 -8.179595,10.809032 -7.794754,11.811912 0.09401,0.24499 0.502263,0.44544 0.907225,0.44544 0.404961,0 0.819248,0.21617 0.920637,0.48039 0.2545,0.66322 0.17383,21.66136 -0.08683,22.60096 -0.205879,0.74214 -0.283932,0.7612 -3.463053,0.84547 -1.788835,0.0474 -3.509189,-0.0512 -3.823008,-0.21916 -0.405212,-0.21687 -0.637964,-0.81398 -0.803076,-2.06027 l -0.232494,-1.75491 -0.415327,2.12592 c -0.22843,1.16925 -0.379204,2.74091 -0.335054,3.49257 l 0.08027,1.36666 4.251829,0.0812 c 3.559439,0.068 4.313648,0.16398 4.631455,0.58952 0.564066,0.75528 0.548445,24.17021 -0.01644,24.63902 -0.217836,0.18078 -1.686995,0.36835 -3.264797,0.41681 -3.298653,0.10131 -3.244528,0.0217 -2.098216,3.08551 0.894068,2.38961 1.200298,2.62109 3.467585,2.62109 2.345306,0 2.28163,-0.14962 2.287346,5.37447 l 0.0041,4.00782 2.120568,3.12918 c 3.176321,4.68709 3.695704,5.17903 4.105324,3.88844 0.188077,-0.59258 0.449855,-0.60688 10.725962,-0.5858 5.793249,0.0119 11.595126,0.11826 12.893061,0.23639 1.297934,0.11812 2.579523,0.0919 2.847976,-0.0584 0.268452,-0.15023 1.813631,-0.25031 3.433732,-0.2224 2.796393,0.0482 2.962651,0.0154 3.281435,-0.64656 0.254193,-0.52785 0.340793,1.40619 0.356353,7.9584 l 0.02056,8.65571 -8.09882,0.0657 c -4.601168,0.0373 -8.22315,0.19002 -8.386705,0.35358 -0.914746,0.91474 11.635162,6.69423 14.685467,6.76295 1.229172,0.0277 1.623127,0.1692 1.977747,0.71042 0.513271,0.78335 3.474571,1.6913 5.782741,1.773 l 1.480269,0.0524 0.151851,-20.77346 0.151851,-20.77347 4.542347,0.0667 c 2.498291,0.0367 4.642829,0.12876 4.765645,0.20466 0.12281,0.0759 0.15652,4.54232 0.0749,9.92539 -0.138942,9.165 -0.486924,14.66909 -1.482818,23.45397 -0.750879,6.62359 -0.835452,8.52108 -0.396045,8.88575 0.464087,0.38516 2.543773,0.65618 3.429233,0.44689 0.33407,-0.079 1.2224,-0.20995 1.97406,-0.29109 z M 49.372109,175.58381 c -0.08237,-0.21467 -0.112251,-2.77715 -0.06639,-5.69442 l 0.08338,-5.30411 13.211038,-0.0318 c 7.266071,-0.0175 14.782696,-0.0773 16.703611,-0.13293 4.098631,-0.11874 3.788192,-0.50945 3.388508,4.26466 -0.25375,3.03096 -0.269062,3.08214 -0.309229,1.0336 l -0.04226,-2.15526 -4.783306,-0.20311 c -4.801145,-0.20387 -8.589512,-0.0119 -8.895405,0.45062 -0.09018,0.13638 -0.204107,1.92371 -0.253161,3.97185 -0.04905,2.04814 -0.154165,3.82902 -0.23358,3.95752 -0.07941,0.12849 -4.308924,0.23362 -9.39891,0.23362 -7.258384,0 -9.286824,-0.0842 -9.404291,-0.39029 z m 0.0088,-17.29027 c -0.08177,-0.21434 -0.113389,-12.00631 -0.07026,-26.20438 l 0.07841,-25.81467 8.889053,-0.0805 8.889054,-0.0805 0.297932,0.78362 c 0.451146,1.1866 0.383834,9.62527 -0.08169,10.24188 -0.270451,0.35822 -0.947346,0.52776 -2.353691,0.58952 -1.882307,0.0827 -1.978383,0.12399 -2.066989,0.88901 -0.07568,0.65341 0.248404,1.10276 1.746286,2.42125 l 1.839213,1.61894 v 6.94995 6.94996 l -2.162556,2.23025 c -2.00585,2.06864 -2.264434,2.23685 -3.568498,2.32132 l -1.405944,0.0911 -0.08549,3.56043 -0.08549,3.56042 1.09038,0.45559 c 1.037547,0.43352 1.085836,0.51852 0.9966,1.75436 l -0.09378,1.29877 -4.859233,0.15185 -4.859232,0.15186 v 2.27776 2.27777 l 10.174018,0.18562 c 13.309807,0.24283 13.054443,0.24264 16.399909,0.0127 l 2.885169,-0.19831 v -1.67037 -1.67036 l -2.885169,-0.18787 c -1.586843,-0.10333 -5.49499,-0.11657 -8.68477,-0.0294 -4.52562,0.12364 -5.852456,0.0729 -6.040213,-0.23087 -0.336132,-0.54388 -0.316314,-7.86605 0.02219,-8.20003 0.152318,-0.15029 1.916933,-0.26544 3.921366,-0.25589 2.004434,0.01 4.737752,0.0237 6.074041,0.0315 1.336289,0.008 2.634615,-0.0301 2.885169,-0.0841 0.250554,-0.054 1.858897,-0.0767 3.574096,-0.0504 l 3.118543,0.0478 -0.08152,7.06108 -0.08152,7.06107 -16.633351,0.086 c -13.318527,0.0689 -16.66298,0.008 -16.782025,-0.3037 z m 25.215421,-19.03917 -1.51851,-0.18006 -0.08089,-8.12403 c -0.04449,-4.46822 0.02384,-8.13331 0.151851,-8.14465 0.128005,-0.0113 0.7794,-0.0829 1.447545,-0.15898 2.756647,-0.31396 7.61975,-0.42146 7.990421,-0.17664 0.312715,0.20654 0.392205,2.00438 0.371398,8.39993 -0.01456,4.47543 -0.09917,8.25477 -0.188018,8.39854 -0.176086,0.28491 -5.732996,0.27532 -8.173801,-0.0141 z m 1.670361,-23.71725 c -0.260999,-0.18677 -1.493177,-0.28875 -2.885169,-0.23878 l -2.429617,0.0872 v -4.50232 -4.50232 l 5.92219,-0.0532 5.92219,-0.0532 0.08383,4.63146 0.08384,4.63145 -2.057899,0.003 c -1.131844,0.002 -2.53623,0.0751 -3.120856,0.16287 -0.584626,0.0877 -1.267956,0.0128 -1.51851,-0.16649 z M 72.374936,99.357229 c -0.203993,-0.245797 -0.355931,-3.441125 -0.41518,-8.731433 -0.07805,-6.969331 -0.01413,-8.589999 0.388061,-9.838566 l 0.481507,-1.494798 4.983496,-0.02371 4.983496,-0.02371 0.07997,10.249943 0.07996,10.249944 h -5.129787 c -3.790062,0 -5.213814,-0.101245 -5.451523,-0.387667 z M 121.75324,204.8016 c 12.91365,-3.76183 24.41986,-10.91332 32.98528,-20.50147 3.9223,-4.39064 4.14859,-4.79925 4.38633,-7.92056 l 0.20438,-2.68323 1.51631,-0.0956 c 1.51436,-0.0954 2.58366,-0.70145 2.58366,-1.46421 0,-0.46879 -0.77078,-0.67996 -2.88517,-0.79047 l -1.51851,-0.0794 -0.18961,-4.40368 c -0.10429,-2.42202 -0.20679,-10.07907 -0.22778,-17.01566 -0.042,-13.88724 -0.0989,-13.44379 1.85367,-14.4535 1.02582,-0.53047 2.85559,-0.43052 4.31816,0.23587 1.65847,0.75565 1.66273,0.80016 1.46726,15.34857 -0.0989,7.35724 -0.085,13.62368 0.0308,13.92542 0.18205,0.47442 0.26788,0.48999 0.63445,0.11509 0.91362,-0.93436 3.63828,-9.53178 4.51669,-14.25199 0.55533,-2.98409 1.42168,-11.42577 1.35583,-13.21104 -0.11217,-3.04054 -0.92087,-10.86036 -1.35054,-13.05919 -3.66505,-18.75553 -14.51025,-34.901456 -30.49237,-45.395878 -3.46785,-2.277114 -10.98055,-6.081615 -12.00929,-6.081615 h -0.74735 l 0.0831,5.225443 0.0831,5.225442 0.75925,0.18545 c 0.56478,0.137947 0.72036,0.335865 0.60741,0.772673 -0.0835,0.322972 -0.15185,2.568878 -0.15185,4.990902 0,3.785736 -0.0733,4.467604 -0.52239,4.859232 -0.43588,0.380117 -0.55158,1.235062 -0.69874,5.162935 -0.19028,5.078916 -0.84734,15.358566 -1.38797,21.714696 -0.1847,2.17147 -0.66917,5.65645 -1.0766,7.7444 -1.59185,8.15782 -3.16072,24.87224 -3.15212,33.58206 0.004,4.49377 -0.01,4.59172 -0.75473,5.2918 -0.62432,0.58651 -0.75926,0.99884 -0.75926,2.32002 0,1.98898 -0.36211,2.23551 -3.28357,2.23551 -1.59039,0 -2.21114,0.12337 -2.52551,0.50193 -0.33904,0.40828 -0.43337,3.47785 -0.50558,16.45112 -0.0488,8.77206 -0.0118,16.14963 0.0822,16.39462 0.23793,0.62002 2.75312,0.29472 6.77112,-0.87575 z m 6.29468,-16.71517 c -3.16924,-0.3915 -3.58194,-0.63873 -3.37104,-2.01948 0.0952,-0.6235 1.39383,-8.58193 2.88576,-17.6854 1.49193,-9.10346 2.87677,-17.59482 3.07742,-18.86968 0.20065,-1.27486 0.4767,-2.49895 0.61344,-2.72021 0.20267,-0.32791 0.81841,-0.33904 3.33102,-0.0602 1.69531,0.18814 3.16503,0.42472 3.26603,0.52573 0.10101,0.10101 0.025,1.17116 -0.16885,2.37812 -0.19388,1.20696 -0.89928,5.54279 -1.56756,9.63517 -0.66827,4.09239 -1.3578,8.39736 -1.53228,9.56662 -0.17448,1.16925 -0.51747,3.21924 -0.7622,4.55553 -0.24473,1.33629 -0.72471,4.2746 -1.06663,6.52959 -1.18762,7.8324 -1.38022,8.56133 -2.23676,8.46524 -0.18834,-0.0211 -1.2991,-0.1566 -2.46835,-0.30104 z m -27.21965,-48.08489 1.76559,-0.74312 1.90435,0.7692 c 1.28903,0.52066 2.004,0.66954 2.21278,0.46077 0.20877,-0.20878 -0.2873,-1.81179 -1.53531,-4.96124 -2.46492,-6.22039 -2.52292,-6.22234 -4.9795,-0.16746 -1.58782,3.91358 -1.944137,5.38498 -1.304037,5.38498 0.09379,0 0.965049,-0.33441 1.936127,-0.74313 z M 179.3992,132.221 C 178.34311,115.53105 171.58015,99.385274 160.22016,86.433298 148.54762,73.124979 132.52712,64.286834 114.98873,61.480157 c -3.89017,-0.622546 -9.85387,-1.100265 -10.52635,-0.843208 -0.31267,0.119517 -0.37175,0.744993 -0.25507,2.700358 l 0.15185,2.544813 3.03702,0.188867 c 14.59758,0.9078 29.34815,6.741169 41.02318,16.223327 5.66608,4.601839 12.03538,11.992699 15.89405,18.443266 5.545,9.26961 9.24588,20.75732 9.90454,30.74418 0.29131,4.417 0.065,4.09998 2.92686,4.09998 h 2.46705 z m -73.52013,0.55149 c 0.0994,-0.54287 0.13978,-13.23186 0.0897,-28.19777 -0.0709,-21.188971 -0.17496,-27.311768 -0.47009,-27.667255 -0.46273,-0.557361 -5.40456,-0.662201 -5.771577,-0.122442 -0.33997,0.499984 -0.117164,56.670797 0.224789,56.670797 0.156668,0 0.665738,-0.78583 1.131258,-1.74629 0.68003,-1.40301 0.98916,-1.74628 1.57257,-1.74628 0.77689,0 0.883,0.13276 1.88122,2.35369 0.35661,0.79342 0.76381,1.44258 0.90488,1.44258 0.14107,0 0.33784,-0.44416 0.43727,-0.98703 z m -4.46582,-58.903007 c 0.20044,-0.200443 0.36444,-0.678774 0.36444,-1.062957 0,-0.970492 0.49094,-0.874413 1.86221,0.364442 1.05957,0.957264 1.35162,1.062958 2.93716,1.062958 0.96833,0 1.9246,-0.164 2.12504,-0.364443 0.22346,-0.223465 0.36444,-1.316042 0.36444,-2.824429 0,-1.508386 -0.14098,-2.600964 -0.36444,-2.824429 -0.20044,-0.200443 -0.99311,-0.364442 -1.76147,-0.364442 -1.60986,0 -2.12592,0.383358 -2.12592,1.579251 0,0.467701 -0.10893,0.850365 -0.24206,0.850365 -0.13314,0 -0.77587,-0.546663 -1.4283,-1.214808 -1.12757,-1.154741 -1.27779,-1.214808 -3.03791,-1.214808 -1.035269,0 -2.012377,0.160685 -2.216134,0.364442 -0.379903,0.379904 -0.518897,4.650014 -0.180098,5.532909 0.225919,0.588736 3.139042,0.679952 3.703042,0.115949 z"
         id="path350" /><path
         style="display:inline;fill:#6d181a;fill-opacity:1"
         d="m 99.499927,215.55438 c -6.246939,-0.30799 -10.798655,-0.99691 -16.620796,-2.5156 -27.232885,-7.10362 -48.737594,-28.47246 -55.791161,-55.43865 -1.802181,-6.88984 -2.419332,-11.13368 -2.649913,-18.22212 -0.174891,-5.37645 0.266185,-11.39923 1.154641,-15.76632 2.851768,-14.01749 7.708807,-24.725643 15.982078,-35.235155 2.1768,-2.765182 9.324077,-9.912928 12.066145,-12.066936 C 67.267837,65.60509 82.806165,59.848914 99.95548,59.152362 c 21.80222,-0.885538 43.94844,8.114305 59.15699,24.040383 5.86005,6.136531 9.93247,11.995284 13.72197,19.741025 3.75226,7.66962 6.17704,15.39264 7.29446,23.2332 2.14339,15.03946 -0.26927,30.98983 -6.76245,44.70731 -10.99253,23.22279 -32.36713,39.345 -57.89046,43.66503 -3.10313,0.52522 -12.44352,1.31808 -13.69311,1.16233 -0.25341,-0.0316 -1.28074,-0.0978 -2.282953,-0.14726 z m 9.262913,-1.02542 c 13.28372,-1.20541 25.26697,-5.25382 35.68499,-12.05577 9.58261,-6.25653 16.9847,-13.64164 23.20332,-23.15014 5.45621,-8.34274 9.45893,-18.45601 11.11531,-28.08395 0.84106,-4.88879 1.46912,-11.2107 1.19847,-12.06347 -0.16597,-0.52292 -0.4537,-0.5706 -2.96904,-0.49203 l -2.78526,0.087 -0.0776,1.06295 c -0.98299,13.46598 -4.31598,24.62958 -10.33272,34.60872 -4.05708,6.72893 -11.66446,15.19483 -17.68212,19.67763 -5.63531,4.19797 -13.23788,8.32287 -19.43693,10.54583 -5.47486,1.96326 -15.02981,3.82724 -21.41099,4.17684 l -1.51851,0.0832 -0.0885,2.70764 c -0.11698,3.57965 -0.43698,3.39796 5.09957,2.89555 z m 0.0345,-7.38939 c 3.8364,-0.13206 5.43211,-0.3768 5.43211,-0.83316 0,-0.16944 0.43864,-0.21104 1.03856,-0.0985 2.17016,0.40712 11.00377,-2.30057 17.37708,-5.32646 9.67037,-4.59125 19.05853,-11.97254 24.81337,-19.50913 1.75593,-2.29957 1.77538,-2.34741 1.94189,-4.77683 0.18252,-2.66286 0.13785,-2.60883 2.32843,-2.81588 1.01153,-0.0956 2.18728,-1.44562 1.90337,-2.18548 -0.13786,-0.35926 -0.62356,-0.48043 -1.93973,-0.48392 -0.9657,-0.003 -1.94297,-0.12321 -2.17171,-0.26811 -0.34013,-0.21547 -0.44395,-3.16068 -0.56993,-16.16748 -0.17423,-17.98974 -0.15654,-18.18926 1.6811,-18.95996 1.90545,-0.79914 4.61096,0.0529 5.15888,1.62468 0.19198,0.55072 0.24256,5.91667 0.13922,14.76982 -0.15786,13.52437 -0.14658,13.90182 0.4125,13.79416 0.72362,-0.13936 2.11223,-3.32666 3.60763,-8.28067 5.78603,-19.16813 2.6424,-41.35177 -8.2018,-57.877764 -7.39723,-11.272986 -17.97538,-20.465071 -29.60045,-25.721878 -4.34696,-1.965678 -4.19741,-2.049396 -4.30989,2.412747 -0.0516,2.046193 -0.0254,4.540346 0.0581,5.542562 0.12745,1.529432 0.24944,1.836174 0.75925,1.909105 0.58097,0.08311 0.60457,0.293065 0.54218,4.823499 -0.0496,3.601296 -0.16925,4.854363 -0.49922,5.227893 -0.4198,0.475231 -0.61274,2.583907 -0.96192,10.513456 -0.0662,1.50332 -0.19482,3.82664 -0.28582,5.16293 -0.091,1.33629 -0.30212,4.54794 -0.46914,7.137 -0.28711,4.45061 -0.60526,6.89008 -2.11901,16.24806 -1.06549,6.58684 -1.17782,7.44593 -1.50902,11.54067 -0.6834,8.44918 -0.92394,13.02733 -0.92394,17.58529 0,4.67837 -0.01,4.74953 -0.75926,5.40099 -0.6308,0.54848 -0.75925,0.93169 -0.75925,2.26508 0,1.98693 -0.36273,2.23368 -3.28357,2.23368 -1.3186,0 -2.22523,0.14224 -2.41973,0.37963 -0.81674,0.99685 -1.05407,5.33245 -0.89358,16.32398 0.17583,12.04248 0.17179,12.03771 -1.02812,-1.21481 -0.54322,-5.99956 -0.19978,-35.69245 0.45841,-39.63311 1.6094,-9.63576 1.50151,-6.85533 1.61853,-41.71104 0.078,-23.226511 0.0143,-32.714634 -0.22154,-32.998767 -0.26558,-0.320004 -0.94341,-0.08534 -3.43065,1.18768 l -3.09968,1.58648 -0.19188,32.019697 -0.19188,32.01969 -0.7708,3.49258 c -0.42393,1.92091 -0.7902,3.28757 -0.81392,3.03702 -0.24775,-2.61652 -0.56105,-4.80413 -0.75031,-5.23886 -0.17901,-0.41122 -0.0866,-0.53148 0.40853,-0.53148 0.82868,0 0.82855,-0.71928 -4.9e-4,-2.798 -1.37896,-3.4576 -1.53259,-3.99688 -1.01661,-3.56865 0.30643,0.25432 0.57093,0.28535 0.76635,0.0899 0.36853,-0.36853 0.25029,-56.804564 -0.12058,-57.555004 -0.20036,-0.405431 -0.79126,-0.531106 -2.88517,-0.613638 -1.44826,-0.05708 -2.94341,-8.35e-4 -3.322554,0.124997 l -0.689357,0.228786 0.08195,28.679839 c 0.04507,15.77391 0.18115,28.779 0.30239,28.9002 0.121241,0.12119 0.428739,0.0475 0.683331,-0.16381 0.64841,-0.53814 0.61253,-0.39391 -0.757464,3.04485 -0.671195,1.68473 -1.14146,3.1908 -1.045033,3.34682 0.09643,0.15603 0.498446,0.28368 0.893375,0.28368 0.68871,0 0.700331,0.0355 0.284367,0.86935 -0.381222,0.76417 -0.358328,1.5742 0.189247,6.69581 0.342618,3.20456 0.582418,6.67416 0.532898,7.71023 l -0.09,1.88377 -4.625144,0.0838 -4.625142,0.0838 -0.0084,-42.49923 -0.0084,-42.499221 -0.868027,-1.650146 c -0.477415,-0.90758 -0.928405,-1.83128 -1.0022,-2.052666 -0.109162,-0.327486 -0.527264,-0.306251 -2.242866,0.11391 -3.966693,0.971469 -4.07075,1.074388 -4.078608,4.034016 -0.0043,1.635034 -0.564984,2.295701 -1.376562,1.622151 -0.309155,-0.256576 -0.301062,-0.59561 0.04138,-1.733456 0.234136,-0.777973 0.31355,-1.526648 0.176476,-1.663722 -0.260969,-0.260969 -2.932114,0.557236 -4.549263,1.393496 -0.518923,0.268346 -1.123278,0.864193 -1.343012,1.324106 -0.371786,0.778164 -0.559638,0.847597 -2.706444,1.000343 -2.127632,0.151382 -2.528679,0.296538 -5.160109,1.867661 -3.834711,2.289556 -7.950348,5.259714 -8.214236,5.92802 -0.388634,0.984232 -0.291651,5.800629 0.122196,6.068476 0.208795,0.135135 2.29295,0.314033 4.631456,0.397551 l 4.251828,0.151851 v 4.707381 4.707382 l -9.490688,0.08025 -9.490688,0.08025 V 96.4085 c 0,-2.418635 -0.08792,-3.041347 -0.429404,-3.041347 -0.836731,0 -5.306631,6.222293 -7.476913,10.408187 -1.086422,2.09541 -1.050874,2.59361 0.198147,2.77692 0.54742,0.0803 0.571172,0.55622 0.571172,11.44371 v 11.35987 l -3.162515,0.0871 c -1.877072,0.0517 -3.289117,-0.0395 -3.473989,-0.22438 -0.171312,-0.17131 -0.388171,-1.71383 -0.48191,-3.42782 -0.137513,-2.51437 -0.235972,-2.99901 -0.509717,-2.50894 -0.568837,1.01837 -1.130028,4.70649 -1.155297,7.59255 l -0.02393,2.73332 4.479605,0.084 4.479605,0.084 v 12.13996 12.13997 h -2.870078 c -3.855581,0 -3.931744,0.14013 -2.310798,4.25182 0.362177,0.9187 0.882163,1.8412 1.155524,2.04999 0.273361,0.2088 1.273376,0.37963 2.222256,0.37963 h 1.725235 l 0.150141,4.1759 c 0.08258,2.29675 0.314328,4.58492 0.514999,5.08482 0.679934,1.69381 5.239822,7.74659 5.835926,7.74659 0.309068,0 0.561942,-0.20672 0.561942,-0.45939 0,-0.40296 1.331676,-0.44959 10.841382,-0.37962 l 10.841383,0.0798 0.546877,2.88517 c 0.300783,1.58684 0.967208,4.77616 1.480947,7.08738 0.513738,2.31121 0.859947,4.39537 0.769352,4.63145 -0.130267,0.33948 -0.992426,0.42925 -4.122374,0.42925 -3.329896,0 -3.957658,0.0729 -3.957658,0.45932 0,1.28917 10.543651,6.4069 14.824768,7.19573 1.104152,0.20345 2.237042,0.5994 2.517534,0.87989 0.630254,0.63026 5.880228,1.89757 6.851261,1.65385 l 0.710003,-0.1782 0.0163,-11.45896 c 0.009,-6.30243 0.002,-15.59681 -0.01549,-20.65416 l -0.03179,-9.1952 4.4951,0.0841 4.4951,0.0841 -0.101702,6.22589 c -0.147051,9.00203 -0.592382,18.3686 -1.097396,23.08136 -0.241642,2.25498 -0.601735,6.00157 -0.800205,8.32575 -0.454979,5.328 -0.608564,5.1453 4.12521,4.9071 1.8374,-0.0924 4.92792,-0.22274 6.86783,-0.28951 z M 79.783674,195.75418 c -0.354416,-0.57346 -2.741971,-11.73009 -2.96563,-13.85789 l -0.09577,-0.9111 2.961095,-0.0869 2.961094,-0.0869 v 7.60355 7.60355 h -1.348735 c -0.741805,0 -1.422229,-0.11892 -1.512055,-0.26426 z m 49.934606,-7.82344 c -4.73266,-0.67776 -4.90339,-0.73499 -4.73016,-1.58553 0.0901,-0.44247 0.30382,-1.76115 0.4749,-2.93041 0.17107,-1.16925 0.64398,-4.10757 1.05091,-6.52959 0.40692,-2.42202 1.10971,-6.65867 1.56174,-9.41476 0.45203,-2.7561 1.38631,-8.45446 2.07619,-12.66302 0.68987,-4.20856 1.34156,-7.73918 1.44819,-7.84581 0.1756,-0.17561 5.71663,0.36911 5.93052,0.583 0.10472,0.10472 -1.12703,8.12436 -2.19749,14.30734 -0.40486,2.33851 -1.35247,8.07847 -2.1058,12.75549 -2.16409,13.43562 -2.18469,13.54475 -2.54244,13.47338 -0.11402,-0.0228 -0.54897,-0.0903 -0.96656,-0.15009 z m -72.212308,-12.49309 -7.979329,-0.0809 0.08308,-5.23388 0.08308,-5.23389 10.705496,-0.0798 10.705496,-0.0798 v 1.06684 c 0,1.01192 -0.05344,1.06684 -1.038118,1.06684 -2.01163,0 -1.998902,-0.027 -1.998902,4.24714 0,4.24817 -0.141023,4.61979 -1.701815,4.48458 -0.483809,-0.0419 -4.47035,-0.11261 -8.85898,-0.15711 z m 18.901933,-8.89557 c -0.109101,-0.17653 -0.114563,-0.65486 -0.01214,-1.06296 0.181927,-0.72485 0.256234,-0.74199 3.217462,-0.74199 h 3.031234 v 1.06296 1.06295 h -3.019096 c -1.793374,0 -3.099632,-0.1303 -3.217463,-0.32096 z m -26.031781,-8.41424 -0.83518,-0.1125 v -25.61016 c 0,-23.07295 0.04759,-25.62842 0.480392,-25.7945 0.264215,-0.10138 4.074127,-0.18434 8.46647,-0.18434 6.430107,0 8.054032,0.0819 8.334858,0.42025 0.238527,0.28741 0.322284,1.94346 0.264963,5.23886 l -0.08382,4.81861 -1.962417,0.0921 c -2.265308,0.1063 -2.744964,0.39377 -2.744964,1.64518 0,0.71487 0.380652,1.25541 1.822212,2.5876 l 1.822212,1.68397 v 6.81626 6.81625 l -1.870351,1.94778 c -1.649268,1.71754 -2.00532,1.94778 -3.012181,1.94778 -2.138899,0 -2.102615,-0.0768 -2.102615,4.45197 v 4.08328 l 0.911106,0.31761 c 0.730088,0.25451 0.911107,0.49273 0.911107,1.19901 v 0.8814 h -4.533838 c -5.452937,0 -5.488329,0.0189 -5.488329,2.92683 0,3.4033 -0.839623,3.14721 10.31863,3.14721 9.328885,0 12.502086,0.29956 7.742248,0.73088 -2.257105,0.20454 -16.842449,0.16394 -18.440506,-0.0513 z m 27.636885,0.0166 c -2.276661,-0.19266 -1.680328,-0.6962 0.824495,-0.6962 2.011997,0 2.306568,-0.0738 2.618041,-0.65578 0.326672,-0.61039 0.208783,-3.46261 -0.158291,-3.82968 -0.08319,-0.0832 -1.103275,-0.1694 -2.266844,-0.19155 -1.163568,-0.0222 -2.219804,-0.14451 -2.34719,-0.27189 -0.288823,-0.28883 -0.346928,-0.66923 -0.577364,-3.77994 -0.283536,-3.82751 -0.378362,-3.72294 3.376126,-3.72294 h 3.174328 l -0.08185,6.58438 -0.08185,6.58438 -1.51851,0.0507 c -0.83518,0.0279 -2.167673,-0.004 -2.961094,-0.0714 z m -14.084873,-5.61797 c -0.116127,-0.1879 -0.227997,-5.90257 -0.139976,-7.15038 0.01974,-0.27984 0.933106,-0.37963 3.474665,-0.37963 h 3.447887 l 0.171401,3.72018 c 0.09427,2.04609 0.148545,3.73976 0.120612,3.76371 -0.208418,0.17864 -6.96546,0.22269 -7.074589,0.0461 z m 12.228229,-14.13553 c -0.08321,-0.29231 -0.08377,-1.89814 -0.0012,-3.5685 0.08253,-1.67036 0.182674,-5.01868 0.22255,-7.4407 l 0.0725,-4.40368 2.996119,-0.0875 c 1.647865,-0.0481 3.075746,0.041 3.173069,0.19799 0.09732,0.15703 0.138284,3.7839 0.09103,8.05971 l -0.08593,7.7742 H 79.46606 c -2.747904,0 -3.17807,-0.0691 -3.309695,-0.53148 z m 0.819288,-23.39181 c -0.231471,-0.14726 -0.389172,-1.61894 -0.455553,-4.25128 -0.08538,-3.38583 -0.02908,-4.04294 0.354026,-4.13224 0.250554,-0.0584 1.617213,-0.0907 3.03702,-0.0718 l 2.581467,0.0344 0.08423,4.13482 0.08423,4.13482 -1.147185,0.18959 c -1.56252,0.25824 -4.105894,0.2368 -4.538232,-0.0382 z M 76.660625,96.328248 c 0.195292,-3.34546 1.301137,-9.714787 2.412346,-13.894368 l 0.686324,-2.581467 1.442585,-0.09257 1.442584,-0.09256 v 9.886956 9.886956 H 79.561685 76.478906 Z M 72.327831,84.69646 c -0.0051,-1.177604 0.117687,-2.270931 0.272814,-2.429616 0.155127,-0.158684 0.325959,-0.765728 0.379627,-1.348987 0.06624,-0.719877 0.268274,-1.092806 0.629057,-1.161151 0.700711,-0.13274 0.683204,0.437418 -0.110736,3.606384 -0.897728,3.583226 -1.159771,3.881665 -1.170762,1.33337 z m 107.397959,47.53139 c -0.30114,-5.60059 -1.50823,-12.02285 -3.40572,-18.11996 -5.97565,-19.201314 -19.76024,-35.656702 -37.82329,-45.15164 -9.90551,-5.206884 -21.62661,-8.417957 -31.04932,-8.506169 l -3.6957,-0.0346 -0.0887,2.534977 c -0.0506,1.445847 0.0469,2.698374 0.22695,2.915289 0.19515,0.235139 1.50483,0.447656 3.43099,0.556733 3.48294,0.197237 5.68293,0.525642 11.00844,1.643295 16.71878,3.508729 32.13685,13.647792 42.40032,27.882844 3.38952,4.701131 5.81974,9.016381 7.74889,13.759391 3.23829,7.96168 4.9608,15.00084 5.43961,22.2293 0.28158,4.25103 0.0326,3.94813 3.24466,3.94813 h 2.75953 z M 101.19025,74.22324 c 0.32309,-0.172913 0.58744,-0.628466 0.58744,-1.01234 0,-1.11478 0.32027,-1.151268 1.4441,-0.164526 1.28027,1.124084 2.18648,1.491254 3.68056,1.491254 1.98915,0 2.20115,-0.368302 2.1006,-3.649371 l -0.0883,-2.880223 h -1.97406 -1.97407 l -0.0952,0.987032 c -0.0523,0.542867 -0.19637,0.987031 -0.32006,0.987031 -0.12368,0 -0.69351,-0.483506 -1.26629,-1.074459 -1.0312,-1.063933 -1.06377,-1.073602 -3.324369,-0.987031 l -2.282966,0.08743 -0.08826,2.880223 c -0.07496,2.446206 -0.009,2.938175 0.437674,3.264797 0.635622,0.464778 2.354551,0.502919 3.163121,0.07019 z"
         id="path349" /><path
         style="display:inline;fill:#1e2033;fill-opacity:1"
         d="m 99.499927,215.55438 c -6.246939,-0.30799 -10.798655,-0.99691 -16.620796,-2.5156 -27.232885,-7.10362 -48.737594,-28.47246 -55.791161,-55.43865 -1.802181,-6.88984 -2.419332,-11.13368 -2.649913,-18.22212 -0.174891,-5.37645 0.266185,-11.39923 1.154641,-15.76632 2.851768,-14.01749 7.708807,-24.725643 15.982078,-35.235155 2.1768,-2.765182 9.324077,-9.912928 12.066145,-12.066936 C 67.267837,65.60509 82.806165,59.848914 99.95548,59.152362 c 21.80222,-0.885538 43.94844,8.114305 59.15699,24.040383 5.86005,6.136531 9.93247,11.995284 13.72197,19.741025 3.75226,7.66962 6.17704,15.39264 7.29446,23.2332 2.14339,15.03946 -0.26927,30.98983 -6.76245,44.70731 -10.99253,23.22279 -32.36713,39.345 -57.89046,43.66503 -3.10313,0.52522 -12.44352,1.31808 -13.69311,1.16233 -0.25341,-0.0316 -1.28074,-0.0978 -2.282953,-0.14726 z m 9.262913,-1.02542 c 13.28372,-1.20541 25.26697,-5.25382 35.68499,-12.05577 9.58261,-6.25653 16.9847,-13.64164 23.20332,-23.15014 5.45621,-8.34274 9.45893,-18.45601 11.11531,-28.08395 0.84106,-4.88879 1.46912,-11.2107 1.19847,-12.06347 -0.16597,-0.52292 -0.4537,-0.5706 -2.96904,-0.49203 l -2.78526,0.087 -0.0776,1.06295 c -0.98299,13.46598 -4.31598,24.62958 -10.33272,34.60872 -4.05708,6.72893 -11.66446,15.19483 -17.68212,19.67763 -5.63531,4.19797 -13.23788,8.32287 -19.43693,10.54583 -5.47486,1.96326 -15.02981,3.82724 -21.41099,4.17684 l -1.51851,0.0832 -0.0885,2.70764 c -0.11698,3.57965 -0.43698,3.39796 5.09957,2.89555 z m -7.137,-2.71769 v -2.58115 l -3.796274,-0.37102 c -10.789991,-1.05453 -18.12048,-3.05877 -26.430494,-7.2264 -4.348375,-2.18079 -8.33289,-4.61094 -11.835962,-7.21875 -3.812883,-2.83843 -10.827657,-9.90247 -13.787484,-13.88431 -14.529867,-19.54696 -18.26022,-44.77825 -9.968072,-67.42185 1.355926,-3.70267 4.921653,-11.08055 6.531667,-13.514745 4.715619,-7.12958 9.719106,-12.768325 15.401677,-17.357123 7.683856,-6.204879 17.622938,-11.287169 26.670989,-13.63805 4.029747,-1.047017 11.630219,-2.256257 14.194813,-2.258404 3.04533,-0.0025 3.21808,-0.188625 3.10848,-3.348253 l -0.0893,-2.575732 -3.037019,0.06968 c -14.98927,0.343918 -31.851867,6.79738 -44.644198,17.08572 -3.104942,2.497176 -8.585177,7.974335 -11.042209,11.03601 C 33.91676,99.8038 28.440601,112.36037 26.256855,126.77438 c -0.755273,4.98523 -0.753915,16.12086 0.0026,21.10729 3.517607,23.18644 15.436255,41.74023 35.027289,54.52706 10.028446,6.54545 23.305163,10.97012 35.479891,11.82423 5.316195,0.37295 4.859235,0.60068 4.859235,-2.42169 z m 7.17153,-4.6717 c 3.8364,-0.13206 5.43211,-0.3768 5.43211,-0.83316 0,-0.16944 0.43864,-0.21104 1.03856,-0.0985 2.17016,0.40712 11.00377,-2.30057 17.37708,-5.32646 9.67037,-4.59125 19.05853,-11.97254 24.81337,-19.50913 1.75593,-2.29957 1.77538,-2.34741 1.94189,-4.77683 0.18252,-2.66286 0.13785,-2.60883 2.32843,-2.81588 1.01153,-0.0956 2.18728,-1.44562 1.90337,-2.18548 -0.13786,-0.35926 -0.62356,-0.48043 -1.93973,-0.48392 -0.9657,-0.003 -1.94297,-0.12321 -2.17171,-0.26811 -0.34013,-0.21547 -0.44395,-3.16068 -0.56993,-16.16748 -0.17423,-17.98974 -0.15654,-18.18926 1.6811,-18.95996 1.90545,-0.79914 4.61096,0.0529 5.15888,1.62468 0.19198,0.55072 0.24256,5.91667 0.13922,14.76982 -0.15786,13.52437 -0.14658,13.90182 0.4125,13.79416 0.72362,-0.13936 2.11223,-3.32666 3.60763,-8.28067 5.78603,-19.16813 2.6424,-41.35177 -8.2018,-57.877764 -7.39723,-11.272986 -17.97538,-20.465071 -29.60045,-25.721878 -4.34696,-1.965678 -4.19741,-2.049396 -4.30989,2.412747 -0.0516,2.046193 -0.0254,4.540346 0.0581,5.542562 0.12745,1.529432 0.24944,1.836174 0.75925,1.909105 0.58097,0.08311 0.60457,0.293065 0.54218,4.823499 -0.0496,3.601296 -0.16925,4.854363 -0.49922,5.227893 -0.4198,0.475231 -0.61274,2.583907 -0.96192,10.513456 -0.0662,1.50332 -0.19482,3.82664 -0.28582,5.16293 -0.091,1.33629 -0.30212,4.54794 -0.46914,7.137 -0.28711,4.45061 -0.60526,6.89008 -2.11901,16.24806 -1.06549,6.58684 -1.17782,7.44593 -1.50902,11.54067 -0.6834,8.44918 -0.92394,13.02733 -0.92394,17.58529 0,4.67837 -0.01,4.74953 -0.75926,5.40099 -0.6308,0.54848 -0.75925,0.93169 -0.75925,2.26508 0,1.98693 -0.36273,2.23368 -3.28357,2.23368 -1.3186,0 -2.22523,0.14224 -2.41973,0.37963 -0.81674,0.99685 -1.05407,5.33245 -0.89358,16.32398 0.17583,12.04248 0.17179,12.03771 -1.02812,-1.21481 -0.54322,-5.99956 -0.19978,-35.69245 0.45841,-39.63311 1.6094,-9.63576 1.50151,-6.85533 1.61853,-41.71104 0.078,-23.226511 0.0143,-32.714634 -0.22154,-32.998767 -0.26558,-0.320004 -0.94341,-0.08534 -3.43065,1.18768 l -3.09968,1.58648 -0.19188,32.019697 -0.19188,32.01969 -0.7708,3.49258 c -0.42393,1.92091 -0.7902,3.28757 -0.81392,3.03702 -0.24775,-2.61652 -0.56105,-4.80413 -0.75031,-5.23886 -0.17901,-0.41122 -0.0866,-0.53148 0.40853,-0.53148 0.82868,0 0.82855,-0.71928 -4.9e-4,-2.798 -1.37896,-3.4576 -1.53259,-3.99688 -1.01661,-3.56865 0.30643,0.25432 0.57093,0.28535 0.76635,0.0899 0.36853,-0.36853 0.25029,-56.804564 -0.12058,-57.555004 -0.20036,-0.405431 -0.79126,-0.531106 -2.88517,-0.613638 -1.44826,-0.05708 -2.94341,-8.35e-4 -3.322554,0.124997 l -0.689357,0.228786 0.08195,28.679839 c 0.04507,15.77391 0.18115,28.779 0.30239,28.9002 0.121241,0.12119 0.428739,0.0475 0.683331,-0.16381 0.64841,-0.53814 0.61253,-0.39391 -0.757464,3.04485 -0.671195,1.68473 -1.14146,3.1908 -1.045033,3.34682 0.09643,0.15603 0.498446,0.28368 0.893375,0.28368 0.68871,0 0.700331,0.0355 0.284367,0.86935 -0.381222,0.76417 -0.358328,1.5742 0.189247,6.69581 0.342618,3.20456 0.582418,6.67416 0.532898,7.71023 l -0.09,1.88377 -4.625144,0.0838 -4.625142,0.0838 -0.0084,-42.49923 -0.0084,-42.499221 -0.868027,-1.650146 c -0.477415,-0.90758 -0.928405,-1.83128 -1.0022,-2.052666 -0.109162,-0.327486 -0.527264,-0.306251 -2.242866,0.11391 -3.966693,0.971469 -4.07075,1.074388 -4.078608,4.034016 -0.0043,1.635034 -0.564984,2.295701 -1.376562,1.622151 -0.309155,-0.256576 -0.301062,-0.59561 0.04138,-1.733456 0.234136,-0.777973 0.31355,-1.526648 0.176476,-1.663722 -0.260969,-0.260969 -2.932114,0.557236 -4.549263,1.393496 -0.518923,0.268346 -1.123278,0.864193 -1.343012,1.324106 -0.371786,0.778164 -0.559638,0.847597 -2.706444,1.000343 -2.127632,0.151382 -2.528679,0.296538 -5.160109,1.867661 -3.834711,2.289556 -7.950348,5.259714 -8.214236,5.92802 -0.388634,0.984232 -0.291651,5.800629 0.122196,6.068476 0.208795,0.135135 2.29295,0.314033 4.631456,0.397551 l 4.251828,0.151851 v 4.707381 4.707382 l -9.490688,0.08025 -9.490688,0.08025 V 96.4085 c 0,-2.418635 -0.08792,-3.041347 -0.429404,-3.041347 -0.836731,0 -5.306631,6.222293 -7.476913,10.408187 -1.086422,2.09541 -1.050874,2.59361 0.198147,2.77692 0.54742,0.0803 0.571172,0.55622 0.571172,11.44371 v 11.35987 l -3.162515,0.0871 c -1.877072,0.0517 -3.289117,-0.0395 -3.473989,-0.22438 -0.171312,-0.17131 -0.388171,-1.71383 -0.48191,-3.42782 -0.137513,-2.51437 -0.235972,-2.99901 -0.509717,-2.50894 -0.568837,1.01837 -1.130028,4.70649 -1.155297,7.59255 l -0.02393,2.73332 4.479605,0.084 4.479605,0.084 v 12.13996 12.13997 h -2.870078 c -3.855581,0 -3.931744,0.14013 -2.310798,4.25182 0.362177,0.9187 0.882163,1.8412 1.155524,2.04999 0.273361,0.2088 1.273376,0.37963 2.222256,0.37963 h 1.725235 l 0.150141,4.1759 c 0.08258,2.29675 0.314328,4.58492 0.514999,5.08482 0.679934,1.69381 5.239822,7.74659 5.835926,7.74659 0.309068,0 0.561942,-0.20672 0.561942,-0.45939 0,-0.40296 1.331676,-0.44959 10.841382,-0.37962 l 10.841383,0.0798 0.546877,2.88517 c 0.300783,1.58684 0.967208,4.77616 1.480947,7.08738 0.513738,2.31121 0.859947,4.39537 0.769352,4.63145 -0.130267,0.33948 -0.992426,0.42925 -4.122374,0.42925 -3.329896,0 -3.957658,0.0729 -3.957658,0.45932 0,1.28917 10.543651,6.4069 14.824768,7.19573 1.104152,0.20345 2.237042,0.5994 2.517534,0.87989 0.630254,0.63026 5.880228,1.89757 6.851261,1.65385 l 0.710003,-0.1782 0.0163,-11.45896 c 0.009,-6.30243 0.002,-15.59681 -0.01549,-20.65416 l -0.03179,-9.1952 4.4951,0.0841 4.4951,0.0841 -0.101702,6.22589 c -0.147051,9.00203 -0.592382,18.3686 -1.097396,23.08136 -0.241642,2.25498 -0.601735,6.00157 -0.800205,8.32575 -0.454979,5.328 -0.608564,5.1453 4.12521,4.9071 1.8374,-0.0924 4.92792,-0.22274 6.86783,-0.28951 z M 79.783674,195.75418 c -0.354416,-0.57346 -2.741971,-11.73009 -2.96563,-13.85789 l -0.09577,-0.9111 2.961095,-0.0869 2.961094,-0.0869 v 7.60355 7.60355 h -1.348735 c -0.741805,0 -1.422229,-0.11892 -1.512055,-0.26426 z m 49.934606,-7.82344 c -4.73266,-0.67776 -4.90339,-0.73499 -4.73016,-1.58553 0.0901,-0.44247 0.30382,-1.76115 0.4749,-2.93041 0.17107,-1.16925 0.64398,-4.10757 1.05091,-6.52959 0.40692,-2.42202 1.10971,-6.65867 1.56174,-9.41476 0.45203,-2.7561 1.38631,-8.45446 2.07619,-12.66302 0.68987,-4.20856 1.34156,-7.73918 1.44819,-7.84581 0.1756,-0.17561 5.71663,0.36911 5.93052,0.583 0.10472,0.10472 -1.12703,8.12436 -2.19749,14.30734 -0.40486,2.33851 -1.35247,8.07847 -2.1058,12.75549 -2.16409,13.43562 -2.18469,13.54475 -2.54244,13.47338 -0.11402,-0.0228 -0.54897,-0.0903 -0.96656,-0.15009 z m -72.212308,-12.49309 -7.979329,-0.0809 0.08308,-5.23388 0.08308,-5.23389 10.705496,-0.0798 10.705496,-0.0798 v 1.06684 c 0,1.01192 -0.05344,1.06684 -1.038118,1.06684 -2.01163,0 -1.998902,-0.027 -1.998902,4.24714 0,4.24817 -0.141023,4.61979 -1.701815,4.48458 -0.483809,-0.0419 -4.47035,-0.11261 -8.85898,-0.15711 z m 18.901933,-8.89557 c -0.109101,-0.17653 -0.114563,-0.65486 -0.01214,-1.06296 0.181927,-0.72485 0.256234,-0.74199 3.217462,-0.74199 h 3.031234 v 1.06296 1.06295 h -3.019096 c -1.793374,0 -3.099632,-0.1303 -3.217463,-0.32096 z m -26.031781,-8.41424 -0.83518,-0.1125 v -25.61016 c 0,-23.07295 0.04759,-25.62842 0.480392,-25.7945 0.264215,-0.10138 4.074127,-0.18434 8.46647,-0.18434 6.430107,0 8.054032,0.0819 8.334858,0.42025 0.238527,0.28741 0.322284,1.94346 0.264963,5.23886 l -0.08382,4.81861 -1.962417,0.0921 c -2.265308,0.1063 -2.744964,0.39377 -2.744964,1.64518 0,0.71487 0.380652,1.25541 1.822212,2.5876 l 1.822212,1.68397 v 6.81626 6.81625 l -1.870351,1.94778 c -1.649268,1.71754 -2.00532,1.94778 -3.012181,1.94778 -2.138899,0 -2.102615,-0.0768 -2.102615,4.45197 v 4.08328 l 0.911106,0.31761 c 0.730088,0.25451 0.911107,0.49273 0.911107,1.19901 v 0.8814 h -4.533838 c -5.452937,0 -5.488329,0.0189 -5.488329,2.92683 0,3.4033 -0.839623,3.14721 10.31863,3.14721 9.328885,0 12.502086,0.29956 7.742248,0.73088 -2.257105,0.20454 -16.842449,0.16394 -18.440506,-0.0513 z m 27.636885,0.0166 c -2.276661,-0.19266 -1.680328,-0.6962 0.824495,-0.6962 2.011997,0 2.306568,-0.0738 2.618041,-0.65578 0.326672,-0.61039 0.208783,-3.46261 -0.158291,-3.82968 -0.08319,-0.0832 -1.103275,-0.1694 -2.266844,-0.19155 -1.163568,-0.0222 -2.219804,-0.14451 -2.34719,-0.27189 -0.288823,-0.28883 -0.346928,-0.66923 -0.577364,-3.77994 -0.283536,-3.82751 -0.378362,-3.72294 3.376126,-3.72294 h 3.174328 l -0.08185,6.58438 -0.08185,6.58438 -1.51851,0.0507 c -0.83518,0.0279 -2.167673,-0.004 -2.961094,-0.0714 z m -14.084873,-5.61797 c -0.116127,-0.1879 -0.227997,-5.90257 -0.139976,-7.15038 0.01974,-0.27984 0.933106,-0.37963 3.474665,-0.37963 h 3.447887 l 0.171401,3.72018 c 0.09427,2.04609 0.148545,3.73976 0.120612,3.76371 -0.208418,0.17864 -6.96546,0.22269 -7.074589,0.0461 z m 12.228229,-14.13553 c -0.08321,-0.29231 -0.08377,-1.89814 -0.0012,-3.5685 0.08253,-1.67036 0.182674,-5.01868 0.22255,-7.4407 l 0.0725,-4.40368 2.996119,-0.0875 c 1.647865,-0.0481 3.075746,0.041 3.173069,0.19799 0.09732,0.15703 0.138284,3.7839 0.09103,8.05971 l -0.08593,7.7742 H 79.46606 c -2.747904,0 -3.17807,-0.0691 -3.309695,-0.53148 z m 0.819288,-23.39181 c -0.231471,-0.14726 -0.389172,-1.61894 -0.455553,-4.25128 -0.08538,-3.38583 -0.02908,-4.04294 0.354026,-4.13224 0.250554,-0.0584 1.617213,-0.0907 3.03702,-0.0718 l 2.581467,0.0344 0.08423,4.13482 0.08423,4.13482 -1.147185,0.18959 c -1.56252,0.25824 -4.105894,0.2368 -4.538232,-0.0382 z M 76.660625,96.328248 c 0.195292,-3.34546 1.301137,-9.714787 2.412346,-13.894368 l 0.686324,-2.581467 1.442585,-0.09257 1.442584,-0.09256 v 9.886956 9.886956 H 79.561685 76.478906 Z M 72.327831,84.69646 c -0.0051,-1.177604 0.117687,-2.270931 0.272814,-2.429616 0.155127,-0.158684 0.325959,-0.765728 0.379627,-1.348987 0.06624,-0.719877 0.268274,-1.092806 0.629057,-1.161151 0.700711,-0.13274 0.683204,0.437418 -0.110736,3.606384 -0.897728,3.583226 -1.159771,3.881665 -1.170762,1.33337 z m 107.397959,47.53139 c -0.30114,-5.60059 -1.50823,-12.02285 -3.40572,-18.11996 -5.97565,-19.201314 -19.76024,-35.656702 -37.82329,-45.15164 -9.90551,-5.206884 -21.62661,-8.417957 -31.04932,-8.506169 l -3.6957,-0.0346 -0.0887,2.534977 c -0.0506,1.445847 0.0469,2.698374 0.22695,2.915289 0.19515,0.235139 1.50483,0.447656 3.43099,0.556733 3.48294,0.197237 5.68293,0.525642 11.00844,1.643295 16.71878,3.508729 32.13685,13.647792 42.40032,27.882844 3.38952,4.701131 5.81974,9.016381 7.74889,13.759391 3.23829,7.96168 4.9608,15.00084 5.43961,22.2293 0.28158,4.25103 0.0326,3.94813 3.24466,3.94813 h 2.75953 z M 101.19025,74.22324 c 0.32309,-0.172913 0.58744,-0.628466 0.58744,-1.01234 0,-1.11478 0.32027,-1.151268 1.4441,-0.164526 1.28027,1.124084 2.18648,1.491254 3.68056,1.491254 1.98915,0 2.20115,-0.368302 2.1006,-3.649371 l -0.0883,-2.880223 h -1.97406 -1.97407 l -0.0952,0.987032 c -0.0523,0.542867 -0.19637,0.987031 -0.32006,0.987031 -0.12368,0 -0.69351,-0.483506 -1.26629,-1.074459 -1.0312,-1.063933 -1.06377,-1.073602 -3.324369,-0.987031 l -2.282966,0.08743 -0.08826,2.880223 c -0.07496,2.446206 -0.009,2.938175 0.437674,3.264797 0.635622,0.464778 2.354551,0.502919 3.163121,0.07019 z"
         id="path348" /></g><path
       style="display:inline;fill:#ffffff;fill-opacity:1;fill-rule:evenodd;stroke:none;stroke-width:0.312208;stroke-linecap:round;stroke-linejoin:round;stroke-miterlimit:3.5"
       d="m 98.167883,68.259684 0.178271,6.239495 h 3.476296 v -3.119748 l 3.65456,3.030612 3.65456,0.08914 -0.0891,-6.328631 -3.65456,0.08914 -0.17827,3.47629 -3.83283,-3.654562 z"
       id="path359" /><path
       style="display:inline;fill:#ffffff;fill-opacity:1;fill-rule:evenodd;stroke:none;stroke-width:0.312208;stroke-linecap:round;stroke-linejoin:round;stroke-miterlimit:3.5"
       d="m 102.89207,130.92205 c -1.34771,3.23859 -3.196803,6.47719 -4.011103,9.71578 1.564253,0.10269 2.664463,-0.8387 3.921973,-1.42617 1.33703,0.43705 2.67407,1.17454 4.0111,1.53153 -0.30482,-3.09144 -2.61465,-6.54743 -3.92197,-9.82114 z"
       id="path360"
       sodipodi:nodetypes="ccccc" /><path
       style="display:inline;fill:#4e5dbd;fill-opacity:1;fill-rule:evenodd;stroke:none;stroke-width:0.312208;stroke-linecap:round;stroke-linejoin:round;stroke-miterlimit:3.5"
       d="m 103.8849,209.40073 -0.12606,5.30073 c 47.85432,-0.87094 76.95754,-40.29475 76.56239,-75.69266 l -5.79862,-0.12606 c -0.29429,33.67656 -27.52903,69.87895 -70.63771,70.51799 z"
       id="path361"
       sodipodi:nodetypes="ccccc" /></g></svg>
