<?xml version="1.0" encoding="UTF-8" standalone="no"?>
<!-- Created with Inkscape (http://www.inkscape.org/) -->

<svg
   version="1.1"
   id="svg1"
   width="999.99994"
   height="999.99994"
   viewBox="0 0 999.99996 999.99996"
   sodipodi:docname="buying house icon.svg"
   inkscape:version="1.4 (86a8ad7, 2024-10-11)"
   inkscape:export-filename="buyinghouseicon.png"
   inkscape:export-xdpi="96"
   inkscape:export-ydpi="96"
   xmlns:inkscape="http://www.inkscape.org/namespaces/inkscape"
   xmlns:sodipodi="http://sodipodi.sourceforge.net/DTD/sodipodi-0.dtd"
   xmlns="http://www.w3.org/2000/svg"
   xmlns:svg="http://www.w3.org/2000/svg">
  <defs
     id="defs1" />
  <sodipodi:namedview
     id="namedview1"
     pagecolor="#ffffff"
     bordercolor="#000000"
     borderopacity="0.25"
     inkscape:showpageshadow="2"
     inkscape:pageopacity="0.0"
     inkscape:pagecheckerboard="0"
     inkscape:deskcolor="#d1d1d1"
     inkscape:zoom="0.33894855"
     inkscape:cx="511.8771"
     inkscape:cy="511.8771"
     inkscape:window-width="1920"
     inkscape:window-height="1051"
     inkscape:window-x="-9"
     inkscape:window-y="-9"
     inkscape:window-maximized="1"
     inkscape:current-layer="g1" />
  <g
     inkscape:groupmode="layer"
     inkscape:label="Image"
     id="g1"
     transform="matrix(6.5769056,0,0,6.5769056,-4.857008,-4.9152105)"
     sodipodi:insensitive="true">
    <path
       style="fill:#226f24;fill-opacity:1;stroke:#000000;stroke-width:3.34129;stroke-linecap:round;stroke-dasharray:none;stroke-opacity:1;paint-order:normal"
       d="m 63.648413,138.30798 -34.904983,-0.16 -1.177973,-0.89854 c -0.647885,-0.4942 -1.464643,-1.46046 -1.815019,-2.14725 -0.619479,-1.21429 -0.637046,-1.91772 -0.637046,-25.5098 V 85.331309 l 2.96,-2.57997 c 5.417026,-4.721542 36.241947,-31.870272 41.326882,-36.398224 5.973812,-5.319465 7.094115,-6.2766 7.351413,-6.280707 0.153062,-0.0024 2.529062,1.981659 5.280001,4.409114 2.750938,2.427456 7.94255,6.999456 11.536914,10.160001 3.594365,3.160544 8.497378,7.474444 10.895588,9.586444 8.69454,7.656915 18.13808,15.963915 20.32693,17.880559 1.23075,1.077693 2.63121,2.340831 3.11215,2.806973 l 0.87442,0.847531 0.0115,23.42299 c 0.008,17.01306 -0.0911,23.76558 -0.36352,24.6749 -0.57301,1.91251 -2.25609,3.67051 -4.10068,4.28319 -1.37645,0.45718 -3.13965,0.51189 -13.67591,0.42436 -6.65266,-0.0553 -27.802977,-0.17249 -47.000717,-0.26049 z M 11.134393,86.950695 c -0.702695,-0.492187 -5.8374449,-6.922858 -6.4669449,-8.09909 -0.439116,-0.820495 -0.456302,-2.154666 -0.037828,-2.936593 0.1739265,-0.324984 2.8019266,-2.79743 5.8400009,-5.494322 3.038074,-2.696893 6.969578,-6.20153 8.736676,-7.788082 4.092811,-3.674647 7.775669,-6.960497 10.263577,-9.157179 1.076066,-0.950104 7.118525,-6.335462 13.427687,-11.967462 6.309162,-5.632001 15.076746,-13.45486 19.483518,-17.384133 4.406773,-3.929272 8.609824,-7.498463 9.340113,-7.931535 2.507237,-1.486829 6.729938,-1.602138 9.556276,-0.260952 0.973606,0.462006 3.425905,2.484477 8.164354,6.733343 10.270045,9.20893 15.454058,13.723276 15.759008,13.723276 0.28018,0 0.34929,-2.316574 0.27352,-9.167967 -0.11095,-10.033109 0.0275,-10.963111 1.74952,-11.747695 1.05189,-0.479271 18.1929,-0.504171 19.55767,-0.02841 0.53,0.18476 1.11863,0.676095 1.30806,1.091855 0.23176,0.508653 0.36492,7.219044 0.40709,20.513855 0.0345,10.866859 0.13021,19.987524 0.21276,20.268144 0.0826,0.280621 0.90173,1.158219 1.82037,1.950219 4.20146,3.622245 15.5516,13.748487 17.06358,15.223583 1.33905,1.306395 1.68,1.848006 1.68,2.66876 0,1.342826 -0.29708,1.871478 -2.98262,5.307658 -3.56341,4.559428 -3.99883,4.96 -5.3915,4.96 -1.31741,0 0.12038,1.209599 -20.74589,-17.453358 -3.96,-3.541857 -8.57736,-7.651794 -10.26081,-9.133192 -4.15677,-3.657866 -14.501065,-12.883431 -14.699185,-13.109477 -0.088,-0.100404 -2.176,-1.956072 -4.64,-4.123708 -2.464,-2.167636 -6.352001,-5.607507 -8.640001,-7.644159 -2.288,-2.036651 -4.390245,-3.893081 -4.671655,-4.125399 -0.571953,-0.472177 -0.462555,-0.554388 -6.692466,5.029291 -1.86551,1.672 -7.913586,7.072001 -13.440168,12.000001 -5.526581,4.928 -12.358491,11.029912 -15.182021,13.559803 -6.81614,6.107282 -6.163221,5.525439 -16.013765,14.270534 -4.75196,4.218686 -8.711927,7.74869 -8.799927,7.844455 -0.088,0.09577 -0.864274,0.784113 -1.725053,1.529664 -1.70373,1.475658 -3.014647,1.746311 -4.253946,0.878272 z"
       id="path1" />
    <g
       id="g2"
       transform="matrix(0.87096774,0,0,1,9.9096775,26.92149)"
       style="stroke:#000000;stroke-width:7.36626;stroke-linecap:round;stroke-linejoin:round;stroke-miterlimit:3.5;stroke-dasharray:none;stroke-opacity:1;paint-order:stroke fill markers">
      <g
         id="g3"
         transform="matrix(0.94652144,0,0,0.90360041,4.1074007,-17.675346)"
         style="stroke:#000000;stroke-width:7.96515;stroke-linecap:round;stroke-linejoin:round;stroke-miterlimit:3.5;stroke-dasharray:none;stroke-opacity:1;paint-order:stroke fill markers">
        <path
           id="text2"
           style="font-style:normal;font-variant:normal;font-weight:normal;font-stretch:normal;font-size:107.076px;font-family:'Nirmala UI';-inkscape-font-specification:'Nirmala UI';text-align:start;writing-mode:lr-tb;direction:ltr;text-anchor:start;fill:#f9f9f9;fill-rule:evenodd;stroke:#000000;stroke-width:7.96515;stroke-linecap:round;stroke-linejoin:round;stroke-miterlimit:3.5;stroke-dasharray:none;stroke-opacity:1;paint-order:stroke fill markers"
           d="m 39.364447,76.765123 3.108965,10.269447 h -5.134307 v 4.424626 h 6.473355 l 2.876761,9.505414 h -9.350116 v 4.42463 h 10.691744 l 7.541498,24.91408 h 8.576099 l 7.760803,-24.91408 h 10.214433 l 7.172551,24.91408 h 8.888286 l 7.469261,-24.91408 h 10.6066 v -4.42463 h -9.28046 l 2.85096,-9.505414 h 6.4295 V 87.03457 h -5.10335 l 3.078,-10.269447 h -8.47031 L 102.9989,87.03457 H 84.533453 L 81.713454,76.765123 H 73.87267 L 70.717264,87.03457 H 51.186255 L 48.358516,76.765123 Z M 77.219,87.012099 h 0.208984 c 5.81e-4,0.0077 0.002,0.01478 0.0026,0.02247 H 77.21642 c 5.96e-4,-0.007 0.002,-0.01551 0.0026,-0.02247 z m -24.81496,4.447097 h 16.953535 l -2.923201,9.505414 H 55.020215 Z m 23.839699,0 h 1.8886 c 0.04436,0.173193 0.08354,0.353202 0.131583,0.521338 l 2.585214,8.984076 h -7.562139 l 2.8329,-9.089692 c 0.04584,-0.145176 0.08079,-0.274455 0.123842,-0.415722 z m 9.504919,0 h 16.058252 l -2.561989,9.505414 H 88.359673 Z M 56.240581,105.38924 h 8.834104 l -3.542414,11.5301 c -0.522832,1.74277 -0.834573,3.38086 -0.939139,4.9145 h -0.417969 c -0.139422,-1.98676 -0.384181,-3.59119 -0.732735,-4.81114 z m 33.334297,0 h 8.478058 l -3.163146,11.73908 c -0.522832,1.84734 -0.817828,3.44952 -0.887539,4.80889 h -0.420549 c -0.174277,-1.91705 -0.433201,-3.51924 -0.781756,-4.80889 z" />
      </g>
    </g>
  </g>
</svg>
