<?xml version="1.0" encoding="UTF-8" standalone="no"?>
<!-- Created with Inkscape (http://www.inkscape.org/) -->

<svg
   version="1.1"
   id="svg1"
   width="1000"
   height="1000"
   viewBox="0 0 1000 1000"
   sodipodi:docname="home icon.svg"
   inkscape:version="1.4 (86a8ad7, 2024-10-11)"
   inkscape:export-filename="houseicon.png"
   inkscape:export-xdpi="96"
   inkscape:export-ydpi="96"
   xmlns:inkscape="http://www.inkscape.org/namespaces/inkscape"
   xmlns:sodipodi="http://sodipodi.sourceforge.net/DTD/sodipodi-0.dtd"
   xmlns="http://www.w3.org/2000/svg"
   xmlns:svg="http://www.w3.org/2000/svg">
  <defs
     id="defs1" />
  <sodipodi:namedview
     id="namedview1"
     pagecolor="#ffffff"
     bordercolor="#000000"
     borderopacity="0.25"
     inkscape:showpageshadow="2"
     inkscape:pageopacity="0.0"
     inkscape:pagecheckerboard="0"
     inkscape:deskcolor="#d1d1d1"
     inkscape:zoom="0.60214562"
     inkscape:cx="500.70945"
     inkscape:cy="500.70945"
     inkscape:window-width="1920"
     inkscape:window-height="1051"
     inkscape:window-x="-9"
     inkscape:window-y="-9"
     inkscape:window-maximized="1"
     inkscape:current-layer="g1" />
  <g
     inkscape:groupmode="layer"
     inkscape:label="Image"
     id="g1"
     transform="matrix(20.942561,0,0,20.942561,-2.62146,-2.6214605)"
     sodipodi:insensitive="true">
    <path
       style="fill:#375eb0;fill-opacity:1;stroke:#000000;stroke-width:1.06708;stroke-linecap:round;stroke-dasharray:none;stroke-opacity:1"
       d="M 8.5356303,43.594412 C 8.0958952,43.364413 7.8745488,43.142308 7.6534226,42.709027 7.4679082,42.345819 7.4593535,41.981097 7.4593535,34.559104 V 26.789373 L 8.40731,25.963138 c 1.734816,-1.512101 11.606626,-10.20659 13.235119,-11.656682 1.913121,-1.70358 2.271905,-2.010108 2.354322,-2.011426 0.04888,-7.84e-4 0.809934,0.634634 1.690944,1.412035 0.880986,0.777401 2.543624,2.241596 3.694742,3.253786 1.151094,1.012165 2.721319,2.393723 3.489358,3.070103 2.784451,2.452164 5.8088,5.112499 6.509771,5.72631 0.39415,0.345145 0.84266,0.749684 0.996693,0.89895 l 0.280032,0.271427 0.0049,7.501308 c 0.0025,5.37789 -0.02981,7.612959 -0.114384,7.895703 -0.154231,0.515163 -0.653432,1.112599 -1.077427,1.289753 -0.272649,0.113894 -1.429878,0.14103 -6.027605,0.14103 h -5.690158 l -0.0264,-5.867069 -0.0264,-5.867047 -3.663726,-0.02689 c -2.89554,-0.02201 -3.664142,2.19e-4 -3.665755,0.102417 -0.0011,0.07112 -0.01225,2.711908 -0.02567,5.868342 l -0.02444,5.738971 -5.738945,0.02542 c -5.0453809,0.022 -5.7760976,0.0049 -6.0461811,-0.135162 z M 2.9825171,27.308007 C 2.7574068,27.150356 1.1130502,25.090928 0.91145299,24.714228 0.77091177,24.451453 0.76529012,24.024183 0.89923201,23.773775 0.95495971,23.669652 1.7965693,22.87788 2.7695301,22.014199 3.7424907,21.150493 5.0015689,20.02812 5.5674977,19.520021 c 1.3107239,-1.176807 2.4901703,-2.22913 3.2869534,-2.932618 0.344607,-0.304279 2.2797249,-2.028951 4.3002679,-3.832621 2.020542,-1.803694 4.828384,-4.3089925 6.239687,-5.5673623 1.411279,-1.2583448 2.757322,-2.4013971 2.991206,-2.5401051 0.802943,-0.4761536 2.155291,-0.5130855 3.060425,-0.083592 0.311806,0.1478739 1.097174,0.7956587 2.614679,2.1563909 3.28903,2.949191 4.949225,4.3949315 5.046895,4.3949315 0.0897,0 0.111947,-0.741886 0.0875,-2.9360886 -0.03545,-3.2131392 0.0098,-3.5109646 0.560307,-3.7622521 0.33686,-0.1534955 5.826351,-0.1615613 6.263422,-0.00978 0.169625,0.059149 0.358244,0.2165558 0.418911,0.3496665 0.0743,0.1627835 0.116835,2.3119395 0.130274,6.5696532 0.01225,3.480166 0.0418,6.401104 0.0682,6.490975 0.0264,0.08995 0.288782,0.370907 0.582989,0.624566 1.345531,1.16004 4.980463,4.402998 5.464682,4.875411 0.428834,0.418374 0.538016,0.591838 0.538016,0.854685 0,0.430031 -0.09508,0.599344 -0.95519,1.699792 -1.141195,1.460186 -1.280637,1.588457 -1.726654,1.588457 -0.421917,0 0.03862,0.387381 -6.643957,-5.589507 -1.268219,-1.134301 -2.746932,-2.450525 -3.286073,-2.924943 -1.331231,-1.171455 -4.644019,-4.125972 -4.70747,-4.19837 -0.0281,-0.03202 -0.696889,-0.626447 -1.485998,-1.320622 -0.789079,-0.694197 -2.034251,-1.795845 -2.76697,-2.448078 -0.732746,-0.652258 -1.405999,-1.2467852 -1.496142,-1.321187 -0.18307,-0.151297 -0.148125,-0.1774474 -2.14329,1.610652 -0.597436,0.535474 -2.534337,2.26484 -4.304252,3.843055 -1.769915,1.578218 -3.957861,3.532377 -4.862114,4.342577 -2.182886,1.955895 -1.97381,1.76955 -5.1284837,4.570206 -1.521829,1.351054 -2.7900239,2.481568 -2.8182056,2.512218 -0.028108,0.03081 -0.2767805,0.251115 -0.5524613,0.48989 -1.0708823,0.927542 -1.4201463,0.08126 -1.3621403,0.281986 z"
       id="path1"
       sodipodi:nodetypes="ccscccscscscccccscccccccccccccccccscccscccccccsscsscccsccscsccc" />
  </g>
</svg>
