<?xml version="1.0" encoding="UTF-8" standalone="no"?>
<!-- Created with Inkscape (http://www.inkscape.org/) -->

<svg
   width="3779.5276"
   height="3779.5276"
   viewBox="0 0 1000 1000"
   version="1.1"
   id="svg1"
   xml:space="preserve"
   inkscape:version="1.4 (86a8ad7, 2024-10-11)"
   sodipodi:docname="panther icon.svg"
   inkscape:export-filename="panther icon.png"
   inkscape:export-xdpi="96"
   inkscape:export-ydpi="96"
   xmlns:inkscape="http://www.inkscape.org/namespaces/inkscape"
   xmlns:sodipodi="http://sodipodi.sourceforge.net/DTD/sodipodi-0.dtd"
   xmlns="http://www.w3.org/2000/svg"
   xmlns:svg="http://www.w3.org/2000/svg"><sodipodi:namedview
     id="namedview1"
     pagecolor="#ffffff"
     bordercolor="#000000"
     borderopacity="0.25"
     inkscape:showpageshadow="2"
     inkscape:pageopacity="0.0"
     inkscape:pagecheckerboard="0"
     inkscape:deskcolor="#d1d1d1"
     inkscape:document-units="mm"
     inkscape:zoom="0.13959973"
     inkscape:cx="1901.8661"
     inkscape:cy="1894.7028"
     inkscape:window-width="1920"
     inkscape:window-height="1051"
     inkscape:window-x="-9"
     inkscape:window-y="-9"
     inkscape:window-maximized="1"
     inkscape:current-layer="svg1" /><defs
     id="defs1" /><g
     inkscape:label="Layer 1"
     inkscape:groupmode="layer"
     id="layer1"
     transform="matrix(78.585405,0,0,78.585405,0.95428459,-1.3242746)"
     sodipodi:insensitive="true"><path
       style="fill:#1e2593;fill-opacity:1;stroke:#000000;stroke-width:0.16801;stroke-linecap:round;stroke-linejoin:miter;stroke-dasharray:none;stroke-opacity:1;paint-order:normal"
       d="M 5.7618721,12.59431 C 3.5909439,12.372075 1.6978753,11.049891 0.75836212,9.0996899 0.32845479,8.2073075 0.13548679,7.3640255 0.13548679,6.3776897 c 0,-0.97047 0.19130163,-1.8206255 0.60583871,-2.6923735 0.8836047,-1.8581736 2.6097746,-3.14388123 4.6737938,-3.48119105 0.4754049,-0.0776917 1.3975667,-0.0776917 1.8729717,0 2.819211,0.46072519 4.917662,2.65856205 5.250779,5.49946745 0.05287,0.4508531 0.02052,1.3467322 -0.06525,1.8067524 -0.487254,2.613538 -2.5616483,4.625658 -5.1919714,5.036101 -0.4087106,0.06376 -1.1395024,0.08679 -1.5197749,0.04787 z M 7.8843007,11.767112 C 9.1793162,11.54401 10.422815,10.793339 11.2397,9.7415347 12.769776,7.7714432 12.778392,5.0318441 11.260796,3.0375684 9.6198663,0.88122382 6.5920379,0.27017578 4.2302172,1.618725 3.8149208,1.8558491 3.4386798,2.1500045 3.0522918,2.5396561 2.6180568,2.9775611 2.3317972,3.377121 2.0661926,3.9160531 1.860892,4.3326191 1.7066942,4.7150326 1.7526593,4.6936189 1.8584537,4.6443346 4.1698294,3.4773112 4.1781249,3.4689937 4.1839915,3.4631353 4.0568871,3.2692877 3.8956294,3.038319 3.7343752,2.8073483 3.6079454,2.6128515 3.6146745,2.6061026 c 0.00681,-0.00674 0.2989491,0.014851 0.6493768,0.048023 0.3504254,0.033165 0.9881429,0.092003 1.4171497,0.1307589 l 0.7800107,0.07046 0.9946842,0.3419518 0.9946889,0.3419486 0.2814031,0.2496594 C 9.4318566,4.4098249 9.4086763,4.382041 9.4313921,4.6271396 l 0.020251,0.2184166 0.4174847,0.3184994 c 0.6498302,0.4957474 1.2420492,0.9444523 1.3101412,0.992651 0.06072,0.042982 0.06045,0.045448 -0.01343,0.1243431 -0.04147,0.04427 -0.125761,0.098512 -0.187307,0.120536 -0.103055,0.036879 -0.130117,0.077983 -0.342061,0.5195831 C 10.425002,7.3617651 10.336245,7.3340286 10.127005,7.5485089 9.8934339,7.7879298 9.1707452,8.2326066 9.3114989,8.1146851 9.3348735,8.0951022 9.3491181,8.0676895 9.3663269,8.0444106 9.8339975,7.411779 9.521209,6.8913816 9.057188,6.8437561 8.8304645,6.820486 8.6270406,6.9179825 8.4398606,7.010497 7.8259371,7.3139383 7.5464851,8.4418709 8.9355066,8.6533872 9.1170348,8.6810312 9.2707984,8.6072547 9.2774594,8.6139315 9.2841479,8.6205768 9.205417,8.7561501 9.1025547,8.9151244 8.9446914,9.1591197 8.8744677,9.2339166 8.6520466,9.3950007 8.3416505,9.6198016 8.0804756,9.7184781 7.7958799,9.7184781 H 7.594865 L 7.596385,9.61458 C 7.5971401,9.5574308 7.6092383,9.451289 7.623283,9.3786967 7.6486387,9.2474585 7.6475123,9.2453535 7.422659,9.005909 6.0152667,7.5071407 4.052466,11.398088 6.5589864,11.829586 c 0.238403,0.04105 0.9077663,0.0095 1.3254916,-0.06246 z M 6.5438012,3.6762852 c 0.017013,0 0.030953,-0.011823 0.030953,-0.026277 0,-0.014446 -0.2474505,-0.0987 -0.5498879,-0.1872254 L 5.4749766,3.3018316 5.0605684,3.3275032 c -0.2279228,0.01411 -0.4430985,0.0185 -0.4781634,0.00975 -0.062879,-0.015713 -0.062902,-0.015257 -0.002,0.03368 0.034026,0.027287 0.077065,0.049534 0.095626,0.049438 0.049609,-2.389e-4 1.0180934,0.2929677 1.0441531,0.3161266 0.012214,0.010851 -0.07683,0.127619 -0.1978469,0.2594937 C 5.4013197,4.1278622 5.301677,4.2459689 5.3009132,4.2584475 5.300147,4.2709162 5.5724979,4.1450467 5.9061306,3.9787155 6.2397634,3.8123865 6.5266611,3.6762966 6.5436803,3.6762966 Z"
       id="path1"
       sodipodi:nodetypes="sssssssssssssssssssssscccsscsssssssssssssssccsssssssscssscsscssss" /></g></svg>
