<?xml version="1.0" encoding="UTF-8" standalone="no"?>
<!-- Created with Inkscape (http://www.inkscape.org/) -->

<svg
   version="1.1"
   id="svg1"
   width="600"
   height="600"
   viewBox="0 0 600 600"
   sodipodi:docname="healing power.svg"
   inkscape:version="1.4 (86a8ad7, 2024-10-11)"
   inkscape:export-filename="healingpower.png"
   inkscape:export-xdpi="96"
   inkscape:export-ydpi="96"
   xmlns:inkscape="http://www.inkscape.org/namespaces/inkscape"
   xmlns:sodipodi="http://sodipodi.sourceforge.net/DTD/sodipodi-0.dtd"
   xmlns="http://www.w3.org/2000/svg"
   xmlns:svg="http://www.w3.org/2000/svg">
  <defs
     id="defs1" />
  <sodipodi:namedview
     id="namedview1"
     pagecolor="#ffffff"
     bordercolor="#000000"
     borderopacity="0.25"
     inkscape:showpageshadow="2"
     inkscape:pageopacity="0.0"
     inkscape:pagecheckerboard="0"
     inkscape:deskcolor="#d1d1d1"
     inkscape:zoom="0.54231771"
     inkscape:cx="49.786314"
     inkscape:cy="39.644658"
     inkscape:window-width="1920"
     inkscape:window-height="1051"
     inkscape:window-x="-32000"
     inkscape:window-y="-32000"
     inkscape:window-maximized="0"
     inkscape:current-layer="svg1" />
  <g
     inkscape:groupmode="layer"
     inkscape:label="Image"
     id="g1"
     transform="matrix(7.4333415,0,0,7.4333415,-80.536975,-43.622463)">
    <path
       style="fill:#5705b1;fill-opacity:1"
       d="m 35.674429,85.305508 c 0,-1.080446 1.415241,-1.53613 4.776,-1.537794 2.787754,-0.0014 3.990639,-0.225328 5.212884,-0.970511 2.630505,-1.603774 3.139377,-3.503532 3.354881,-12.524685 l 0.19056,-7.976991 1.82446,0.463097 1.82446,0.463098 0.183963,7.753893 c 0.194413,8.194335 0.517237,9.534188 2.793702,11.595026 0.847013,0.766783 1.890527,0.992763 5.209142,1.128075 3.901464,0.159076 5.349948,0.584031 5.349948,1.569565 0,0.23286 -6.868781,0.421227 -15.36,0.421227 -8.448,0 -15.36,-0.1728 -15.36,-0.384 z m 19.955577,-4.510869 c -0.69874,-0.99759 -0.665427,-1.085744 0.613493,-1.62349 2.960957,-1.244988 4.549565,-5.329189 2.499601,-6.426297 -0.512231,-0.274138 -1.754231,-0.669406 -2.76,-0.878374 -1.74596,-0.362756 -1.828671,-0.465811 -1.828671,-2.278456 0,-1.820865 0.0589,-1.892734 1.44,-1.757192 3.956848,0.388326 8.4,3.974147 8.4,6.779171 0,2.387064 -2.358884,5.229643 -5.391134,6.496598 -2.226741,0.930391 -2.093306,0.944391 -2.973289,-0.31196 z m -13.0276,-0.862387 c -1.601612,-0.776999 -3.329612,-1.888106 -3.84,-2.469126 -0.919357,-1.046588 -0.91906,-1.052661 0.03202,-0.653761 0.528,0.221452 2.608881,0.977813 4.62418,1.680803 3.11484,1.086539 3.597011,1.39819 3.216149,2.078752 -0.577662,1.032225 -0.599359,1.0288 -4.032352,-0.636668 z m -7.407977,-9.18869 c -3.519761,-0.578254 -6.61143,-2.556682 -8.324016,-5.326725 -3.455697,-5.589458 -1.336471,-11.749175 4.597714,-13.36366 2.843222,-0.773542 8.508626,-0.256691 13.110599,1.196072 8.397575,2.650968 17.08325,3.569537 21.606965,2.285083 4.127315,-1.171901 5.184527,-4.396315 2.063721,-6.29419 l -1.479253,-0.899588 2.326156,-1.028969 c 1.279385,-0.565933 2.814846,-1.48807 3.412135,-2.049194 l 1.085979,-1.020224 1.263526,1.16367 c 1.603207,1.476508 3.528877,5.52537 3.521243,7.403671 -0.0079,1.953667 -1.567966,5.252862 -3.202196,6.772113 -3.398696,3.159574 -9.388334,4.829671 -15.404002,4.295112 -3.530877,-0.313758 -8.034463,-1.505321 -14.313387,-3.78705 -9.799811,-3.5612 -16.319666,-2.215726 -13.803918,2.848656 1.641792,3.305046 2.791824,3.769048 9.81332,3.959372 l 6.205414,0.168204 v 2.111796 2.111797 l -4.92,-0.05611 c -2.706,-0.03086 -6.108,-0.251288 -7.56,-0.489833 z m 15.36,-16.544986 c -1.848142,-0.495466 -2.97661,-1.136728 -3.762235,-2.137925 -1.46014,-1.860795 -2.810654,-2.525247 -8.229066,-4.048697 -2.462755,-0.692433 -5.263912,-1.660045 -6.224793,-2.15025 -2.941598,-1.500691 -6.233482,-5.504689 -7.702667,-9.368938 L 24.17819,35.289508 h 26.841518 26.841519 l -1.012283,2.435824 c -1.239031,2.98144 -4.664257,6.884351 -7.158482,8.156809 -1.018615,0.519659 -3.756717,1.454563 -6.08467,2.077564 -2.327953,0.623001 -4.895125,1.475313 -5.704827,1.894026 -1.691927,0.87493 -3.986536,3.426291 -3.986536,4.432605 0,0.812976 -1.7e-4,0.812972 -3.36,-0.08776 z M 31.120168,32.699698 C 28.235806,28.918105 27.231909,22.704321 28.768923,18.146283 31.653824,9.5910631 41.521954,5.0072461 50.913664,7.8598901 c 4.090055,1.242316 6.639229,3.6802279 7.143112,6.8313409 0.173577,1.085491 1.041722,2.978168 1.92921,4.205949 2.255844,3.120808 2.370719,3.478802 1.354691,4.22174 -1.350132,0.98724 -2.702417,0.793971 -5.723085,-0.817949 l -2.751975,-1.468536 0.320241,1.588536 c 0.176133,0.873696 0.420902,1.948359 0.543931,2.388142 0.12303,0.439782 -0.0106,0.944401 -0.296943,1.121374 -0.752488,0.465062 -2.752031,-0.98884 -3.119429,-2.268191 -0.172603,-0.601033 -1.067981,-1.75335 -1.989729,-2.560704 -1.265974,-1.108859 -1.743012,-1.968217 -1.950247,-3.51327 -0.192311,-1.433791 -0.615794,-2.269082 -1.416324,-2.79361 -1.037917,-0.68007 -1.32701,-0.675871 -3.172337,0.04608 -5.363999,2.098558 -7.921327,7.178811 -5.831071,11.5837 0.744689,1.569315 4.550416,5.442858 6.92072,7.044043 1.158563,0.782632 0.997804,0.811493 -4.655572,0.8358 l -5.855572,0.02517 z m 23.967043,-3.276993 c 1.032405,-1.473965 0.931515,-3.665002 -0.258658,-5.617285 l -1.002288,-1.644089 1.364082,0.866226 c 3.604923,2.289215 4.809866,4.512342 3.524082,6.501951 -0.354054,0.54786 -0.467057,0.353803 -0.47265,-0.811672 -0.004,-0.842419 -0.22335,-1.665167 -0.48735,-1.828328 -0.264,-0.163161 -0.48,0.01096 -0.48,0.38694 0,0.843149 -1.815981,3.21306 -2.462056,3.21306 -0.259809,0 -0.136132,-0.480061 0.274838,-1.066803 z"
       id="path1" />
  </g>
</svg>
