<?xml version="1.0" encoding="UTF-8" standalone="no"?>
<!-- Created with Inkscape (http://www.inkscape.org/) -->

<svg
   version="1.1"
   id="svg1"
   width="847.73346"
   height="341.94226"
   viewBox="0 0 847.73345 341.94225"
   sodipodi:docname="speed.svg"
   inkscape:version="1.4 (86a8ad7, 2024-10-11)"
   inkscape:export-filename="speed.png"
   inkscape:export-xdpi="96"
   inkscape:export-ydpi="96"
   xmlns:inkscape="http://www.inkscape.org/namespaces/inkscape"
   xmlns:sodipodi="http://sodipodi.sourceforge.net/DTD/sodipodi-0.dtd"
   xmlns="http://www.w3.org/2000/svg"
   xmlns:svg="http://www.w3.org/2000/svg">
  <defs
     id="defs1" />
  <sodipodi:namedview
     id="namedview1"
     pagecolor="#ffffff"
     bordercolor="#000000"
     borderopacity="0.25"
     inkscape:showpageshadow="2"
     inkscape:pageopacity="0.0"
     inkscape:pagecheckerboard="0"
     inkscape:deskcolor="#d1d1d1"
     inkscape:zoom="0.54231771"
     inkscape:cx="303.32773"
     inkscape:cy="-28.581032"
     inkscape:window-width="1920"
     inkscape:window-height="1051"
     inkscape:window-x="-9"
     inkscape:window-y="-9"
     inkscape:window-maximized="1"
     inkscape:current-layer="g1" />
  <g
     inkscape:groupmode="layer"
     inkscape:label="Image"
     id="g1"
     transform="translate(254.97837,-76.462246)">
    <path
       style="fill:#0d18b3;fill-opacity:1;stroke-width:10.0327"
       d="m 36.541636,415.24616 c -38.6072723,-4.58223 -132.431783,-22.91562 -132.431783,-25.87727 0,-4.15852 65.658967,-17.14616 120.266182,-23.78916 l 40.807131,-4.9642 77.177544,0.15321 77.17755,0.15309 -9.34788,7.0704 c -5.14135,3.88872 -13.8096,7.10359 -19.26279,7.14414 l -9.91493,0.0743 7.22355,4.66822 c 10.86913,7.02417 27.58185,5.76673 44.7844,-3.36954 l 15.41187,-8.18523 -8.48949,-1.81122 -8.48951,-1.81124 34.97585,-33.63595 34.97587,-33.63597 -23.94481,2.22804 -23.9448,2.22806 -49.23295,25.20677 -49.23295,25.20674 -20.12763,-3.21854 C 112.6117,345.51327 96.737891,338.41628 96.737891,332.00915 v -4.1896 l 28.543689,2.58826 28.54368,2.58824 52.11932,-29.16034 c 28.66562,-16.03818 60.08346,-32.90181 69.81743,-37.4747 l 17.69812,-8.3144 16.73959,7.94346 c 9.20676,4.36888 21.82973,7.8902 28.05104,7.8251 l 11.31144,-0.11833 70.70943,-36.00677 70.70939,-36.00678 3.07547,-9.68993 3.07547,-9.68994 17.60674,14.51299 17.60676,14.51293 h 8.53417 8.53417 v -6.89564 -6.89563 l 13.9866,-9.95932 c 14.21265,-10.12031 29.35471,-13.20655 29.35471,-5.98307 0,2.18695 -5.41765,9.06591 -12.03924,15.28657 -6.6216,6.22066 -12.03924,14.18313 -12.03924,17.69439 v 6.38411 l -32.50599,0.11488 c -17.87829,0.0633 -40.57615,1.98935 -50.43966,4.28034 l -17.93364,4.16542 -54.30189,43.3118 c -29.86599,23.8215 -71.85126,55.04271 -93.30054,69.38048 l -38.99867,26.06866 47.42617,8.61015 47.42616,8.61016 v 3.75269 3.75264 l -39.72954,7.67243 c -21.85124,4.21982 -56.68111,9.93404 -77.39969,12.69826 l -37.67013,5.02586 -85.13024,-0.72154 c -46.821645,-0.3969 -91.631434,-1.49317 -99.577334,-2.43625 z m 34.310473,-135.89233 -32.851022,-33.10471 9.196417,-6.62483 c 5.058042,-3.64366 10.805779,-9.31555 12.772764,-12.60416 l 3.576347,-5.97935 -15.582418,-19.39025 -15.582418,-19.39023 5.354584,-5.35458 5.3546,-5.35459 31.729754,8.58885 c 17.451371,4.72386 35.231853,11.14965 39.512183,14.27951 l 7.78242,5.69064 -28.33974,22.99682 c -15.586861,12.64823 -28.888914,24.40467 -29.560133,26.1254 -0.671176,1.72075 9.720731,16.65058 23.093224,33.1774 13.372489,16.52683 22.531789,30.04877 20.354029,30.04877 -2.17776,0 -18.742525,-14.89711 -36.810591,-33.10469 z M 126.72842,291.9918 C 100.04765,268.0067 96.557196,263.67417 99.751117,258.50629 101.05887,256.3903 128.0042,242.41791 159.62962,227.45651 l 57.50081,-27.20252 v -7.93236 -7.93237 l -18.05889,-17.26292 c -9.93237,-9.4946 -23.2813,-19.94789 -29.66425,-23.22955 l -11.60537,-5.96662 8.08731,-4.52589 8.08732,-4.52589 27.77869,16.87464 27.77866,16.87466 22.08984,24.35056 22.08983,24.35054 h 17.4576 17.45758 v 3.8567 3.85671 l -37.32167,5.36145 -37.3217,5.36146 -15.65116,18.07069 c -8.60815,9.93888 -16.33138,17.1678 -17.1628,16.06426 -0.83141,-1.10351 -5.92396,-7.84486 -11.31683,-14.98076 l -9.80519,-12.97438 -17.57724,11.94405 c -9.66749,6.56923 -17.57727,13.88544 -17.57727,16.25824 0,2.37278 7.04297,9.17761 15.65105,15.12183 8.60806,5.94419 16.54067,11.49615 17.62804,12.33764 3.65647,2.82969 -15.4391,20.85184 -22.0938,20.85184 -3.62163,0 -16.8299,-9.21002 -29.35176,-20.46672 z m 163.35004,-121.4394 -6.03806,-16.69792 -18.97139,-16.2388 -18.9714,-16.23881 -18.65408,-5.58891 -18.65409,-5.5889 h -35.75119 -35.75121 l -28.64785,7.46183 c -15.756345,4.10401 -48.405766,16.82123 -72.554274,28.26047 l -43.9063991,20.79868 -52.4618059,-6.62237 c -28.854002,-3.64227 -62.213611,-8.723 -74.132471,-11.29046 l -21.67065,-4.6681 -46.94787,17.54772 -46.94786,17.54775 -3.21569,-3.21572 c -1.76863,-1.76861 -2.31275,-3.75744 -1.20915,-4.4196 1.1036,-0.66215 23.82181,-12.03924 50.48492,-25.28245 l 48.47837,-24.07848 38.20425,5.69958 c 21.012318,3.13478 61.17253,7.23304 89.244901,9.10726 l 51.040687,3.40767 48.046054,-26.96631 C 97.517553,98.655042 125.09051,84.257157 132.36547,81.491228 l 13.2272,-5.028982 37.78089,9.646321 c 46.867,11.966229 75.30763,24.006393 108.06174,45.747323 l 25.41391,16.8688 21.17219,0.28702 c 11.64471,0.15792 32.00754,2.1718 45.25071,4.47528 l 24.07851,4.18817 38.00914,-10.004 38.00914,-10.00399 5.18406,-13.73406 c 6.27034,-16.61206 10.23636,-17.16105 19.69442,-2.7262 l 7.21259,11.00783 20.5887,5.80623 c 11.32378,3.19342 24.55598,8.90029 29.40493,12.6819 l 8.81624,6.8757 -10.13052,10.13052 -10.13055,10.13054 -10.72496,-5.93024 -10.72496,-5.93025 14.44712,-2.73978 14.44709,-2.73976 -8.82132,-3.47961 c -4.85176,-1.91379 -13.93891,-3.47961 -20.19369,-3.47961 h -11.37231 l -6.91429,-9.87153 -6.91429,-9.87154 -3.08193,12.2794 -3.08193,12.27936 h -26.0811 -26.08111 l -13.5567,5.534 -13.55668,5.534 -38.5256,1.2303 -38.5256,1.23027 -21.07219,7.68282 c -27.54848,10.04406 -26.61325,10.29501 -33.59586,-9.01506 z"
       id="path1" />
  </g>
</svg>
