<?xml version="1.0" encoding="UTF-8" standalone="no"?>
<!-- Created with Inkscape (http://www.inkscape.org/) -->

<svg
   version="1.1"
   id="svg1"
   width="600"
   height="600"
   viewBox="0 0 600 600"
   sodipodi:docname="strength power.svg"
   inkscape:version="1.4 (86a8ad7, 2024-10-11)"
   inkscape:export-filename="strength power.png"
   inkscape:export-xdpi="96"
   inkscape:export-ydpi="96"
   xmlns:inkscape="http://www.inkscape.org/namespaces/inkscape"
   xmlns:sodipodi="http://sodipodi.sourceforge.net/DTD/sodipodi-0.dtd"
   xmlns="http://www.w3.org/2000/svg"
   xmlns:svg="http://www.w3.org/2000/svg">
  <defs
     id="defs1" />
  <sodipodi:namedview
     id="namedview1"
     pagecolor="#ffffff"
     bordercolor="#000000"
     borderopacity="0.25"
     inkscape:showpageshadow="2"
     inkscape:pageopacity="0.0"
     inkscape:pagecheckerboard="0"
     inkscape:deskcolor="#d1d1d1"
     inkscape:zoom="0.38347653"
     inkscape:cx="52.154431"
     inkscape:cy="48.242849"
     inkscape:window-width="1920"
     inkscape:window-height="1051"
     inkscape:window-x="-9"
     inkscape:window-y="-9"
     inkscape:window-maximized="1"
     inkscape:current-layer="g1" />
  <g
     inkscape:groupmode="layer"
     inkscape:label="Image"
     id="g1"
     transform="translate(3.7485998,0.81491297)">
    <g
       id="g15"
       transform="matrix(9.029078,0,0,9.029078,-136.83706,-138.60165)">
      <path
         style="fill:#2233b6;fill-opacity:1"
         d="m 27.36,57.355844 c 0,-0.398286 -0.648,-1.618694 -1.44,-2.712019 -2.07688,-2.86705 -1.90276,-4.202666 0.96,-7.363825 1.753767,-1.936571 2.4,-3.036535 2.4,-4.085082 0,-1.985031 -0.757474,-1.793658 -1.92,0.485082 -0.538731,1.056 -1.029121,1.91908 -1.089755,1.917956 -0.06063,-0.0011 -0.173306,-2.259968 -0.250381,-5.019652 -0.119233,-4.269184 0.0033,-5.289132 0.821434,-6.837957 C 28.45577,30.683989 28.56,30.70228 28.56,34.041954 c 0,2.894331 0.187202,3.533574 1.8,6.146514 2.296568,3.720733 2.288387,4.897807 -0.05186,7.462257 -2.713992,2.973995 -2.961621,3.658047 -2.625857,7.253675 0.163099,1.74658 0.157308,3.1756 -0.01287,3.1756 C 27.499235,58.08 27.36,57.75413 27.36,57.355844 Z M 70.305319,51.84 c 0.106029,-0.924 0.336713,-2.357022 0.512629,-3.184492 0.27421,-1.289819 0.06288,-1.788926 -1.481052,-3.497875 -1.687026,-1.867337 -1.955695,-1.989569 -4.248899,-1.933074 -3.204875,0.07896 -6.646195,-0.633939 -5.407158,-1.120134 0.484462,-0.190101 2.104462,-0.481398 3.6,-0.647327 1.738151,-0.192845 3.108885,-0.655825 3.799397,-1.283285 1.015402,-0.922684 1.035178,-1.055788 0.329503,-2.217706 -0.72284,-1.19018 -0.705015,-1.186069 0.479764,0.11066 0.680333,0.744617 1.231597,1.92498 1.232956,2.64 0.0014,0.711278 0.534612,2.157233 1.18502,3.213233 1.324393,2.15028 1.423569,3.693501 0.462712,7.2 -0.488577,1.782986 -0.608091,1.96809 -0.464872,0.72 z M 34.193018,42.70246 c -1.677086,-0.673762 -2.178492,-2.592998 -1.578119,-6.040591 0.283264,-1.626621 0.384416,-3.358977 0.224783,-3.849681 -0.24026,-0.738548 -0.20105,-0.7682 0.227688,-0.172188 0.284862,0.396 0.521237,1.3788 0.52528,2.184 0.0086,1.713108 0.756644,2.616 2.16735,2.616 2.616405,0 2.859772,-2.709084 0.48,-5.343206 -1.938539,-2.145731 -2.040037,-3.068254 -0.719758,-6.541943 1.214041,-3.194174 1.20461,-4.232227 -0.05989,-6.591501 l -1.019643,-1.902432 1.899178,1.669541 c 1.044548,0.918247 2.388812,2.362174 2.987253,3.208725 1.024946,1.449883 1.068365,1.828338 0.74837,6.523096 -0.484053,7.101697 0.572184,8.846098 5.094135,8.413086 2.176379,-0.208405 2.338478,-1.415463 0.475095,-3.53774 -2.059425,-2.345555 -2.255031,-3.614273 -1.061787,-6.886855 1.133308,-3.108206 1.254558,-4.470079 0.520154,-5.842327 C 44.829823,20.0978 44.716276,19.68 44.850785,19.68 c 0.687099,0 1.760293,3.226833 1.8686,5.61842 0.06764,1.493637 0.329451,2.787897 0.5818,2.876134 2.210723,0.773007 2.866628,1.461336 3.00779,3.156483 0.277178,3.328481 1.907261,1.832988 2.758823,-2.531037 0.495669,-2.540166 1.562534,-4.309669 2.90644,-4.820621 1.949037,-0.741023 2.344392,-0.535262 1.236818,0.643697 -0.569958,0.606691 -1.171378,1.778535 -1.33649,2.604096 -0.262565,1.312822 -0.02276,1.797628 1.912615,3.866702 C 59.737997,33.179454 60,33.714812 60,35.615384 c 0,2.198818 0.983902,3.719219 2.437796,3.767068 0.912301,0.03002 -3.902035,1.896657 -4.893064,1.897157 -0.426397,2.15e-4 -1.324467,-0.431609 -1.99571,-0.959609 -1.377756,-1.083743 -2.169415,-1.27671 -1.39129,-0.339127 0.40775,0.491309 0.183832,0.582178 -1.07302,0.435448 -0.983214,-0.114785 -2.338448,0.197273 -3.557383,0.819127 -2.434397,1.241937 -3.189023,1.253853 -4.842509,0.07647 -2.436187,-1.734719 -3.51918,-1.701513 -5.767416,0.176835 -2.11489,1.76694 -2.866614,1.96006 -4.724386,1.21371 z M 51.580878,39.84 c 0.406517,0 0.739122,-0.216 0.739122,-0.48 0,-0.264 -0.332605,-0.48 -0.739122,-0.48 -1.065216,0 -4.540878,1.851933 -4.540878,2.419511 0,0.264 0.855395,0.04361 1.900878,-0.489756 C 49.98636,40.27639 51.17436,39.84 51.580878,39.84 Z M 64.32,37.105786 c -1.749346,-1.190922 -2.88,-2.428244 -2.88,-3.151705 0,-0.232339 0.70374,0.294945 1.563867,1.171742 0.860127,0.876797 1.994127,1.838844 2.52,2.137881 0.525873,0.299037 0.848133,0.643174 0.716133,0.764749 -0.132,0.121575 -0.996,-0.293625 -1.92,-0.922667 z M 62.647154,31.81498 61.804267,30.48 l 1.1112,1.066667 c 0.61116,0.586666 0.990459,1.187407 0.842886,1.33498 -0.147572,0.147572 -0.647612,-0.332428 -1.111199,-1.066667 z M 40.817009,21.066994 c -0.04637,-2.107428 0.631879,-5.25156 1.005682,-4.661994 0.60583,0.955523 0.467764,2.88723 -0.302691,4.235 -0.464203,0.812037 -0.691481,0.950086 -0.702991,0.426994 z"
         id="path17"
         sodipodi:nodetypes="ssssscscssssssssssssssscsssssssssssscsssssssssssssssssssssssssssssssssssssssscsssssss" />
      <path
         style="fill:#0a0e2b;fill-opacity:1"
         d="m 41.595184,78.6 c -0.426381,-1.122 -0.65931,-2.58 -0.517619,-3.24 l 0.257619,-1.2 -0.740767,1.277716 c -0.661466,1.140933 -0.66373,1.462089 -0.02115,3 0.395789,0.947256 0.615453,1.722284 0.488142,1.722284 -0.127311,0 -1.706114,-0.95394 -3.508453,-2.119867 -1.802338,-1.165927 -4.087672,-2.271954 -5.07852,-2.457838 -2.257188,-0.423451 -3.030046,-1.189213 -3.695885,-3.661952 -0.454623,-1.68834 -0.381841,-2.293466 0.531096,-4.415646 0.983619,-2.286483 1.03616,-2.931327 0.748131,-9.181944 -0.170381,-3.697514 -0.145083,-6.951273 0.05622,-7.230576 0.75571,-1.048534 2.78312,-2.132177 3.989135,-2.132177 1.439648,0 2.818071,-1.341715 4.191623,-4.08 1.049774,-2.092808 2.810656,-3.934589 3.296889,-3.448356 0.168168,0.168168 -0.04916,0.441953 -0.482943,0.608412 C 40.674916,42.206515 40.32,42.543199 40.32,42.788243 c 0,0.257844 0.387342,0.238235 0.919465,-0.04655 0.712186,-0.381151 1.388489,-0.223948 3,0.69733 2.217352,1.267629 3.041869,1.49979 2.560535,0.720976 -0.163161,-0.264 0.120634,-0.48 0.630655,-0.48 0.510021,0 1.932624,-0.444697 3.161339,-0.988217 2.593099,-1.147051 3.64622,-0.951996 6.014099,1.113905 1.556267,1.357794 1.8182,1.422583 4.8,1.187286 4.230768,-0.333855 5.382465,0.04168 6.387798,2.082865 0.663981,1.348117 0.734953,2.030424 0.34832,3.348629 C 67.871571,51.347201 67.81556,52.929862 68.015672,54 l 0.359032,1.92 0.297238,-2.4 c 0.295085,-2.382614 0.297785,-2.376476 0.372648,0.847247 0.04148,1.785986 -0.276593,4.513334 -0.70682,6.060774 -0.667076,2.39934 -1.024152,2.928891 -2.425587,3.597188 -0.903846,0.431014 -1.522971,0.97845 -1.375834,1.216523 0.147138,0.238074 -1.191348,0.982069 -2.974413,1.653323 -4.506198,1.696407 -5.481295,1.873508 -7.044021,1.27936 -1.254281,-0.476877 -1.304192,-0.585753 -0.617313,-1.34662 0.411015,-0.455287 0.996776,-1.820484 1.301692,-3.03377 0.515529,-2.051331 0.450758,-2.434537 -0.923951,-5.466391 C 53.465255,56.534405 52.8,54.598377 52.8,54.025351 52.8,53.452324 52.485865,52.5642 52.101921,52.051742 51.461332,51.196733 51.425282,51.278121 51.66417,53.04 c 0.14318,1.056 0.756409,3.216 1.362732,4.8 0.971315,2.537531 1.038871,3.151379 0.568115,5.162171 -0.485269,2.072782 -0.721728,2.353754 -2.57721,3.062369 -2.010555,0.767838 -2.057993,0.7621 -2.994394,-0.362171 -1.200484,-1.441337 -1.269792,-0.582602 -0.07808,0.967363 0.92676,1.20536 0.914514,1.205949 4.614663,-0.222028 0.939427,-0.362547 0.940932,-0.348753 0.07023,0.643698 -0.489375,0.557802 -1.512898,1.151046 -2.274496,1.318321 -1.995763,0.438343 -2.202456,1.182142 -0.34406,1.238123 1.389684,0.04186 1.444802,0.08805 0.440717,0.369274 -0.631186,0.176785 -1.487835,0.857254 -1.903664,1.512153 -0.746833,1.176205 -0.744084,1.180482 0.225406,0.350727 1.317728,-1.127801 3.382444,-1.08225 4.008981,0.08844 0.273288,0.510644 0.496888,1.059678 0.496888,1.220075 0,0.160398 -1.35,0.906259 -3,1.657471 -1.749375,0.796455 -3.892087,2.288836 -5.13994,3.579925 C 43.963093,79.643662 42.858439,80.64 42.685272,80.64 c -0.173167,0 -0.663706,-0.918 -1.090088,-2.04 z m 2.976794,-7.284824 c 0.751004,-0.38836 1.716747,-1.242237 2.146095,-1.897505 0.892361,-1.361915 0.540061,-2.577305 -1.991746,-6.87126 C 43.972806,61.268436 43.23017,59.282532 43.076024,58.13329 42.921878,56.984048 42.538436,55.799913 42.22393,55.50188 41.785439,55.086354 41.738914,55.239813 42.024407,56.16 c 0.204768,0.66 0.405238,1.848 0.445487,2.64 0.04025,0.792 0.98127,3.225719 2.091156,5.408264 l 2.017974,3.968264 -1.329512,0.518534 c -1.502958,0.586182 -2.561463,0.620847 -4.809512,0.157507 -1.08351,-0.22332 -1.56,-0.14259 -1.56,0.264306 0,0.322209 0.280883,0.478049 0.624184,0.346312 0.343301,-0.131737 1.151031,0.04244 1.794955,0.387056 0.968197,0.518163 1.441565,0.513433 2.735816,-0.02734 2.174965,-0.908758 1.960431,-0.444125 -0.335833,0.727342 -2.162551,1.103251 -4.285988,1.249003 -5.386905,0.369755 -0.413198,-0.33 -1.855017,-2.259111 -3.204044,-4.286914 -1.349026,-2.027802 -2.726239,-3.855448 -3.060474,-4.061435 -0.334234,-0.205987 -0.201557,0.246474 0.294839,1.00547 0.496395,0.758996 1.327731,2.100642 1.847412,2.981436 0.907047,1.537329 0.909347,1.601737 0.05746,1.608793 -0.725757,0.006 -0.760428,0.08768 -0.19033,0.448328 0.383395,0.242538 0.850947,0.345885 1.039003,0.229659 0.188057,-0.116225 0.810211,0.54639 1.382565,1.472478 0.62152,1.005641 1.55631,1.797043 2.320996,1.964977 0.704195,0.154649 1.496354,0.339273 1.760354,0.410275 0.554203,0.149052 2.057821,-0.367357 4.011978,-1.377891 z m 16.571803,-4.780752 c 1.304792,-0.545177 1.648364,-1.00103 1.8993,-2.52 0.548613,-3.320873 0.338255,-4.964536 -0.961186,-7.510381 C 61.378937,55.126819 60.529387,53.136 60.194005,52.08 59.588168,50.17243 59.584012,50.169809 59.55211,51.675256 c -0.01766,0.83339 0.628377,2.987357 1.435639,4.786591 1.338673,2.98365 1.43365,3.524277 1.08,6.147582 -0.36475,2.705646 -0.479645,2.902555 -1.937063,3.319781 -1.339781,0.38355 -1.683804,0.288496 -2.543743,-0.702838 L 56.592515,64.08 l 0.756069,1.56 c 0.83808,1.729213 1.451352,1.873745 3.795197,0.894424 z M 33.308446,59.494226 c 0.276451,-1.72883 0.131753,-2.197844 -1.194816,-3.872773 -1.859953,-2.348382 -2.47435,-2.104984 -0.667197,0.264315 1.146679,1.503374 1.263465,1.974999 0.971377,3.922782 -0.203256,1.355402 -0.155928,2.10514 0.122044,1.933344 0.249726,-0.15434 0.595593,-1.16579 0.768592,-2.247668 z"
         id="path16"
         sodipodi:nodetypes="sscsssssssssssssssssssssssscssssssssssssssssssssssssssssssssssssssscssssssssssssssssssssssssssssscssssssss" />
    </g>
  </g>
</svg>
