<?xml version="1.0" encoding="UTF-8" standalone="no"?>
<!-- Created with Inkscape (http://www.inkscape.org/) -->

<svg
   version="1.1"
   id="svg1"
   width="786.45142"
   height="555.34393"
   viewBox="0 0 786.45142 555.34393"
   sodipodi:docname="vision power.svg"
   inkscape:version="1.4 (86a8ad7, 2024-10-11)"
   inkscape:export-filename="vision power.png"
   inkscape:export-xdpi="96"
   inkscape:export-ydpi="96"
   xmlns:inkscape="http://www.inkscape.org/namespaces/inkscape"
   xmlns:sodipodi="http://sodipodi.sourceforge.net/DTD/sodipodi-0.dtd"
   xmlns="http://www.w3.org/2000/svg"
   xmlns:svg="http://www.w3.org/2000/svg">
  <defs
     id="defs1" />
  <sodipodi:namedview
     id="namedview1"
     pagecolor="#ffffff"
     bordercolor="#000000"
     borderopacity="0.25"
     inkscape:showpageshadow="2"
     inkscape:pageopacity="0.0"
     inkscape:pagecheckerboard="0"
     inkscape:deskcolor="#d1d1d1"
     inkscape:zoom="0.38347653"
     inkscape:cx="45.635127"
     inkscape:cy="-48.242848"
     inkscape:window-width="1920"
     inkscape:window-height="1051"
     inkscape:window-x="-9"
     inkscape:window-y="-9"
     inkscape:window-maximized="1"
     inkscape:current-layer="g1" />
  <g
     inkscape:groupmode="layer"
     inkscape:label="Image"
     id="g1"
     transform="translate(-3.0310779,-95.574736)">
    <path
       style="fill:#530f96;fill-opacity:1;stroke-width:9.64113"
       d="M 3.0496872,596.27744 C 3.0729985,527.83207 12.687837,467.5494 33.508949,405.30533 81.885924,260.68386 159.14762,181.49316 270.90415,161.98305 c 36.4282,-6.35951 88.46316,-5.03077 88.46316,2.25895 0,1.71617 -6.21305,7.71383 -13.8068,13.32812 -18.6517,13.7898 -29.16696,35.12994 -25.51135,51.77383 4.45411,20.27944 35.69323,46.19704 55.68243,46.19704 23.89673,0 60.09693,-20.16744 76.26629,-42.48859 7.6297,-10.5325 13.10804,-19.91416 12.17409,-20.84812 -0.93394,-0.93394 -12.61144,5.64605 -25.94995,14.6222 -25.18712,16.94969 -47.71379,20.92859 -65.27572,11.52973 -12.55322,-6.71829 -11.14124,-13.7204 2.76675,-13.7204 22.20692,0 43.44653,-13.32528 87.81113,-55.0908 58.66812,-55.23107 89.85952,-70.787419 147.67115,-73.649283 40.71582,-2.015556 104.50823,5.843593 104.50823,12.875303 0,1.9888 -8.04784,4.9029 -17.88408,6.47578 -28.61334,4.57545 -90.17844,37.84062 -109.3911,59.10675 -28.58202,31.63686 -37.09211,55.50945 -36.48367,102.34436 l 0.52602,40.49276 h -46.98934 c -25.84413,0 -70.61689,-3.28481 -99.49502,-7.29959 -42.74951,-5.94325 -61.06512,-6.36842 -98.57111,-2.28821 -47.7502,5.19466 -105.91241,21.97318 -132.00075,38.0793 -15.02476,9.27581 -15.04016,9.27584 -15.04016,0.0357 0,-11.18627 13.51837,-42.24819 30.03816,-69.02032 13.70734,-22.21424 12.28516,-23.69919 -9.69012,-10.11775 -35.17503,21.73938 -73.8465,80.11393 -87.30597,131.78832 -3.897274,14.96267 -7.085963,29.94893 -7.085963,33.3028 0,3.35386 14.056773,-4.71703 31.237273,-17.93533 45.69913,-35.15989 89.03228,-53.71467 145.71548,-62.39375 48.69691,-7.45624 55.54932,-7.35757 205.54224,2.9597 85.47271,5.87925 163.43827,0.83127 209.74158,-13.5799 l 28.23132,-8.78657 -3.1511,9.98165 c -6.42587,20.35508 -47.97872,75.97124 -76.50721,102.40059 -73.63271,68.21482 -170.1934,115.37853 -279.34662,136.4429 -79.53828,15.34932 -145.84034,10.51006 -211.35115,-15.42609 -16.10783,-6.3772 -34.73415,-12.91186 -41.391813,-14.52149 -16.709345,-4.0398 -47.098782,4.93019 -57.733337,17.04101 -8.719613,9.93007 -8.714166,10.0107 0.421993,6.25594 15.328898,-6.29978 38.05483,-8.19791 45.859327,-3.8303 5.911085,3.30803 -1.219265,11.56015 -36.613375,42.37353 L 3.0310779,650.91866 Z M 188.41872,526.96402 c -13.43142,-9.40773 -27.63302,-38.97852 -30.08318,-62.63965 -1.13172,-10.92892 -2.17719,-20.53317 -2.32329,-21.34281 -0.44071,-2.44213 -29.44154,18.33253 -43.47051,31.13998 -23.504467,21.4579 -24.001303,26.75731 -3.48964,37.22158 21.5471,10.9925 79.73799,27.79506 85.21326,24.60522 2.09588,-1.22104 -0.53508,-5.26399 -5.84664,-8.98432 z m 239.39217,-24.30491 c 32.13387,-16.65076 98.15518,-73.82482 98.15518,-85.00177 0,-2.82986 -11.0427,-3.43083 -29.08144,-1.58271 -15.99478,1.63872 -55.72502,0.81593 -88.28938,-1.82835 -55.8461,-4.53484 -60.06194,-4.28003 -74.24818,4.48755 -35.6233,22.0164 -32.72032,65.20997 4.87028,72.46534 18.58253,3.58662 36.0623,-11.69499 32.81397,-28.68749 -1.57208,-8.22383 -0.0704,-11.11644 5.77145,-11.11644 13.99352,0 25.29591,17.64683 25.41635,39.68343 0.0617,11.24626 1.75659,20.45437 3.76692,20.46249 2.01035,0.008 11.38153,-3.98881 20.82485,-8.88205 z M 591.27546,299.20067 c -14.30243,-14.30242 -12.52974,-34.08505 4.82555,-53.85163 18.86262,-21.48333 41.44859,-32.75675 79.77601,-39.81885 43.81606,-8.07342 75.91637,-25.40665 95.19048,-51.40009 8.81548,-11.88871 16.78497,-20.85899 17.71002,-19.93395 4.76012,4.76012 -15.70775,59.32679 -27.71938,73.899 -7.61976,9.24407 -30.8335,26.58204 -51.58612,38.52883 -20.75261,11.94678 -46.40576,29.69011 -57.00698,39.42963 -24.29815,22.32307 -47.11186,27.22478 -61.18958,13.14706 z"
       id="path1" />
  </g>
</svg>
